<svg width="334" height="157" fill="none" xmlns="http://www.w3.org/2000/svg"><path fill="#fff" d="M0 0h333.587v156.033H0z"/><path fill-rule="evenodd" clip-rule="evenodd" d="M106.434 65h-10.86v5.43h10.86V65zM88.787 80.61h17.647v-5.43H88.787v5.43zM82 90.791h24.434v-5.43H82v5.43zm136.356-16.727c-.861 1.181-1.292 2.491-1.292 3.91v12.817h5.43V78.137c0-.324.065-.624.217-.883a3.04 3.04 0 01.642-.753 2.573 2.573 0 011.724-.642h4.572l.311-4.072h-4.564c-1.761 0-3.28.083-4.076.276-1.245.304-2.234.97-2.964 2.001zm-17.583 16.727h5.43V71.787h-5.43v19.004zm0-21.04h5.43V65h-5.43v4.751zm-2.021 2.036h-7.307l-8.08 9.798 8.039 9.206h7.369l-8.768-9.4 8.747-9.604zm10.168 19.004h5.43V86.04h-5.43v4.751zm42.079-19.004h-5.43V86.72h-4.882c-.625 0-1.226-.2-1.765-.65-.535-.453-.818-.974-.818-1.598V71.787h-5.43V84.88c0 1.46.429 2.776 1.266 3.912.75 1.008 1.742 1.55 2.988 1.848.753.173 14.071.01 14.071.01V71.788zM141.756 83.29l6.758-.012.024 3.44h-6.839c-.537 0-.874.035-1.301-.31-.409-.34-.679-.77-.679-1.301 0-.596.28-1.083.707-1.442.453-.365 1.33-.375 1.33-.375zm5.372-7.43c.365.105.517.284.859.692.259.319.428.592.538.832a2.1 2.1 0 01.171.853v1.016h-9.006c-1.522 0-2.489.315-3.496 1.424-1.008 1.084-1.632 2.519-1.632 4.203 0 1.595.558 3.488 1.652 4.531 1.092 1.047 2.441 1.38 4.007 1.38h13.722V79.973c0-1.511-.151-2.747-.43-3.706-.259-.958-.796-1.853-1.633-2.683-.641-.621-1.411-1.033-2.312-1.331-.881-.32-1.945-.466-3.769-.466h-10.181l.339 4.072h11.171zm-24.943-.047c1.354 0 2.452.552 3.329 1.687.884 1.125 1.314 2.43 1.314 3.897 0 1.425-.41 2.71-1.225 3.795-.796 1.085-1.85 1.642-3.161 1.642h-5.149V75.813h4.892zm7.972-1.107c-1.525-1.945-3.461-2.919-5.759-2.919h-7.105V65h-5.43v25.791h12.469c2.389 0 4.323-.82 5.846-2.868 1.399-1.898 2.109-4.138 2.109-6.738 0-2.493-.71-4.67-2.13-6.48zm47.542 16.085h5.42V65h-5.42v25.791zm-2.824-12.851c0-1.411-.431-2.715-1.288-3.889-.732-1.025-1.719-1.687-2.966-1.99-.794-.192-2.085-.274-3.847-.274h-10.116v19.004h5.365V75.86h5.072c.645 0 1.228.212 1.72.638.28.237.494.495.646.748.149.258.214.558.214.878V90.79h5.2V77.94z" fill="#191919"/></svg>