<svg width="334" height="157" fill="none" xmlns="http://www.w3.org/2000/svg"><path fill="#fff" d="M0 0h333.59v156.03H0z"/><path fill-rule="evenodd" clip-rule="evenodd" d="M222.97 59v37.335H111V59h111.97zm-67.099 7.375c0-2.318 1.738-4.057 4.214-4.057 1.117 0 1.989.294 2.192.362l.02.007v1.054c-.106-.053-1.106-.475-2.16-.475-1.79 0-3.107 1.265-3.107 2.95 0 1.74 1.264 2.95 3.107 2.95 1.212 0 2.054-.315 2.107-.368v1.106c-.053.053-.895.317-2.212.317-2.897 0-4.161-2.213-4.161-3.846zm-34.707-3.952h-1.053v4.531c0 1.739-1.001 2.266-2.212 2.266-1.475 0-2.212-.79-2.212-2.266v-4.53h-1.159v4.741c0 2.107 1.475 3.056 3.318 3.056 2.107 0 3.318-1.16 3.318-3.056v-4.742zm8.111 0h-1.054v5.954l-4.634-5.953h-.896v7.744h1.001v-5.953l4.635 5.953h.948v-7.745zm1.79 0h1.106v7.745h-1.106v-7.745zm7.742 0h-5.583v.949h2.265v6.796h1.106v-6.796h2.212v-.949zm1.001 0h4.424v.949h-3.318v2.318h3.16v.948h-3.16v2.529h3.371v1h-4.477v-7.744zm8.479 0h-2.581v7.745h2.581c2.686 0 4.108-1.897 4.108-3.846 0-1.844-1.264-3.899-4.108-3.899zm-1.475 6.744v-5.795h1.317c2.107 0 3.107 1.37 3.107 2.897 0 1.633-1.106 2.898-3.107 2.898h-1.317zm25.702-6.744h1.106v6.744h3.212v1h-4.318v-7.744zm16.063 0h-2.37v7.745h1.106v-3.372h1.369l2.107 3.372h1.317c-.527-.738-2.318-3.635-2.318-3.635.158-.053 1.317-.474 1.317-1.95 0-1.37-.948-2.16-2.528-2.16zm-1.264.949h1.106c1.053 0 1.527.527 1.527 1.264 0 .632-.368 1.265-1.527 1.265h-1.106v-2.53zm-20.329-1.054c-2.265 0-4.108 1.791-4.108 3.951 0 2.213 1.791 3.952 4.108 3.952 2.265 0 4.108-1.792 4.108-3.952s-1.843-3.95-4.108-3.95zm0 6.902a2.945 2.945 0 01-2.95-2.95 2.945 2.945 0 012.95-2.95 2.945 2.945 0 012.949 2.95c0 1.633-1.264 2.95-2.949 2.95zm9.796-2.95c0-2.16 1.843-3.952 4.108-3.952 2.265 0 4.055 1.791 4.108 3.951 0 2.16-1.843 3.952-4.108 3.952-2.317 0-4.108-1.739-4.108-3.952zm1.159 0a2.944 2.944 0 002.949 2.95 2.944 2.944 0 002.949-2.95 2.944 2.944 0 00-2.949-2.95 2.944 2.944 0 00-2.949 2.95zm17.274-3.952c-1.527 0-2.475.896-2.475 2.055 0 1.053.579 1.633 1.422 2.002.072.036.193.09.332.153.267.12.6.27.774.374l.045.022c.43.214 1.166.58 1.166 1.242 0 .527-.526 1.054-1.58 1.054-1.053 0-1.58-.422-1.685-.527l-.527.948c.012.006.03.017.054.033.201.13.851.547 2.211.547 1.369 0 2.686-.633 2.686-2.16 0-1.318-1.211-1.897-1.896-2.213a6.982 6.982 0 01-.615-.303c-.086-.045-.164-.087-.228-.119-.526-.263-.948-.58-.948-1.159 0-.526.474-1 1.37-1 .895 0 1.422.316 1.527.42l.316-.947c-.025 0-.08-.023-.165-.058a4.503 4.503 0 00-1.784-.364zm-71.574 11.38h4.108v1h-3.002v2.213h3.002v.949h-3.002v3.582h-1.106v-7.744zm-5.372-.053c-2.264 0-4.108 1.791-4.108 3.951 0 2.213 1.791 3.951 4.108 3.951 2.265 0 4.108-1.79 4.108-3.95 0-2.213-1.79-3.952-4.108-3.952zm0 6.901a2.945 2.945 0 01-2.949-2.95 2.945 2.945 0 012.949-2.95 2.945 2.945 0 012.95 2.95c0 1.633-1.264 2.95-2.95 2.95zm30.863-6.848h1.053v7.744h-.948l-4.634-5.953v5.953h-1.054v-7.744h.948l4.635 6.006v-6.006zm34.971 0h-1.054v6.006l-4.687-6.006h-.895v7.744h1.053V75.49l4.582 5.953h1.001v-7.744zm-27.44 0h5.583v1h-2.212v6.744h-1.106V74.7h-2.265v-1.001zm11.797 0h-5.582v1h2.264v6.744h1.106V74.7h2.212v-1.001zm-30.652 0h4.372v1h-3.266v2.319h3.16v.948h-3.16v2.529h3.371v.948h-4.477v-7.744zm18.171 0h-4.372v7.744h4.477v-.948h-3.371v-2.529h3.16v-.948h-3.16v-2.318h3.266v-1.001zm12.324 3.898c0-2.16 1.843-3.951 4.108-3.951 2.264 0 4.055 1.739 4.108 3.951 0 2.16-1.844 3.951-4.108 3.951-2.318 0-4.108-1.738-4.108-3.95zm1.158 0a2.945 2.945 0 002.95 2.95 2.945 2.945 0 002.949-2.95 2.945 2.945 0 00-2.949-2.95 2.945 2.945 0 00-2.95 2.95zm-35.655-3.898h-2.528v7.744h2.633c1.949 0 2.634-1.106 2.634-2.054 0-1.634-1.317-1.95-1.422-1.95l.032-.014c.197-.086 1.021-.444 1.021-1.672 0-1.106-.737-2.054-2.37-2.054zm-1.422 3.371V74.7h1.264c.895 0 1.422.421 1.422 1.159 0 .79-.579 1.211-1.422 1.211h-1.264zm0 3.425v-2.476h1.475c1.106 0 1.58.527 1.58 1.264 0 .58-.316 1.212-1.58 1.212h-1.475zm52.614.21a.81.81 0 01.79-.79c.421 0 .79.37.737.79 0 .422-.316.79-.737.79a.81.81 0 01-.79-.79z" fill="#191919"/></svg>