<svg width="334" height="157" fill="none" xmlns="http://www.w3.org/2000/svg"><path fill="#fff" d="M.348 0h333.587v156.033H.348z"/><g clip-path="url(#clip0_2403_3448)"><path d="M90.205 79.343c1.815-.036 2.432.717 2.432 1.648 0 1.144-.834 1.65-2.612 1.65h-1.417v-3.226c.53-.058 1.064-.082 1.597-.072zm32.365-5.663c3.12 0 4.354.967 4.354 2.832 0 1.791-1.234 2.58-3.918 2.58-.327 0-.762 0-1.198-.036V73.68h.762zm43.54 0c3.121 0 4.354.967 4.354 2.832 0 1.791-1.233 2.58-3.919 2.58-.326 0-.762 0-1.197-.036V73.68h.762zm74.49 13.44h5.262V73.86h3.374c1.886 0 2.466-.646 2.466-2.868V69.2H240.6v17.92zm-106.818 0h5.264V73.86h3.374c1.888 0 2.468-.646 2.468-2.868V69.2h-11.106v17.92zm-29.571-16.45c-.653-1.219-1.343-1.506-2.799-1.506h-4.24l7.039 12.186-1.089 1.9c-.909 1.678-.602 3.245.821 3.87 1.463.642 3.134.036 4.186-2.007l6.64-12.257c.32-.584.494-1.235.508-1.9-.037-1.04-.761-1.9-2.141-1.936-1.705-.035-2.758.968-3.589 2.616l-2.397 4.66-2.939-5.627zm42.266 16.45h8.997c1.888 0 2.468-.644 2.468-2.509V82.82h-6.2v-2.69h3.192c1.888 0 2.468-.645 2.468-2.544V76.01h-5.66V73.5h3.737c1.887 0 2.467-.645 2.467-2.402V69.2h-11.464l-.005 17.919zm46.442-1.649c1.016 1.29 2.432 1.649 3.706 1.649h3.954l-7.257-8.96 4.285-4.516c1.013-1.04 1.19-2.043 1.19-2.652 0-1.075-.726-1.899-2.394-1.899-1.053 0-1.924.538-2.758 1.576l-5.257 6.488v-7.956h-5.262V87.12h5.262v-7.418l4.531 5.77zm39.73 1.649h5.261V71.637c0-1.361-.254-2.436-2.14-2.436h-3.121v6.809h-6.168v-4.373c0-1.361-.254-2.436-2.14-2.436h-3.127V87.12h5.261v-6.635h6.168l.006 6.635zm-149.301 0h6.821c5.08 0 7.91-2.58 7.91-6.307 0-3.585-2.94-5.233-6.132-5.233-1.198 0-2.141.035-3.339.143V73.5h5.007c1.891 0 2.47-.645 2.47-2.867V69.2H83.348v17.92zm76.739 0h5.261v-3.584a33.55 33.55 0 001.959.035c4.899 0 8.599-2.543 8.599-7.167 0-4.623-3.265-7.206-9.505-7.206h-6.314V87.12zm-43.539 0h5.262v-3.584c.579.035 1.233.035 1.959.035 4.97 0 8.599-2.543 8.599-7.167 0-4.623-3.266-7.206-9.507-7.206h-6.314l.001 17.922zm96.696 0h5.261V72.964c0-2.688-.618-3.978-2.902-3.907-1.308.036-2.359.752-3.629 2.437l-5.625 7.562v-7.419c0-1.361-.253-2.436-2.141-2.436h-3.119v14.87c0 2.401 1.342 3.225 2.539 3.225 1.415 0 2.432-.538 3.629-2.115l5.987-7.956v9.895z" fill="#191919"/></g><defs><clipPath id="clip0_2403_3448"><path fill="#fff" transform="translate(83.348 69.019)" d="M0 0h168.355v18.345H0z"/></clipPath></defs></svg>