<svg width="334" height="157" fill="none" xmlns="http://www.w3.org/2000/svg"><g clip-path="url(#clip0_3613_3799)"><path d="M165.29 81.55H157a1.37 1.37 0 00-1.46 1.49v9.47a1.402 1.402 0 00.421 1.07 1.416 1.416 0 001.079.4 1.4 1.4 0 001.47-1.47v-8h5.29v8a1.39 1.39 0 00.909 1.385c.186.07.383.098.581.085a1.432 1.432 0 001.48-1.49v-9.45a1.387 1.387 0 00-.4-1.083 1.4 1.4 0 00-1.08-.407zm14.42 0h-.12a2.408 2.408 0 00-2.06 1.3l-4.83 6.86v-6.67a1.341 1.341 0 00-.374-1.05 1.353 1.353 0 00-1.036-.41 1.372 1.372 0 00-1.45 1.46v9.1a1.56 1.56 0 001.65 1.67h.14a2.46 2.46 0 002.1-1.31l4.83-6.85v6.69a1.424 1.424 0 00.372 1.087 1.433 1.433 0 002.106 0 1.426 1.426 0 00.372-1.087v-9.13a1.53 1.53 0 00-.459-1.23 1.538 1.538 0 00-1.241-.43zm16.52 9.39h-.75v-8a1.4 1.4 0 00-.429-1.067 1.406 1.406 0 00-1.081-.393 1.382 1.382 0 00-1.46 1.46v8h-5.15v-8a1.5 1.5 0 00-3 0v9.47a1.382 1.382 0 001.46 1.45h8.92v1.31a1.463 1.463 0 002.53 1.11 1.46 1.46 0 00.38-1.11V92.4a1.313 1.313 0 00-.366-1.065 1.314 1.314 0 00-1.054-.395zm14.88 0h-.75v-8a1.417 1.417 0 00-.429-1.067 1.406 1.406 0 00-1.081-.393 1.38 1.38 0 00-1.46 1.46v8h-5.15v-8a1.5 1.5 0 00-3 0v9.47a1.382 1.382 0 001.46 1.45h8.92v1.31a1.464 1.464 0 00.869 1.458 1.458 1.458 0 002.041-1.458V92.4a1.32 1.32 0 00-.37-1.06 1.324 1.324 0 00-1.05-.4zm14.49.79l-4.05-8.8a2.052 2.052 0 00-2-1.38h-.15a2.08 2.08 0 00-2 1.38l-4 8.8a1.392 1.392 0 002.5 1.23l.82-1.92a9.142 9.142 0 002.77.41 7.91 7.91 0 002.66-.41l.87 1.9a1.422 1.422 0 001.895.685 1.427 1.427 0 00.685-1.895zm-6.11-2.91a6.892 6.892 0 01-1.76-.22l1.72-3.84 1.73 3.84a6.185 6.185 0 01-1.69.22zm-50.64-17.53h-.75v-7.95a1.39 1.39 0 00-1.47-1.44h-6.79a1.305 1.305 0 00-1.001.424 1.309 1.309 0 00-.329 1.036v1.93a17.033 17.033 0 01-.26 3.6 5.564 5.564 0 01-1 2.4h-.33a1.3 1.3 0 00-1.41 1.44v2.74a1.464 1.464 0 00.869 1.458 1.454 1.454 0 001.66-.349 1.448 1.448 0 00.381-1.11v-1.31h8.94v1.31a1.464 1.464 0 00.869 1.459 1.454 1.454 0 001.66-.349 1.448 1.448 0 00.381-1.11v-2.74a1.31 1.31 0 00-1.42-1.44zm-3.72 0h-4.82a9.48 9.48 0 00.74-2.08c.194-.988.291-1.993.29-3v-1.43h3.77l.02 6.51zm12.14-9.49a6.236 6.236 0 00-5.736 3.88 6.244 6.244 0 001.378 6.786 6.237 6.237 0 009.589-.963 6.24 6.24 0 001.049-3.463 6.141 6.141 0 00-6.28-6.24zm0 9.69a3.304 3.304 0 01-3.139-2.13 3.324 3.324 0 01-.211-1.32 3.354 3.354 0 014.669-3.26 3.343 3.343 0 012.021 3.26 3.25 3.25 0 01-.912 2.459 3.261 3.261 0 01-2.428.991zm28.24-9.69a6.24 6.24 0 106.28 6.2 6.127 6.127 0 00-6.28-6.2zm0 9.69a3.31 3.31 0 01-3.35-3.45 3.364 3.364 0 01.913-2.486 3.351 3.351 0 015.577 1.15c.157.427.225.882.2 1.336a3.257 3.257 0 01-.908 2.462 3.256 3.256 0 01-2.432.988zm-8.33-.2h-.75v-7.95a1.369 1.369 0 00-.41-1.045 1.374 1.374 0 00-1.05-.395h-6.8a1.299 1.299 0 00-1.33 1.46v1.93a17.722 17.722 0 01-.25 3.6 5.696 5.696 0 01-1 2.4h-.33a1.297 1.297 0 00-1.282.89 1.316 1.316 0 00-.058.55v2.74a1.447 1.447 0 00.381 1.11 1.45 1.45 0 001.074.47 1.458 1.458 0 001.455-1.58v-1.31h8.94v1.31a1.447 1.447 0 00.381 1.11 1.45 1.45 0 001.074.47 1.458 1.458 0 001.455-1.58v-2.74a1.318 1.318 0 00-.907-1.394 1.308 1.308 0 00-.593-.046zm-3.72 0h-4.81c.319-.664.564-1.362.73-2.08.202-.987.303-1.992.3-3v-1.43h3.76v6.52l.02-.01z" fill="#000" stroke="#fff" stroke-width=".33" stroke-miterlimit="10"/><path d="M125.76 58.04c11.56 0 20.44 8 20.44 19.76 0 11.76-8.88 19.9-20.44 19.9h-13a4.551 4.551 0 01-4.79-4.74v-30a4.733 4.733 0 011.344-3.504 4.73 4.73 0 013.476-1.416h12.97z" fill="#999"/><path d="M117.02 78.8c0-3.65-1.17-7-.78-9.06l-.09-.12c-1.34 1.39-2.2 1-2.3.58-.19-.9 1.37-2 2.26-2.38a1.3 1.3 0 01.07-.18c-.84.13-1.81 0-1.85-.57-.04-.57 1.38-1.34 3.23-1.18l.11-.09-.4-.19c-.47-.24-.59-.65-.43-.95a1.246 1.246 0 011.08-.45 4.6 4.6 0 011.65.35l.14-.06a1.354 1.354 0 01-.37-.39.482.482 0 01.08-.64 1.24 1.24 0 011.51.26c.12.12.23.22.32.33h.2a1.356 1.356 0 01-.2-.45.419.419 0 01.27-.5.698.698 0 01.75.3c.16.261.282.544.36.84a5 5 0 00-4.71 5.11c0 4.1 3.41 8.41 3.41 14.76a11.272 11.272 0 01-2.61 7.33 19.421 19.421 0 01-8.19 5.74c.717.345 1.504.52 2.3.51h1.44a17.182 17.182 0 006.1-5.09 15.459 15.459 0 006.24 1.43 9.089 9.089 0 008.31-4.65 6.165 6.165 0 002.81-4.48 4.708 4.708 0 00.91-4c-.08-.26-.29-.27-.66-.05a18.32 18.32 0 01-9.41 2.88 20.523 20.523 0 01-5.65-.89 48.175 48.175 0 00-.74-5c-.23-1.43.1-2.49 1.67-2.49 1.72.032 3.417.396 5 1.07 1.69.77 2.69 2.28 3.39 2.28.29 0 .59-.18.59-.78a8.337 8.337 0 00-1-3.89 23.767 23.767 0 013.54 0 2.09 2.09 0 011.83 1.48 1.5 1.5 0 001.37.69c1.09 0 1.77-.57 1.77-2.6 0-4.47-2.82-6.64-5.78-6.64-2.43 0-3.37.53-5.68.53-1.63 0-3-3.33-4.85-3.76a2.418 2.418 0 00-3.8-1.12c-1-.63-2.64-.29-2.71.87-1.19-.37-2.72.27-2.06 1.83-2.9.08-3.44 2.65-1.47 2.93-2.53 1.44-1.38 3.91.75 3.39.15 1.75.86 4.59.86 6.55 0 2.73-1.23 3.36-2.93 3.36a19.767 19.767 0 01-4.62-.86v1.9c1.591.428 3.224.68 4.87.75 2.63.01 4.1-1.56 4.1-4.54zm5.9 6.18c2.1.548 4.273.761 6.44.63 2.842-.2 5.59-1.1 8-2.62-.94 2.36-4.44 3.82-7.84 4.24a4.022 4.022 0 01-.08.5 13.412 13.412 0 006.05-1.69c-.63 2.32-3.75 3.25-6.57 3.38a5.242 5.242 0 01-.26.52 13.84 13.84 0 004.17-.57c-.85 1.61-3.76 2.89-6.74 2.89a11.581 11.581 0 01-4.86-1 14.152 14.152 0 001.69-6.28zm7.36-13.08a7.228 7.228 0 011.4-2.78c.68-.72 1.44-.95 3.11-.95 2.31 0 4.24 2.33 4.24 5.59 0 .48-.65.48-.86 0-.79-1.39-1.85-1.59-3.52-1.71-1.24-.07-2.73 0-4.09.09-.27.05-.34-.1-.3-.24h.02z" fill="#000"/><path d="M108 88.38c1.4-.28 2.77-.53 2.77-.53l.17-.75H108v1.28z" fill="#000"/><path d="M123.03 65.94c.49-.17 1.18.31 1.56 1.07.38.76.28 1.5-.21 1.66-.49.16-1.17-.31-1.55-1.07 0-.1-.09-.2-.13-.3h.09a.385.385 0 00.47.11c.17-.11.15-.41 0-.67-.15-.26-.34-.43-.54-.41v-.05a.575.575 0 01.34-.31m3.41 7.57c-2.18-.47-4.57-1.11-5.84-3a.112.112 0 00-.11 0 .095.095 0 00-.049.034.096.096 0 00-.021.056c-.01.11-.01.22 0 .33l-.17.06a1.208 1.208 0 01-.07-1.46 1.608 1.608 0 012-.16l-.07.16a1.24 1.24 0 00-.84.09c-.2.12-.22.29-.1.52 1 2 4.13 2.39 7.78 2.11.38 0 .46-.2.51-.39a6.996 6.996 0 011.75-3.25c-.67.1-1.28.12-1.83.15-1.88.12-3-.13-3.3-.4l.06-.17c.2.07.41.09.46 0 .05-.09 0-.13-.08-.21-.36-.34-2-2-2-2-.17-1.39-2.2-1.44-3-.07l-.28-.07c.066-.259.175-.505.32-.73a3.843 3.843 0 00-2.84 3.38c-.75 6.32 8.83 4.86 11.57 7.39.06 0 .19.23.28.11.11-.35-1.1-1.82-4.21-2.51m10.94 9.47a17.103 17.103 0 01-8 2.63 20.849 20.849 0 01-6.41-.63 15.643 15.643 0 01-.2 1.87 25.87 25.87 0 005.5.69 8.781 8.781 0 01-2.68 4.67c3.38.14 6.38-1.17 7.29-2.87-1.354.397-2.76.589-4.17.57.09-.16.17-.34.25-.52 2.83-.13 5.95-1.07 6.57-3.39a13.082 13.082 0 01-6.06 1.72c0-.16.06-.33.08-.5 3.42-.41 6.9-1.88 7.83-4.24z" fill="#fff"/></g><defs><clipPath id="clip0_3613_3799"><path fill="#fff" transform="translate(108 58)" d="M0 0h117.91v39.7H0z"/></clipPath></defs></svg>