<svg width="248" height="116" fill="none" xmlns="http://www.w3.org/2000/svg"><g clip-path="url(#clip0_3426_3669)" fill="#191919"><path d="M105.579 47.1c1.475-.553 2.964-.815 4.641-.815a13.48 13.48 0 0110.429 4.92c.326.4.543.908.543 1.446 0 .753-.326 1.384-.9 1.799l-.031.046a2.384 2.384 0 01-1.381.446c-.73 0-1.381-.338-1.8-.846a8.817 8.817 0 00-1.708-1.599 8.94 8.94 0 00-5.137-1.63c-1.102 0-2.08.185-3.042.554a8.869 8.869 0 00-4.47 3.583c-.822 1.337-1.319 2.906-1.319 4.566 0 1.23.28 2.399.73 3.46a8.808 8.808 0 002.809 3.552 8.859 8.859 0 005.261 1.722c2.747 0 5.246-1.292 6.86-3.26a2.272 2.272 0 011.8-.876c1.273 0 2.313 1.03 2.313 2.29 0 .539-.186 1.046-.512 1.446-2.468 3.03-6.224 4.982-10.461 4.982-7.403 0-13.425-5.95-13.425-13.316 0-2.583.76-5.012 2.049-7.073 1.567-2.43 3.989-4.351 6.751-5.397zm27.781 0c1.475-.553 2.965-.815 4.641-.815 4.206 0 7.962 1.922 10.429 4.92.326.4.528.908.528 1.446 0 .753-.341 1.384-.9 1.799l-.031.046a2.33 2.33 0 01-3.182-.415 8.481 8.481 0 00-1.722-1.6 8.799 8.799 0 00-5.138-1.63 8.283 8.283 0 00-3.042.555c-1.815.691-3.414 1.968-4.438 3.598a8.651 8.651 0 00-1.319 4.582 8.59 8.59 0 00.744 3.444 8.686 8.686 0 002.81 3.552 8.754 8.754 0 005.245 1.737 8.89 8.89 0 006.86-3.26 2.319 2.319 0 011.801-.876 2.297 2.297 0 012.312 2.291 2.3 2.3 0 01-.512 1.43 13.406 13.406 0 01-10.461 4.982c-7.403 0-13.424-5.95-13.424-13.3 0-2.614.76-5.028 2.064-7.073 1.552-2.445 3.973-4.383 6.735-5.413zm22.023 20.804a13.44 13.44 0 0010.461 4.967c7.418 0 13.424-5.95 13.424-13.316 0-2.583-.745-5.013-2.048-7.058-.419-.645-1.149-1.091-1.971-1.091-1.273 0-2.313 1.03-2.313 2.29 0 .447.171.939.388 1.292a8.585 8.585 0 011.319 4.567c0 1.23-.263 2.399-.729 3.46a8.808 8.808 0 01-2.809 3.552 8.894 8.894 0 01-5.261 1.722 8.89 8.89 0 01-6.86-3.26 8.468 8.468 0 01-1.956-5.474 8.686 8.686 0 013.678-7.088 8.908 8.908 0 015.138-1.63c1.086 0 2.079.184 3.041.553.249.093.513.139.792.139 1.273 0 2.313-1.03 2.313-2.291 0-.984-.637-1.83-1.521-2.153-1.475-.554-2.965-.815-4.641-.815a13.512 13.512 0 00-10.445 4.92 13.177 13.177 0 00-2.995 8.38 13.195 13.195 0 002.995 8.334zM77.83 47.1a2.29 2.29 0 00-1.506 2.153c0 1.26 1.04 2.29 2.312 2.29.28 0 .544-.045.792-.137a8.697 8.697 0 013.057-.554c1.91 0 3.71.646 5.153 1.676L74.415 63.03a8.644 8.644 0 01.59-8.011c.232-.354.403-.846.403-1.292a2.298 2.298 0 00-2.312-2.29c-.823 0-1.552.445-1.956 1.076a12.903 12.903 0 00-2.095 7.088c0 7.335 6.006 13.285 13.425 13.285 4.237 0 8.008-1.937 10.46-4.982a2.21 2.21 0 00.512-1.43c0-1.26-1.04-2.29-2.312-2.29-.73 0-1.381.338-1.8.86-1.614 1.968-4.098 3.26-6.845 3.26a8.907 8.907 0 01-5.261-1.737L92.511 54.45c.575-.43.916-1.046.916-1.8a2.28 2.28 0 00-.543-1.444 13.456 13.456 0 00-10.43-4.92c-1.645 0-3.15.276-4.625.814zm96.875-1.107c0-1.26 1.04-2.291 2.328-2.291 1.273 0 2.313 1.03 2.313 2.291 0 1.26-1.04 2.291-2.313 2.291-1.288 0-2.328-1.03-2.328-2.29zm-.559 0c0 1.568 1.289 2.845 2.872 2.845s2.871-1.277 2.871-2.845c0-1.568-1.288-2.845-2.871-2.845s-2.872 1.277-2.872 2.845z"/><path d="M176.102 44.579h.606c.621 0 1.334-.016 1.334.768a.653.653 0 01-.589.662v.015c.17.015.248.17.31.292l.45 1.092h-.636l-.342-.877c-.077-.215-.155-.292-.388-.292h-.186v1.169h-.574v-2.83h.015zm.575 1.214h.186c.279 0 .605-.046.605-.4 0-.338-.31-.368-.605-.368h-.186v.768z"/></g><defs><clipPath id="clip0_3426_3669"><path fill="#fff" transform="translate(69 43)" d="M0 0h111v30H0z"/></clipPath></defs></svg>