<svg width="335" height="157" fill="none" xmlns="http://www.w3.org/2000/svg"><path fill="#fff" d="M.521 0h333.587v156.033H.521z"/><path d="M203.762 83.048a6.472 6.472 0 01-4.843 2.18c-3.62 0-6.553-2.976-6.553-6.65 0-3.674 2.933-6.65 6.553-6.65 1.418 0 2.722.46 3.793 1.23l3.572-5.102a12.543 12.543 0 00-7.365-2.394c-7.024 0-12.722 5.782-12.722 12.91 0 7.134 5.693 12.911 12.722 12.911 3.252 0 6.207-1.246 8.458-3.284l-3.615-5.151zm-28.939-16.617l-3.56 5.086c3.528.362 6.282 3.388 6.282 7.062 0 3.92-3.133 7.1-6.997 7.1V60.056h-5.925v5.607c-7.024 0-12.722 5.782-12.722 12.91s5.698 12.911 12.722 12.911V97.3h5.925v-5.81c7.024 0 12.722-5.783 12.722-12.911.006-5.607-3.523-10.368-8.447-12.148zM157.626 78.58c0-3.921 3.134-7.1 6.997-7.1v14.2c-3.863 0-6.997-3.18-6.997-7.1zm59.869 12.394h-6.472V66.18h6.472v24.794zm.823-12.394l8.755-12.395h6.737l-8.831 12.219 9.296 12.576h-6.829l-9.128-12.4zm-100.627-9.287h25.503c-2.537-5.789-7.37-10.303-13.327-12.357l-12.176 12.357z" fill="#191919"/><path d="M144.445 72.934h-31.082a1.79 1.79 0 01-1.656-1.126 1.84 1.84 0 01.389-1.983l13.669-13.877a22.843 22.843 0 00-3.144-.225c-12.44 0-22.521 10.231-22.521 22.856 0 1.692.184 3.334.53 4.92h31.417c.726 0 1.38.445 1.656 1.126a1.84 1.84 0 01-.389 1.983l-14.313 14.525c1.18.192 2.386.297 3.62.297 12.435 0 22.522-10.231 22.522-22.856a23.377 23.377 0 00-.698-5.64z" fill="#191919"/><path d="M127.718 87.14h-25.98c2.392 5.997 7.213 10.731 13.231 12.939l12.749-12.938z" fill="#191919"/></svg>