<svg width="334" height="157" fill="none" xmlns="http://www.w3.org/2000/svg"><path fill="#fff" d="M0 0h333.59v156.03H0z"/><path d="M200.92 74.989l-.317-.088v.419c0 .804-.242 1.688-.758 2.364-.509.667-1.293 1.143-2.414 1.143-1.297 0-2.26-.579-2.922-1.608-.64-.993-1.002-2.416-1.073-4.155h11.089v-.32c.325-2.133.14-4.6-.92-6.547-1.074-1.971-3.031-3.385-6.174-3.385-2.516 0-4.555.922-5.961 2.618-1.4 1.69-2.15 4.125-2.15 7.116 0 2.945.726 5.335 2.104 6.992 1.383 1.664 3.4 2.562 5.915 2.562 4.01 0 6.613-2.688 6.999-5.765l.002-.016v-.384l-.183-.051-3.237-.895zm-.128-4.572h-7.244c.162-1.32.576-2.4 1.198-3.159.659-.804 1.56-1.262 2.685-1.262.961 0 1.809.315 2.41 1.03.578.686.956 1.773.951 3.391zm-23.007-7.151l-.048-.188h-4.218l.083.314 4.809 18.161.049.187h6.025l.05-.184 4.994-18.162.087-.316h-4.225l-.045.192-3.643 15.33-3.918-15.334zm-5.381-.012v-.25h-4.107v18.661h4.107V63.254zm-6.539-5.121v-.25h-4.107v23.76h4.107v-23.51zm-6.665 0v-.25h-4.106v23.76h4.106v-23.51zm-10.045 4.945h-.25V73.17c0 1.762-.342 3.234-.948 4.257-.601 1.015-1.452 1.577-2.501 1.577-.908 0-1.59-.31-2.055-.929-.474-.632-.747-1.62-.747-3.026v-11.97h-4.107v12.686c0 2.012.544 3.598 1.521 4.685.979 1.09 2.369 1.649 4 1.649 1.405 0 2.576-.494 3.49-1.355.869-.818 1.495-1.96 1.88-3.298h.037l.263 4.06.015.235h3.351V63.078h-3.949zm65.934-.094c-2.022 0-4.198 1.285-5.004 4.384h-.028l-.175-4.055-.01-.24h-3.356v18.662h4.106v-8.48c0-2.404.348-3.905.962-4.802.598-.873 1.477-1.211 2.673-1.211.333 0 .768.081 1.31.256l.264.085.058-.27.832-3.937.055-.263-.265-.037a9.077 9.077 0 00-1.422-.092zM138.298 97.74h.001l.092-.179a.822.822 0 01.22-.284.588.588 0 01.372-.12c.584 0 .973-.175 1.289-.548.333-.393.599-1.02.876-1.956v-.002h0l1.849-6.081c.068-.24.101-.411.104-.534.004-.12-.022-.161-.038-.18-.022-.024-.077-.062-.224-.09a3.51 3.51 0 00-.619-.04c-.115 0-.286-.024-.394-.163-.118-.151-.081-.328-.022-.451l.087-.253.006-.017.008-.016a.833.833 0 01.22-.285.587.587 0 01.372-.12h2.775c.16 0 .334.025.474.16.125.121.184.296.23.476l.003.011.002.012 1.292 8.08 5.837-8.09c.148-.238.296-.397.489-.482.176-.077.362-.077.528-.077h2.982c.115 0 .287.025.395.164.123.16.077.345.013.47l-.093.178h0l-.028.057-.002.005a1.276 1.276 0 01-.028.056.54.54 0 01-.106.149c-.118.114-.271.137-.428.137-.609 0-.906.05-1.078.161-.151.098-.251.274-.342.713l-.001.008-.002.007-2.126 7.779c-.044.191-.06.328-.053.428.007.094.033.14.065.17.039.038.116.082.277.116.159.032.377.049.671.049.139 0 .325.016.44.163.056.072.073.15.081.206.006.05.006.103.006.142v.067l-.028.055-.092.178-16.352-.229zm0 0c-.063.124-.11.31.014.47.107.139.279.163.394.163h3.993c.076 0 .21.002.329-.067.133-.077.204-.21.254-.352l.085-.163.028-.054v-.068c0-.039 0-.093-.007-.142a.418.418 0 00-.08-.206c-.115-.147-.302-.163-.441-.163-.307 0-.498-.044-.614-.11-.101-.057-.164-.14-.192-.29-.031-.165-.019-.4.05-.734.068-.33.185-.733.346-1.222h.001l.002-.007 1.649-5.548m-5.811 8.493l5.811-8.493m0 0l1.653 8.634a.508.508 0 00.145.355c.11.106.253.137.382.137a.467.467 0 00.359-.137c.029-.028.057-.061.079-.087a1.406 1.406 0 01.106-.114l.016-.016.013-.018 6.203-8.607-1.928 6.865c-.131.378-.269.583-.454.705-.192.127-.478.194-.972.194a.782.782 0 00-.436.107.733.733 0 00-.248.296l-.093.179-.028.054v.068c0 .039 0 .093.006.142a.431.431 0 00.081.206c.115.148.302.163.441.163h4.531c.163 0 .31-.025.436-.107a.736.736 0 00.249-.296l-10.541-8.723z" fill="#191919" stroke="#fff" stroke-width=".5"/><path d="M162.424 89.957c-.325-.345-.792-.59-1.438-.59-.691 0-1.399.284-2.06.732-.664.45-1.298 1.077-1.849 1.792-1.095 1.425-1.889 3.244-1.889 4.794 0 .567.121 1.036.391 1.366.278.34.68.494 1.153.494.68 0 1.313-.304 1.927-.805a9.3 9.3 0 001.18-1.193 9.127 9.127 0 00-.064.215c-.094.33-.148.603-.148.817 0 .277.087.532.292.713.2.177.476.253.79.253.586 0 1.195-.28 1.761-.724.57-.445 1.119-1.072 1.593-1.806l.007-.01.006-.01.002-.006c.021-.04.042-.08.057-.114a.417.417 0 00.038-.163.323.323 0 00-.068-.196c-.024-.032-.055-.062-.073-.08l-.005-.004-.029-.028-.036-.018-.185-.09-.052-.024h-.065c-.097 0-.277 0-.443.16l-.018.017-.014.02c-.274.399-.541.74-.789.98-.258.25-.45.344-.577.344a.24.24 0 01-.012 0l.001-.035c.004-.054.02-.138.062-.26h0l.003-.007c.473-1.528 1.287-3.582 1.977-5.326.114-.286.224-.564.328-.83h.001l.003-.01a1.3 1.3 0 00.06-.226.585.585 0 00-.01-.25.4.4 0 00-.19-.24.574.574 0 00-.281-.063h-.654c-.064 0-.131 0-.191.005a.594.594 0 00-.212.054c-.154.074-.229.212-.28.352zm-1.468 3.38l-.005.009-.005.01c-.312.647-.899 1.522-1.544 2.233a5.939 5.939 0 01-.962.878c-.316.221-.582.326-.783.326a.342.342 0 01-.197-.05.318.318 0 01-.11-.134c-.067-.137-.09-.335-.09-.55 0-.962.528-2.368 1.257-3.548.362-.586.765-1.1 1.159-1.465.404-.373.76-.553 1.033-.553.262 0 .443.089.562.227.123.143.205.37.205.687a4.05 4.05 0 01-.52 1.93zm8.202-2.508a1.849 1.849 0 00-.026-.596 1.034 1.034 0 00-.311-.557.91.91 0 00-.615-.22c-.539 0-1.123.258-1.689.69-.565.43-1.133 1.049-1.65 1.818a.426.426 0 00-.125.292c0 .138.072.243.146.314l.029.028.036.017.185.09.051.025h.065c.098 0 .278 0 .444-.16l.013-.012.01-.014a8.33 8.33 0 01.863-.954c.14-.13.265-.232.366-.3a.824.824 0 01.122-.07c.003 0 .005-.002.007-.003.005.057-.006.191-.119.446l-.006.013-.004.013c-.645 2.05-1.382 4.013-2.123 5.982h0l-.002.006c-.051.148-.085.335.013.493.105.17.292.196.409.196h.739c.161 0 .323-.024.458-.133.128-.104.193-.252.241-.393l-.236-.081.236.081.37-1.073s0 0 0 0c.12-.35.237-.612.358-.884.061-.139.124-.28.189-.437.412-.842 1.006-1.924 1.597-2.792.297-.436.587-.81.849-1.072a1.98 1.98 0 01.35-.291.532.532 0 01.183-.08.663.663 0 01.085.131h0c.12.233.377.493.777.493.752 0 1.175-.716 1.175-1.413 0-.61-.508-1.055-1.175-1.055-.759 0-1.424.496-2.012 1.145a8.563 8.563 0 00-.273.317z" fill="#191919" stroke="#fff" stroke-width=".5"/><path d="M175.567 97.165h0l.005.01c.231.402.459.754.755.988.309.245.673.348 1.14.3 1.048-.006 1.76-.72 2.151-1.477h0a.577.577 0 00.064-.193.339.339 0 00-.058-.231c-.035-.052-.082-.087-.101-.102l-.002-.002-.008-.006a.242.242 0 01-.036-.029h0l-.093-.09-.072-.07h-.107c-.041 0-.082 0-.115.002a.494.494 0 00-.129.022c-.093.03-.156.092-.192.127l-.009.009h-.001a9.005 9.005 0 00-.252.254 3.34 3.34 0 01-.19.185c-.099.088-.155.112-.2.116a.925.925 0 01-.17-.166 5.653 5.653 0 01-.463-.694l-.005-.008-.005-.007c-.234-.34-.503-.82-.766-1.293l-.277-.493c.812-.322 1.626-.788 2.263-1.352.706-.625 1.229-1.403 1.229-2.267 0-.426-.167-.809-.478-1.082-.309-.272-.742-.42-1.252-.42-.995 0-1.96.552-2.777 1.33l1.604-4.161a.39.39 0 00.031-.034.305.305 0 00.074-.196.306.306 0 00-.074-.195.86.86 0 00-.067-.07l-.004-.004v0h0l-.093-.09h0l-.003-.002-.061-.058a.459.459 0 00-.093-.063.426.426 0 00-.193-.036h-2.321a.473.473 0 00-.416.207l-.004.005a.267.267 0 01-.031.038l-.043.041-.019.056-.088.254a.406.406 0 00.081.477c.097.094.23.138.336.138.205 0 .372.005.504.022a.638.638 0 01.242.063c.018.011.018.013.019.024v.003c.003.034-.006.11-.069.252l-.004.008-.002.008-3.792 10.468h0l-.002.004a1.513 1.513 0 00-.058.204.442.442 0 00.017.252.36.36 0 00.225.202.76.76 0 00.238.03h.839c.064 0 .131 0 .191-.004a.592.592 0 00.211-.054c.163-.079.238-.228.289-.377l.001-.002 1.05-2.962h.101c.14 0 .229.033.299.08a.96.96 0 01.222.24c.143.32.329.657.51.974l.135.236c.138.24.266.462.369.661zm-.143-3.57h0l-.003.001a5.755 5.755 0 01-1.113.309 6.848 6.848 0 011.35-2.118c.306-.323.62-.58.918-.756.301-.177.568-.262.785-.262.158 0 .245.057.299.127a.558.558 0 01.098.339c0 .391-.265.867-.723 1.32a4.746 4.746 0 01-1.611 1.04zm9.333 2.025l.01-.009c.165-.16.346-.16.444-.16h.109l.072.07.092.09h.001l-.728.01zm0 0l-.009.011c-.723.875-1.399 1.251-1.934 1.251-.33 0-.527-.134-.655-.34-.138-.223-.205-.55-.205-.93 0-.302 0-.519.05-.773 1.702-.364 2.983-.92 3.851-1.578.894-.678 1.37-1.482 1.37-2.302 0-.463-.161-.87-.489-1.16-.324-.286-.782-.432-1.333-.432-.642 0-1.312.253-1.947.657-.638.405-1.255.972-1.795 1.626-1.073 1.301-1.872 2.988-1.872 4.498 0 .576.148 1.174.518 1.633.376.468.96.764 1.767.764.717 0 1.393-.297 1.976-.731.576-.43 1.076-1.005 1.458-1.6l-.751-.593zm.488-4.572c0 .843-.84 2.013-2.788 2.593a7.195 7.195 0 011.106-1.977 3.94 3.94 0 01.761-.742c.249-.175.458-.25.617-.25.182 0 .23.05.248.076.032.044.056.131.056.3zm3.874-.181l-1.911 5.208v.001c-.193.514-.3 1.098-.221 1.572.041.239.132.47.304.642.178.178.418.27.706.27.6 0 1.282-.384 1.859-.862.586-.486 1.119-1.115 1.415-1.688h0l.003-.006c.021-.04.041-.08.056-.114a.398.398 0 00.038-.163.323.323 0 00-.067-.196c-.024-.032-.056-.062-.074-.08a.02.02 0 01-.004-.004l-.029-.028-.036-.017-.185-.09-.051-.025h-.066c-.097 0-.278 0-.444.16l-.014.015-.013.016a5.628 5.628 0 01-.816.865 3.346 3.346 0 01-.389.291.957.957 0 01-.133.072h-.003a.646.646 0 01.025-.2l2.062-5.64h1.497c.04 0 .086 0 .127-.003a.39.39 0 00.175-.059.426.426 0 00.124-.13 1.94 1.94 0 00.063-.115l.004-.006h0l.185-.358h0c.064-.124.11-.31-.013-.47-.108-.139-.28-.163-.395-.163h-1.308l.526-1.455h0l.001-.003c.052-.148.086-.335-.012-.493-.105-.17-.292-.197-.409-.197a.843.843 0 00-.268.058c-.084.03-.177.069-.269.107l-.012.005a3.72 3.72 0 01-.527.195l-.026.007-.024.011a.882.882 0 00-.3.218 1.109 1.109 0 00-.197.373l-.405 1.174h-.754c-.039 0-.085 0-.126.004a.385.385 0 00-.175.058.41.41 0 00-.123.13 1.484 1.484 0 00-.064.115l-.004.006h0l-.185.358a.905.905 0 00-.067.16.395.395 0 00-.01.219.32.32 0 00.183.215c.072.033.148.04.209.04h.567zM172.435 60.2v-.25h-4.107v1.573h4.107v-1.324zm-44.924 8.958h-.25v3.184h5.659c.123 2.024-.435 3.576-1.354 4.629-.955 1.094-2.318 1.67-3.777 1.67-1.949 0-3.492-.873-4.558-2.398-1.072-1.533-1.666-3.737-1.666-6.388 0-2.51.638-4.67 1.723-6.208 1.083-1.533 2.609-2.446 4.414-2.488h.002c1.388-.044 2.587.325 3.415 1.116.825.788 1.319 2.03 1.229 3.81l-.016.33.322-.074 3.884-.894.207-.048-.013-.212c-.143-2.253-1.072-4.174-2.629-5.53-1.555-1.354-3.721-2.13-6.314-2.13-3.17 0-5.807 1.261-7.648 3.444-1.837 2.18-2.868 5.26-2.868 8.884 0 3.664.959 6.745 2.727 8.914 1.773 2.176 4.342 3.414 7.511 3.414 3.016 0 5.637-1.004 7.395-3.12 1.754-2.113 2.614-5.292 2.196-9.578v-.327h-9.591z" fill="#191919" stroke="#fff" stroke-width=".5"/></svg>