<svg width="334" height="157" fill="none" xmlns="http://www.w3.org/2000/svg"><path fill="#fff" d="M0 0h333.587v156.033H0z"/><path d="M239.068 72.72h-6.832c-1.138.064-1.463.36-1.463 1.773v3.876h8.296l-.001-5.65zm3.644-3.122V86.45h-3.645v-4.862h-8.296v4.86h-3.644V73.245c0-2.332.943-3.646 3.644-3.646h11.941zm-19.195 3.646v9.132c0 2.892-1.627 4.108-3.644 4.108H208.42V69.632h11.453c3.123-.034 3.644 1.97 3.644 3.612zm-3.644 1.019c0-.92-.552-1.576-1.529-1.576h-6.247v10.545h6.247c1.431-.066 1.529-.92 1.529-1.611v-7.358zm-85.436-4.665h3.645v6.636h8.134v-6.636h3.643V86.45h-3.676v-6.864h-8.134v6.864h-3.645V69.598h.033zm21.603 0l4.555 6.898 4.489-6.898h4.425l-7.093 10.774v6.078h-3.644v-6.078l-7.125-10.774h4.393zm33.836 0h11.712c1.659 0 3.286.23 3.221 3.646V86.45h-3.643V74.427c0-1.444-.163-1.774-1.301-1.774h-6.377v13.764h-3.644V69.598h.032zm60.092 16.852h-3.644V69.598h3.644V86.45zm-78.636.034h11.712c2.31 0 3.286-.692 3.221-4.075V69.6h-3.644v12.055c0 1.445-.162 1.61-1.301 1.61h-6.376V69.599h-3.645v16.886h.033zm-51.218-16.051c-1.035-.569-2.136-1.038-3.237-1.475-5.015-1.743-10.872-2.38-16.439-1.676-5.145.705-10.13 1.98-14.044 5.667-1.877 1.811-2.978 4.527-2.071 7.109 1.197 3.186 4.369 5.3 7.216 6.505 8.414 3.523 19.837 3.389 27.96-.636 2.783-1.443 5.889-3.89 6.278-7.344.324-3.755-2.848-6.54-5.663-8.15zm-18.769 1.509c.712-1.408 1.942-3.084 3.689-3.117 3.657-.035 7.184.537 10.517 1.508.194.1.453.168.55.368.097.234-.098.37-.227.537-2.75 2.213-5.89 3.454-9.093 4.561-1.618.401-3.268 1.141-5.081.738-.42-.1-.809-.402-1.035-.838-.453-1.308.162-2.649.68-3.757zM90.181 83.513c-.421.402-.843-.135-1.23-.303-1.942-1.308-3.69-3.454-3.172-5.97.81-3.287 4.078-5.064 6.829-6.272 1.617-.636 3.3-1.139 5.08-1.442.194 0 .454-.034.518.168l-.064.201c-3.495 4.127-5.794 8.889-7.961 13.618zm17.829 1.576c-.808 1.276-2.102 2.382-3.689 2.214-3.527-.067-7.02-.604-10.225-1.61a.502.502 0 01-.356-.267c-.065-.203.032-.37.162-.505 2.945-2.448 6.407-3.587 9.87-4.795 1.294-.37 2.653-.804 4.109-.604.583.067 1.198.503 1.393 1.072.323 1.71-.551 3.12-1.264 4.495zm15.987-6.138c-.808 3.421-4.4 5.234-7.248 6.372-1.554.537-3.107 1.074-4.822 1.24-.097 0-.291 0-.291-.166l.032-.2c2.427-2.82 4.239-5.972 5.857-9.19a77.525 77.525 0 002.072-4.393.756.756 0 01.29-.201c.583.1 1.004.569 1.489.905 1.65 1.408 3.139 3.32 2.621 5.633z" fill="#191919"/></svg>