<svg width="248" height="116" fill="none" xmlns="http://www.w3.org/2000/svg"><path d="M62.65 64.296v2.328h3.82V51.2h-4.127v7.033c0 1.712-.105 2.882-.316 3.517a2.901 2.901 0 01-1.165 1.528 3.337 3.337 0 01-1.923.576c-.559 0-1.035-.133-1.432-.402-.397-.268-.681-.646-.859-1.133-.176-.483-.264-1.555-.264-3.21V51.2H52.26v9.6c0 1.18.076 2.086.226 2.722.153.631.423 1.199.809 1.7.386.498.955.906 1.711 1.23.753.321 1.587.48 2.501.48 2.066 0 3.779-.877 5.143-2.636zM68.303 51.2h4.062v5.716h5.82V51.2h4.059v15.424h-4.058v-6.43h-5.822v6.43h-4.06V51.2zm23.672 0H83.72v4.824l4.125-1.588v12.21h4.13v-12.21l4.13 1.588V51.2h-4.13zm10.149 3.724c.759-.703 1.664-1.045 2.764-1.045 1.106 0 1.983.389 2.679 1.187.432.503.66 1.08.8 1.691h-7.394c.241-.723.615-1.335 1.151-1.832zm6.804 6.65s-.716 1.58-2.122 2.28c-.524.26-1.181.392-1.946.392-1.363 0-2.407-.508-3.187-1.554a5.29 5.29 0 01-1.03-2.546h11.641s.491-4.188-1.614-6.87c-1.42-1.81-3.325-2.784-5.813-2.784-2.547 0-4.597.886-6.097 2.633-1.375 1.595-2.076 3.593-2.076 5.936 0 2.28.701 4.254 2.076 5.872 1.519 1.79 3.573 2.7 6.097 2.7 1.775 0 3.338-.488 4.643-1.442 2.386-1.749 3.315-4.617 3.315-4.617h-3.887zm14.707.968c-.624.763-1.408 1.144-2.345 1.144-.98 0-1.81-.416-2.492-1.245-.681-.831-1.022-2.115-1.022-3.853 0-1.513.325-2.658.979-3.43.653-.773 1.471-1.155 2.463-1.155.948 0 1.744.39 2.385 1.178.644.786.967 1.99.967 3.611 0 1.738-.313 2.986-.935 3.75zm3.214-9.642c-1.241-1.4-2.75-2.104-4.527-2.104a5.385 5.385 0 00-2.79.743c-.835.496-1.5 1.128-1.988 1.896v-2.247h-3.789v21.165h4.061v-7.7c.76.817 1.481 1.392 2.169 1.728.687.337 1.459.506 2.305.506 1.778 0 3.292-.713 4.545-2.138 1.248-1.427 1.873-3.424 1.873-5.994 0-2.502-.619-4.455-1.859-5.855zm27.134 8.125c-.097-2.95 4.578-4.455 7.809-2.793v5.53c-3.568 1.487-7.623.17-7.809-2.737zm7.809 5.6h4.56v-7.578c0-2.498.158-4.135-.883-5.749-1.044-1.616-3.116-2.253-4.578-2.253h-8.353c-.783.031-.597-.909-.535-1.098 1.98-7.468 3.577-9.665 6.276-9.445 1.162.157 1.881.188 2.417.848.44.533.598.597 1.443-.691.53-.877.941-1.569 1.255-2.101.283-.502 1.007-1.16-.063-1.287-12.835-.283-13.019 4.801-17.412 13.147-.471.784-.977.753-2.449.753h-4.3c-5.805 0-8.817 4.55-9.16 7.093-.283 1.535-.441 2.853.312 4.486.595 1.223 2.039 2.887 4.174 3.828.567.219.911-.188.941-.22.63-.567 2.574-2.29 3.14-2.73.343-.315-.066-.502-.316-.532-3.608-.44-4.927-1.413-5.553-3.8-.189-1.786.658-5.771 7.122-5.835 2.606.064 4.706-.25 3.734 2.07-3.514 8.725-4.331 10.326-8.002 17.384-2.228 3.264-4.986 3.736-9.509 2.321-1.173-.367-1.539.446-1.701.795-.24.516-.662 1.463-.82 1.798-.252.512-.049.69.316.687 6.308-.065 12.56-1.27 17.361-6.73 4.488-5.743 5.524-10.355 8.473-16.191.471-1.035 1.165-1.977 2.362-1.977h7.081c2.268 0 2.667.942 2.667 2.165-1.632-.501-3.011-.723-4.953-.501-4.176.44-6.813 2.132-6.998 5.899.029 2.825 2.759 5.742 7.558 5.647 1.992.094 3.334-.186 4.393-1.288v1.084zm10.886 0v-6.64c.589 0 1.036.13 1.336.383.297.256.655.828 1.062 1.723l1.801 4.533h4.313l-2.015-4.338a9.454 9.454 0 01-.158-.302c-.879-1.868-1.955-2.976-3.228-3.332.884-.326 1.555-1.197 2.026-2.606.344-1.047.666-1.676.96-1.889.298-.2.979-.303 2.042-.303l-.014-2.7a31.018 31.018 0 00-1.594-.072c-.998 0-1.8.213-2.412.636-.611.425-1.175 1.39-1.692 2.903-.394 1.134-.728 1.869-1.005 2.207-.278.336-.753.543-1.422.62V51.2h-4.06v15.424h4.06zm22.868-10.828l-3.982.701c-.136-.79-.445-1.383-.923-1.782-.48-.4-1.102-.6-1.868-.6-1.015 0-1.827.35-2.432 1.05-.608.701-.91 1.873-.91 3.514 0 1.83.305 3.12.919 3.87.614.756 1.439 1.133 2.469 1.133.771 0 1.404-.224 1.896-.667.493-.446.84-1.212 1.041-2.3l3.985.663c-.413 1.855-1.207 3.254-2.38 4.203-1.17.948-2.744 1.419-4.714 1.419-2.241 0-4.025-.71-5.358-2.129-1.331-1.42-1.998-3.388-1.998-5.899 0-2.541.67-4.52 2.005-5.937 1.338-1.416 3.148-2.124 5.424-2.124 1.869 0 3.349.402 4.452 1.208 1.101.804 1.893 2.029 2.374 3.677z" fill="#191919"/></svg>