<svg width="334" height="157" fill="none" xmlns="http://www.w3.org/2000/svg"><path fill="#fff" d="M0 0h333.587v156.033H0z"/><g clip-path="url(#clip0_2403_3291)"><path fill-rule="evenodd" clip-rule="evenodd" d="M94.237 87.68h-3.233V57.028h3.19v14.375l.654-.583 12.013-13.589c.086-.107.216-.22.328-.221l3.242-.011-13.365 13.759 13.706 16.953c-1.117 0-2.14-.062-3.152.019-.862.068-1.359-.245-1.873-.924L94.791 72.564c-.14-.183-.306-.342-.54-.613l-.003 15.727h-.01zm37.2-11.263v11.187h-2.588V64.656h.458l6.253.01c1.794.038 3.533.362 4.957 1.597 1.186 1.03 1.618 2.39 1.528 3.92-.143 2.82-1.855 4.393-4.273 5.376-.643.258-1.32.43-2.034.645l8.139 11.435h-.802c-.746 0-1.493-.018-2.24.006-.324.01-.496-.114-.667-.38-2.297-3.56-4.674-7.065-7.248-10.434-.429-.56-.906-.381-1.471-.416l-.012.002zm.022-10.618v9.408c1.546.1 3.058.043 4.53-.408 1.941-.592 3.158-1.828 3.349-3.93.216-2.384-.604-4.316-3.249-4.756-1.501-.252-3.049-.22-4.629-.315h-.001zm32.471 21.84c-.954 0-1.871.015-2.782-.018-.124-.004-.291-.24-.35-.4l-2.843-8.046c-.156-.451-.347-.62-.844-.613l-6.251.007c-.379-.002-.561.107-.699.477l-2.912 8.017c-.172.482-.395.627-.863.587-.445-.04-.895-.008-1.421-.008l.154-.471 9.02-22.65c.095-.243.2-.38.496-.37.276.008.406.09.507.353l8.686 22.73c.041.11.067.23.115.406l-.013-.001zM150.841 77.15h6.363l-3.199-8.575-3.175 8.575h.011zm62.177 10.488c-.967 0-1.868.017-2.766-.02-.14-.006-.324-.236-.396-.405l-2.895-8.175c-.124-.355-.274-.48-.656-.476-2.145.024-4.29.023-6.434-.002-.392-.004-.532.144-.654.48l-2.993 8.191c-.108.323-.27.43-.597.414l-1.636-.006.863-2.2 8.291-20.816c.103-.258.165-.495.561-.486.377.009.424.239.518.48l8.797 23.022-.003-.001zm-9.948-19.067l-3.171 8.571h6.368l-3.197-8.57zM165.904 84.16l1.618 1.476c1.542 1.189 3.264 1.621 5.174 1.14 2.55-.646 3.553-3.002 3.311-5.13-.172-1.527-.971-2.65-2.286-3.338l-4.548-2.15-.795-.39c-1.517-.75-2.42-1.97-2.718-3.656-.353-1.986-.086-3.85 1.205-5.459 1.126-1.401 2.668-2.058 4.398-2.3 1.799-.251 3.52.088 5.191.756.297.107.428.276.412.62l-.009 2.276-1.337-1.226c-1.364-1.094-2.878-1.61-4.634-1.225-1.974.43-3.259 2.305-3.02 4.343.159 1.354.775 2.438 1.949 3.085 1.126.62 2.33 1.093 3.499 1.632l2.444 1.148c1.488.823 2.44 2.085 2.675 3.8.352 2.552-.248 4.83-2.129 6.659-1.187 1.152-2.653 1.715-4.267 1.902-1.981.228-3.9.015-5.716-.886-.3-.151-.439-.323-.425-.682l.008-2.394v-.001zm60.163-16.181c-.881-1.003-1.76-1.795-2.882-2.257-1.58-.645-3.128-.619-4.575.371-1.78 1.23-2.395 4.877.169 6.596.895.6 1.927.989 2.912 1.448l2.697 1.18c2.437 1.146 3.535 3.122 3.359 5.792-.175 2.67-1.324 4.775-3.721 6.06-1.663.893-3.468 1.024-5.306.858a9.324 9.324 0 01-3.079-.866c-.349-.164-.514-.355-.492-.77l.01-2.301 1.726 1.524c1.553 1.155 3.29 1.535 5.16 1.003 1.831-.521 2.884-1.811 3.156-3.681.273-1.884-.246-3.532-1.942-4.541-1.183-.706-2.473-1.23-3.716-1.828l-1.618-.745c-2.183-.975-3.137-2.73-3.186-5.07-.084-3.887 2.531-6.093 5.775-6.515 1.791-.232 3.486.112 5.148.752.318.125.41.296.4.627l-.011 2.341.016.022zm-102.772 6.704v1.465h-.568c-2.084 0-4.168.008-6.254-.009-.379-.002-.507.108-.507.497v8.85c-.002.393.114.506.5.502l7.658-.008v1.522h-10.77V64.685h10.57v1.527h-7.931l-.03.554-.011 7.393c-.002.409.101.538.518.532l6.813-.006.012-.002zm118.701 11.28v1.548h-10.769V64.696h10.587v1.529h-7.954v8.452h7.277v1.47h-7.291v9.815h8.15zm-55.639-19.83h-6.547v-1.459h15.43v1.44h-6.226V87.68h-2.654l-.002-21.547h-.001zM167.32 96.58l2.359 3.325c-.656.151-1.085.038-1.441-.582-.496-.863-1.126-1.647-1.717-2.453-.089-.12-.261-.18-.395-.266-.043.154-.121.306-.124.46l-.006 2.886h-.751v-6.913l2.643.136c.755.103 1.181.574 1.262 1.188.102.787-.178 1.406-.847 1.78-.291.165-.612.277-.971.438l-.012.001zm-1.322-3.088v1.729c0 1.141.108 1.22 1.208.937a2.07 2.07 0 00.478-.182c.493-.262.763-.815.692-1.38-.082-.645-.366-.989-1.029-1.091-.431-.065-.859-.013-1.348-.013h-.001zm-49.974-30.774l1.97-2.215 2.746-3.006c.536-.564 1.16-.568 1.575-.089a1.209 1.209 0 01-.213 1.777l-2.133 1.51-2.401 1.695c-.456.353-.928.387-1.546.327h.002zm45.211 37.19c-.823.177-.87.15-1.122-.568l-.598-1.729c-.084-.258-.216-.383-.496-.37h-1.494c-.291-.012-.412.115-.5.368l-.694 1.943c-.13.397-.343.523-.777.363l2.798-7.02.183-.019 2.7 7.03v.002zm-2.974-5.65l-.927 2.542h1.877l-.95-2.542zm-8.127 5.698l-.351.032c-.124 0-.245-.01-.408-.017v-6.886c.971.056 1.985-.162 2.963.182.539.188.881.56.949 1.16.081.704-.129 1.329-.748 1.637-.554.275-1.194.372-1.804.524-.172.043-.364.006-.601.006l.003 3.363-.003-.001zm.016-6.502v2.795c.791.005 1.571.049 2.101-.645a1.31 1.31 0 00.089-1.51c-.51-.859-1.385-.57-2.189-.63l-.001-.01zm31.095.318c-.287-.172-.561-.382-.863-.513-.66-.283-1.366-.024-1.634.559-.3.652-.082 1.317.588 1.67.397.21.823.36 1.235.542.97.43 1.367 1.069 1.245 2.01-.129 1.021-.862 1.795-1.833 1.903a4.096 4.096 0 01-1.203-.038c-.755-.146-.779-.193-.725-1.082l.47.39c.962.739 2.207.423 2.502-.645.172-.613-.039-1.198-.611-1.528-.427-.248-.892-.436-1.341-.649-.939-.447-1.318-1.13-1.133-2.058.184-.916.922-1.505 1.915-1.527.291-.004.59.028.862.09.612.132.645.215.513.866l.013.01zm-7.068 6.191h-.706v-6.87h.706v6.87z" fill="#191919"/></g><defs><clipPath id="clip0_2403_3291"><path fill="#fff" transform="translate(91 57)" d="M0 0h151v43H0z"/></clipPath></defs></svg>