<svg width="334" height="157" fill="none" xmlns="http://www.w3.org/2000/svg"><path fill="#fff" d="M0 0h333.587v156.033H0z"/><path d="M123.959 70.592h2.906v5.555h2.076l4.293-5.555h3.322l-5.122 6.526 5.537 7.638h-3.6l-4.29-5.972h-2.216v5.972h-2.906V70.592zm17.302 0h6.225l3.877 14.164h-3.04l-3.046-11.529h-1.8l-3.045 11.529h-3.045l3.874-14.164zm12.182 0h2.909v5.692h1.937c.665-3.469 3.461-5.97 7.059-5.97 4.016 0 7.198 3.223 7.198 7.359 0 4.135-3.189 7.36-7.198 7.36a7.14 7.14 0 01-4.658-1.743 7.18 7.18 0 01-2.401-4.366h-1.937v5.832h-2.909V70.592zm11.905 11.803c2.353 0 4.153-1.833 4.153-4.722 0-2.89-1.8-4.72-4.153-4.72-2.353 0-4.153 1.832-4.153 4.72 0 2.887 1.8 4.722 4.153 4.722zm9.554-11.803h2.906v4.995c0 1.669.969 2.64 2.769 2.64a7.196 7.196 0 002.659-.417c.294-.086.57-.226.812-.415v-6.803h2.908v14.164h-2.908v-4.86a4.301 4.301 0 01-.941.499c-.894.33-1.842.49-2.794.472-3.461 0-5.398-1.916-5.398-4.995l-.013-5.28zm21.456-.277c1.181 0 2.332.368 3.294 1.054.422.291.804.637 1.136 1.029h.139v-1.806h2.908v14.164h-2.908V82.81h-.139c-.322.425-.704.8-1.136 1.111a5.466 5.466 0 01-3.294 1.112c-3.735 0-6.643-2.917-6.643-7.36 0-4.444 2.906-7.358 6.643-7.358zm.555 12.08c2.353 0 4.014-1.638 4.014-4.722 0-3.085-1.661-4.72-4.014-4.72-2.52 0-4.15 1.638-4.15 4.72s1.63 4.722 4.15 4.722zm10.521-11.803h7.061c2.766 0 4.29 1.499 4.29 3.472 0 1.334-.553 2.083-1.108 2.527a2.708 2.708 0 01-1.108.527v.105c.497.08.97.271 1.385.557.692.472 1.384 1.334 1.384 2.915 0 2.248-1.828 4.056-4.706 4.056h-7.198V70.592zm6.782 5.555c1.108 0 1.661-.5 1.661-1.529 0-.859-.553-1.388-1.661-1.388h-3.874v2.917h3.874zm.279 5.969c1.245 0 1.937-.695 1.937-1.803 0-.972-.692-1.666-1.937-1.666h-4.153v3.469h4.153zm6.23-11.524h12.32v2.635h-4.709v11.529h-2.905V73.227h-4.706v-2.635zm20.903-.277a7.232 7.232 0 015.214 2.128 7.272 7.272 0 012.122 5.23 7.373 7.373 0 01-4.498 6.922 7.317 7.317 0 01-8.075-1.63 7.372 7.372 0 01-2.101-5.292 7.275 7.275 0 014.516-6.823 7.227 7.227 0 012.822-.535zm0 12.08c2.518 0 4.29-1.833 4.29-4.722 0-2.89-1.772-4.72-4.29-4.72-2.517 0-4.295 1.833-4.295 4.72 0 2.887 1.775 4.722 4.295 4.722zm-128.294-7.03l-2.804.91-14.875 4.844a2.685 2.685 0 01-2.882-.815 2.705 2.705 0 01-.514-.92l-.042-.13 2.564-.835 15.54-5.062 2.739-.894c.121.967.213 1.935.274 2.902z" fill="#212322"/><path d="M113.368 78.989a43.294 43.294 0 01-.575 5.882c0 .077-.027.152-.04.23a7.82 7.82 0 01-2.138 4.082 7.781 7.781 0 01-4.062 2.161l-.281.048a42.82 42.82 0 01-14.193 0l-.281-.048a7.78 7.78 0 01-4.061-2.161 7.82 7.82 0 01-2.139-4.083c0-.077-.027-.152-.037-.23a43.085 43.085 0 010-14.28c0-.078.024-.155.037-.23a7.814 7.814 0 012.153-4.093 7.777 7.777 0 014.084-2.15c.078-.016-.077 0 0 0a44.152 44.152 0 0114.467-.04l.229.04a7.77 7.77 0 013.554 1.667 7.804 7.804 0 012.29 3.195l-2.679.874-14.041 4.556a2.686 2.686 0 01-2.883-.816 2.705 2.705 0 01-.513-.92l-.043-.13 2.565-.834 12.928-4.211a5.917 5.917 0 00-1.893-.7 39.8 39.8 0 00-6.648-.564 42.263 42.263 0 00-6.85.597 4.975 4.975 0 00-2.59 1.387 5 5 0 00-1.361 2.61l-.033.201a40.71 40.71 0 000 13.417l.028.165v.037a5 5 0 001.355 2.606 4.975 4.975 0 002.581 1.39l.185.03h.052a39.73 39.73 0 006.633.537c2.221 0 4.438-.187 6.628-.557h.05l.185-.03a4.974 4.974 0 002.581-1.39 5 5 0 001.355-2.606l.035-.202c.077-.477.149-.957.212-1.436l-10.86 3.551a2.686 2.686 0 01-2.885-.823 2.704 2.704 0 01-.51-.925l-.043-.13 2.565-.834 12.016-3.918 2.871-.922z" fill="#212322"/></svg>