<svg width="248" height="102" fill="none" xmlns="http://www.w3.org/2000/svg"><path fill="#fff" d="M0 0h248v102H0z"/><g clip-path="url(#clip0_2611_3298)" fill="#191919"><path d="M62.261 55.236h1.513v9.331h4.76v1.399H62.26v-10.73zm10.972-.062h1.063l4.74 10.792h-1.548l-1.408-3.18h-4.511l-1.32 3.18h-1.557l4.541-10.792zm2.223 6.245l-1.706-3.886-1.582 3.886h3.288zm9.089 4.547v-10.73h2.648c1.07 0 1.919.269 2.546.806.628.538.941 1.265.941 2.18 0 .625-.153 1.166-.46 1.622-.31.456-.75.796-1.325 1.022.338.226.669.533.992.922.323.389.777 1.067 1.361 2.035.368.61.663 1.068.886 1.374l.56.769h-1.803l-.46-.707a1.772 1.772 0 00-.09-.13l-.296-.423-.468-.784-.507-.837a8.184 8.184 0 00-.859-1.05 3.281 3.281 0 00-.704-.565c-.21-.114-.562-.172-1.057-.172h-.394v4.67l-1.511-.002zm1.966-9.425h-.453v3.387h.575c.766 0 1.292-.066 1.578-.2.284-.133.506-.335.665-.604.159-.27.24-.574.24-.918 0-.338-.089-.643-.266-.918a1.429 1.429 0 00-.745-.58c-.322-.111-.852-.167-1.594-.167zm11.603-1.458c1.633 0 2.993.525 4.08 1.574 1.085 1.05 1.629 2.364 1.629 3.947 0 1.582-.55 2.892-1.644 3.93-1.097 1.037-2.479 1.555-4.147 1.555-1.593 0-2.92-.518-3.98-1.555-1.061-1.038-1.592-2.337-1.592-3.898 0-1.602.535-2.929 1.603-3.978 1.067-1.05 2.417-1.575 4.051-1.575zm.06 1.458c-1.21 0-2.204.385-2.983 1.151-.779.768-1.167 1.748-1.167 2.94 0 1.158.39 2.12 1.171 2.889.78.768 1.76 1.151 2.933 1.151 1.178 0 2.162-.392 2.953-1.174.788-.783 1.182-1.759 1.182-2.925 0-1.137-.394-2.094-1.182-2.87-.789-.774-1.758-1.162-2.907-1.162zm16.62 6.937v1.69c-1.109.614-2.391.92-3.844.92-1.18 0-2.181-.24-3.003-.72a5.263 5.263 0 01-1.952-1.99 5.459 5.459 0 01-.719-2.742c0-1.56.549-2.875 1.645-3.94 1.097-1.066 2.451-1.599 4.059-1.599 1.11 0 2.342.294 3.7.885v1.65c-1.236-.716-2.443-1.075-3.623-1.075-1.211 0-2.216.39-3.015 1.165-.799.776-1.199 1.748-1.199 2.914 0 1.178.394 2.146 1.18 2.903.787.76 1.793 1.137 3.019 1.137 1.281-.002 2.531-.4 3.752-1.199zm9.313-8.242h1.513v10.73h-1.513v-4.67h-5.94v4.67h-1.512v-10.73h1.512v4.64h5.94v-4.64zm3.844 0h5.992v1.366h-4.479v3.272h4.328v1.375h-4.328v3.333h4.623v1.367h-6.136V55.236zm7.204 6.498h3.768v1.497h-3.768v-1.498zm5.469 4.232V55.22h3.353c1.009 0 1.814.277 2.413.83.6.553.901 1.295.901 2.228 0 .624-.153 1.178-.462 1.66a2.65 2.65 0 01-1.264 1.049c-.534.217-1.302.325-2.299.325h-1.119v4.654h-1.523v-.001zm3.088-9.379h-1.567v3.358h1.657c.614 0 1.089-.148 1.423-.442.332-.293.499-.715.499-1.263.002-1.101-.671-1.653-2.012-1.653zm10.083-1.505c1.632 0 2.992.526 4.079 1.575 1.085 1.05 1.629 2.364 1.629 3.947 0 1.582-.548 2.892-1.644 3.93-1.096 1.037-2.479 1.555-4.147 1.555-1.593 0-2.919-.518-3.98-1.555-1.061-1.038-1.591-2.337-1.591-3.898 0-1.602.534-2.929 1.602-3.978 1.067-1.05 2.419-1.575 4.052-1.575zm.059 1.459c-1.21 0-2.204.385-2.983 1.151-.778.768-1.167 1.748-1.167 2.94 0 1.158.39 2.12 1.171 2.889.781.768 1.758 1.151 2.933 1.151 1.178 0 2.163-.392 2.953-1.174.788-.783 1.182-1.759 1.182-2.925 0-1.137-.394-2.094-1.182-2.87-.789-.774-1.758-1.162-2.907-1.162zm10.13 4.929l-1.151-.709c-.721-.446-1.235-.888-1.539-1.32a2.527 2.527 0 01-.458-1.493c0-.845.288-1.53.867-2.058.577-.527 1.328-.79 2.251-.79.883 0 1.692.252 2.428.755v1.744c-.762-.744-1.582-1.116-2.458-1.116-.495 0-.9.116-1.218.347-.318.232-.476.53-.476.892 0 .322.117.622.351.903.233.28.611.576 1.13.884l1.156.695c1.289.782 1.933 1.776 1.933 2.986 0 .86-.284 1.559-.851 2.097-.568.538-1.306.806-2.214.806-1.044 0-1.995-.326-2.852-.978V63.16c.816 1.05 1.763 1.577 2.837 1.577.475 0 .869-.134 1.184-.401.316-.268.473-.604.473-1.006-.002-.654-.467-1.275-1.393-1.86zm7.852-6.296h1.065l4.738 10.792h-1.548l-1.408-3.18h-4.509l-1.321 3.18h-1.556l4.539-10.792zm2.225 6.245l-1.706-3.886-1.582 3.886h3.288zm9.391-6.183h1.838l-3.904 5.054v5.676h-1.552V60.29l-3.904-5.052h1.827l2.83 3.699 2.865-3.701zM61.697 69.698h.783v5.28h2.462v.79h-3.245v-6.07zm5.677-.033h.55l2.453 6.105h-.801l-.729-1.798h-2.334l-.684 1.798h-.805l2.35-6.105zm1.15 3.531l-.881-2.198-.819 2.198h1.7zm4.304 2.574h-1.851V69.7h1.432c.452 0 .803.068 1.057.202.255.135.447.32.58.557.132.236.2.509.2.82 0 .595-.279 1.023-.834 1.281.4.085.718.268.953.548s.355.617.355 1.01c0 .31-.071.587-.215.83a1.642 1.642 0 01-.633.596c-.278.148-.626.226-1.044.226zm-.394-5.298h-.673v1.825h.521c.419 0 .716-.088.891-.266a.932.932 0 00.266-.686c-.004-.581-.339-.873-1.005-.873zm.058 2.599h-.733v1.925h.772c.427 0 .719-.037.87-.11a.86.86 0 00.368-.346.964.964 0 00-.007-1.011.893.893 0 00-.417-.344c-.181-.077-.465-.114-.853-.114zm5.681-3.458c.847 0 1.549.297 2.111.891.562.595.844 1.339.844 2.234s-.284 1.636-.851 2.223c-.568.587-1.282.88-2.147.88-.823 0-1.51-.293-2.06-.88-.549-.587-.823-1.322-.823-2.206 0-.907.276-1.656.829-2.25.553-.595 1.253-.892 2.097-.892zm.032.826c-.626 0-1.14.217-1.543.652-.403.434-.603.989-.603 1.664 0 .654.202 1.2.607 1.634.404.433.91.652 1.519.652.61 0 1.118-.222 1.528-.665.409-.444.612-.995.612-1.655 0-.643-.203-1.185-.61-1.622a1.986 1.986 0 00-1.51-.66zm3.91 5.331V69.7h1.37c.553 0 .992.152 1.317.456.325.305.488.716.488 1.234a1.7 1.7 0 01-.24.916c-.158.258-.388.45-.685.578.176.127.346.3.514.521.166.22.401.604.704 1.152.19.344.344.604.458.778l.29.433h-.933l-.239-.4c-.007-.015-.024-.04-.047-.075l-.153-.239-.243-.443-.261-.473a4.488 4.488 0 00-.445-.594 1.674 1.674 0 00-.364-.318c-.108-.066-.291-.097-.547-.097h-.204v2.641h-.78zm1.017-5.331h-.235v1.916h.297c.396 0 .669-.038.816-.112a.809.809 0 00.346-.34 1.08 1.08 0 00.123-.52c0-.19-.045-.365-.136-.52a.761.761 0 00-.385-.329c-.168-.065-.443-.095-.826-.095zm5.548-.774h.551l2.453 6.105h-.802l-.728-1.798H87.82l-.684 1.798h-.805l2.348-6.105zm1.15 3.531l-.881-2.198-.818 2.198h1.7zm1.183-3.505h4.569v.774h-1.907v5.305h-.787v-5.305h-1.875v-.774zm7.471-.078c.845 0 1.549.297 2.111.891.562.595.844 1.339.844 2.234s-.284 1.636-.852 2.223c-.567.587-1.283.88-2.146.88-.823 0-1.51-.293-2.06-.88s-.824-1.322-.824-2.206c0-.907.277-1.656.83-2.25.554-.595 1.253-.892 2.097-.892zm.032.826c-.626 0-1.14.217-1.543.652-.403.434-.603.989-.603 1.664 0 .654.202 1.2.607 1.634.403.433.91.652 1.519.652.61 0 1.118-.222 1.527-.665.409-.444.613-.995.613-1.655 0-.643-.204-1.185-.613-1.622a1.976 1.976 0 00-1.507-.66zm3.894-.74h.783v6.07h-.783v-6.07zm2.02 6.071V69.7h1.371c.552 0 .991.152 1.316.456.325.305.488.716.488 1.234 0 .354-.08.658-.239.916a1.45 1.45 0 01-.686.578c.176.127.346.3.514.521.168.22.402.604.704 1.152.191.344.344.604.458.778l.289.433h-.932l-.239-.4c-.007-.015-.024-.04-.047-.075l-.151-.239-.243-.443-.261-.473a4.469 4.469 0 00-.445-.594 1.669 1.669 0 00-.364-.318c-.108-.066-.291-.097-.547-.097h-.204v2.641h-.782zm1.018-5.331h-.236v1.916h.297c.396 0 .669-.038.816-.112a.807.807 0 00.346-.34 1.08 1.08 0 00.123-.52c0-.19-.045-.365-.136-.52a.765.765 0 00-.385-.329c-.166-.065-.441-.095-.825-.095zm3.802-.74h3.101v.773h-2.318v1.851h2.24v.778h-2.24v1.886h2.393v.774h-3.176v-6.063zm6.245 6.062v-6.063h1.843c.744 0 1.332.124 1.765.373.434.248.777.613 1.033 1.093.256.48.383 1.006.383 1.574 0 .406-.071.793-.211 1.165-.14.37-.342.697-.603.977-.267.29-.576.509-.929.656-.205.09-.396.15-.567.182-.172.03-.501.044-.987.044h-1.727v-.001zm1.761-5.289h-.979v4.515h1.003c.393 0 .695-.03.912-.09a2.02 2.02 0 00.541-.226c.144-.092.277-.204.398-.337.387-.433.579-.983.579-1.647 0-.652-.198-1.183-.596-1.594a1.86 1.86 0 00-.502-.378 1.995 1.995 0 00-.538-.196 5.207 5.207 0 00-.818-.047zm4.244-.773h3.1v.773h-2.318v1.851h2.24v.778h-2.24v1.886h2.393v.774H121.5v-6.063zm4.032 6.071V69.7h1.371c.553 0 .992.152 1.317.456.325.305.488.716.488 1.234 0 .354-.081.658-.239.916a1.45 1.45 0 01-.686.578c.176.127.346.3.514.521.168.22.401.604.704 1.152.19.344.344.604.458.778l.289.433h-.932l-.237-.4a1.194 1.194 0 00-.047-.075l-.153-.239-.243-.443-.261-.473a4.65 4.65 0 00-.445-.594 1.669 1.669 0 00-.364-.318c-.108-.066-.292-.097-.547-.097h-.204v2.641h-.783zm1.018-5.331h-.235v1.916h.297c.396 0 .669-.038.816-.112a.807.807 0 00.346-.34 1.08 1.08 0 00.123-.52c0-.19-.045-.365-.136-.52a.765.765 0 00-.385-.329c-.168-.065-.443-.095-.826-.095zm8.152-.74h.732v6.07h-.787v-4.725l-1.681 2.348h-.143l-1.702-2.348v4.724h-.783v-6.07h.742l1.817 2.494 1.805-2.493zm3.657-.034h.551l2.452 6.105h-.801l-.729-1.798H137.5l-.684 1.798h-.805l2.348-6.105zm1.15 3.531l-.881-2.198-.818 2.198h1.699zm1.183-3.505h4.568v.774h-1.907v5.305h-.786v-5.305h-1.875v-.774zm7.471-.078c.844 0 1.548.297 2.111.891.562.595.844 1.339.844 2.234s-.284 1.636-.852 2.223c-.568.587-1.283.88-2.146.88-.824 0-1.511-.293-2.06-.88-.549-.587-.824-1.322-.824-2.206 0-.907.277-1.656.829-2.25.553-.595 1.254-.892 2.098-.892zm.032.826c-.626 0-1.14.217-1.543.652-.404.434-.605.989-.605 1.664 0 .654.202 1.2.607 1.634a1.99 1.99 0 001.518.652c.611 0 1.119-.222 1.528-.665.409-.444.613-.995.613-1.655 0-.643-.204-1.185-.613-1.622a1.972 1.972 0 00-1.505-.66zm3.885-.74h.782v5.278h2.464v.791h-3.246v-6.07zm6.614-.086c.844 0 1.548.297 2.111.891.562.595.844 1.339.844 2.234s-.284 1.636-.852 2.223c-.568.587-1.281.88-2.146.88-.824 0-1.511-.293-2.06-.88-.549-.587-.824-1.322-.824-2.206 0-.907.276-1.656.829-2.25.555-.595 1.254-.892 2.098-.892zm.032.826c-.626 0-1.14.217-1.543.652-.402.434-.604.989-.604 1.664 0 .654.202 1.2.608 1.634.403.433.909.652 1.516.652.611 0 1.119-.222 1.528-.665.409-.444.613-.995.613-1.655 0-.643-.204-1.185-.611-1.622a1.977 1.977 0 00-1.507-.66zm6.842 2.34h1.836v2.572c-.673.326-1.342.486-2.005.486-.905 0-1.628-.293-2.17-.878-.542-.587-.813-1.31-.813-2.17 0-.907.281-1.662.843-2.264.56-.602 1.264-.903 2.111-.903.308 0 .599.037.876.11.276.075.625.21 1.049.406v.886c-.652-.42-1.3-.63-1.942-.63-.598 0-1.102.226-1.511.678-.409.453-.615 1.008-.615 1.664 0 .69.206 1.253.615 1.69.409.437.937.656 1.582.656.313 0 .687-.08 1.124-.24l.075-.025v-1.264h-1.054v-.774h-.001zm2.986-3.08h.783v6.07h-.783v-6.07zm7.509 6.452l-.786.847a3.322 3.322 0 01-.77-.146 4.808 4.808 0 01-.813-.34c-.274-.144-.642-.392-1.102-.744-.665-.133-1.214-.484-1.645-1.05a3.157 3.157 0 01-.648-1.965c0-.907.278-1.656.833-2.25.556-.595 1.259-.892 2.109-.892.844 0 1.548.295 2.106.884.561.589.839 1.33.839 2.222 0 .75-.211 1.41-.633 1.978a2.713 2.713 0 01-1.64 1.073l.207.088c.645.275 1.11.413 1.394.413.158 0 .342-.04.549-.118zm-2.821-5.712c-.614 0-1.124.22-1.526.66-.401.439-.603.994-.603 1.663 0 .653.202 1.195.607 1.629.404.433.912.65 1.522.65a2 2 0 001.523-.665c.413-.444.618-.99.618-1.638 0-.664-.202-1.213-.605-1.647-.406-.435-.917-.652-1.536-.652zm7.716-.74h.787v3.445c0 .467-.03.818-.092 1.056a2.364 2.364 0 01-.228.594c-.089.157-.199.3-.33.425-.434.415-.999.62-1.7.62-.712 0-1.283-.205-1.715-.617a1.887 1.887 0 01-.33-.428 2.31 2.31 0 01-.222-.58c-.058-.227-.088-.586-.088-1.076V69.7h.786v3.445c0 .573.058.969.176 1.191.117.223.297.402.536.537.241.134.523.202.85.202.465 0 .842-.135 1.135-.404.153-.144.265-.316.333-.512.067-.199.102-.535.102-1.014v-3.447zm1.87 0h3.101v.773h-2.318v1.851h2.239v.778h-2.239v1.886h2.392v.774h-3.175v-6.063zM134.229 26H114.35v25.473h19.879V26z"/></g><defs><clipPath id="clip0_2611_3298"><path fill="#fff" transform="translate(61 26)" d="M0 0h125.702v51H0z"/></clipPath></defs></svg>