<svg width="335" height="157" fill="none" xmlns="http://www.w3.org/2000/svg"><path fill="#fff" d="M.935 0h333.587v156.033H.935z"/><path d="M97.9 84.063a15.594 15.594 0 005.856 6.866 16.161 16.161 0 008.766 2.57 15.594 15.594 0 00-5.856-6.865 16.164 16.164 0 00-8.766-2.572zm14.612 1.681c6.577 0 11.907-5.204 11.907-11.623 0-6.418-5.33-11.622-11.907-11.622-6.576 0-11.907 5.203-11.907 11.622 0 6.42 5.331 11.623 11.907 11.623zm.01 7.756a12.134 12.134 0 006.452-1.855 11.712 11.712 0 004.393-4.97 12.12 12.12 0 00-6.451 1.854 11.714 11.714 0 00-4.394 4.97z" fill="#000"/><path d="M112.513 79.932c3.288 0 5.953-2.601 5.953-5.81 0-3.21-2.665-5.81-5.953-5.81-3.287 0-5.952 2.6-5.952 5.81 0 3.209 2.665 5.81 5.952 5.81z" fill="#fff"/><path d="M189.119 74.121h4.971v18.843h-4.971v-7.34h-8.697v7.34h-4.976V74.121h4.98v6.944h8.697l-.004-6.944zm7.325 4.673h6.201v14.17h4.98v-14.17h6.125v-4.673h-17.306v4.673zm41.456 10.07v4.005c-.848.416-1.911.622-3.148.622-2.587 0-3.884-1.1-4.412-2.87l-.084.12c-1.505 1.846-3.589 2.75-6.292 2.75-2.587 0-4.788-.948-6.64-2.864-1.816-1.922-2.743-4.296-2.743-7.084 0-2.789.927-5.119 2.743-7.048 1.852-1.923 4.053-2.903 6.64-2.903 2.587 0 4.603.83 6.09 2.518v-1.99h4.982v13.33c0 1.137.53 1.725 1.59 1.725.446.013.887-.095 1.274-.311zm-7.644-5.321c0-1.545-.501-2.827-1.554-3.807-1.004-1.018-2.278-1.507-3.822-1.507s-2.818.49-3.822 1.507c-1.004.98-1.505 2.262-1.505 3.807s.501 2.826 1.505 3.842c1.004.98 2.278 1.47 3.822 1.471 1.545.002 2.819-.489 3.822-1.47 1.053-1.017 1.554-2.298 1.554-3.843zm-95.844-9.422l-.138 7.079c-.037 2.866-.142 4.282-.567 5.905-.389 1.552-1.133 1.992-2.3 1.992a3.05 3.05 0 01-1.025-.138v4.005c.388.207 1.025.311 1.874.311 3.496-.104 5.201-1.717 6.05-4.618.602-2.072.707-3.658.813-6.041l.111-3.822h6.186v14.17h4.977V74.121h-15.981zm23.987 10.692c.536 3.222 3.148 4.269 5.799 4.269 1.748 0 3.594-.67 4.729-1.672l3.072 3.016c-1.835 1.983-4.389 3.073-7.879 3.073-4.886 0-10.781-2.815-10.781-9.949 0-7.133 5.675-9.95 10.488-9.95 6.098 0 8.623 2.796 8.623 5.931.007 5.119-6.668 7.486-14.051 5.282zm8.65-4.74c0-1.461-1.482-2.113-3.141-2.113-2.536 0-4.733 1.044-5.401 3.733 5.166 1.461 8.542.375 8.542-1.614v-.005z" fill="#000"/></svg>