<svg width="334" height="157" fill="none" xmlns="http://www.w3.org/2000/svg"><path fill="#fff" d="M.174 0h333.587v156.033H.174z"/><path d="M105.826 87.626V70.088h-2.488v20.038h11.132v-2.5h-8.644zm30.865-8.642l-3.121 8.473-3.12-8.473h-2.74l4.174 11.142h3.331l4.174-11.142h-2.698zm16.486 11.142h2.488V70.088h-2.488v20.038zm-28.545-6.948h-6.283c.886-2.796 5.524-2.838 6.283 0zm-3.121-4.448c-3.457 0-5.903 2.373-5.86 5.846.042 3.474 2.361 5.846 5.945 5.846 2.319 0 4.469-1.186 5.397-3.897h-2.699c-1.433 2.669-5.818 1.822-6.071-1.017h8.981c.548-3.855-1.982-6.778-5.693-6.778zm27.281 4.448h-6.283c.844-2.796 5.482-2.838 6.283 0zm-3.12-4.448c-3.458 0-5.903 2.373-5.861 5.846.042 3.474 2.361 5.846 5.945 5.846 2.319 0 4.47-1.186 5.397-3.897h-2.698c-1.434 2.669-5.819 1.822-6.072-1.017h8.981c.506-3.855-2.024-6.778-5.692-6.778zm7.505-38.677v27.536h2.488V37.553h-52.327V67.59h2.488V40.053h47.351zm-44.94 64.575h-4.297v-4.15h8.021v-1.631h-9.719v14.452h5.893c3.171 0 4.829-1.755 4.829-4.356 0-2.602-1.535-4.315-4.727-4.315zm-.163 7.04h-4.134v-5.451h4.236c2.189 0 3.069 1.115 3.069 2.705s-.982 2.746-3.171 2.746zm16.455-9.724v2.333c-.859-1.549-2.394-2.561-4.337-2.561-3.049 0-5.259 2.457-5.259 5.905 0 3.428 2.19 5.905 5.259 5.905 1.943 0 3.458-.991 4.337-2.519v2.292h1.699v-11.355h-1.699zm-4.01 9.951c-2.271 0-3.867-1.776-3.867-4.274 0-2.477 1.575-4.273 3.867-4.273s4.031 1.775 4.031 4.273c0 2.498-1.739 4.274-4.031 4.274zm16.916-9.951l-3.704 8.134-3.642-8.134h-1.821l4.563 9.972-2.987 6.545h1.821l7.591-16.517h-1.821zm13.44 0l-3.744 5.285-3.745-5.285h-2.087v11.355h1.699v-5.451l-.123-4.005 4.215 6.008h.061l4.215-6.008-.102 4.005v5.451h1.698v-11.355h-2.087zm14.257 0v2.333c-.859-1.549-2.394-2.561-4.338-2.561-3.049 0-5.258 2.457-5.258 5.905 0 3.428 2.189 5.905 5.258 5.905 1.944 0 3.458-.991 4.338-2.519v2.292h1.698v-11.355h-1.698zm-4.01 9.951c-2.272 0-3.868-1.776-3.868-4.274 0-2.477 1.576-4.273 3.868-4.273 2.291 0 4.03 1.775 4.03 4.273 0 2.498-1.739 4.274-4.03 4.274zm17.345-9.951v4.728h-6.916v-4.728h-1.698v11.355h1.698v-4.996h6.916v4.996h1.698v-11.355h-1.698zm10.094 11.582c2.579 0 4.85-1.548 5.464-4.191h-1.76c-.532 1.59-1.964 2.601-3.704 2.601-2.353 0-4.092-1.796-4.092-4.315 0-2.498 1.719-4.315 4.092-4.315 1.74 0 3.172.991 3.704 2.602h1.76c-.594-2.602-2.844-4.192-5.464-4.192-3.294 0-5.81 2.519-5.81 5.905s2.516 5.905 5.81 5.905zm17.772-.227l-6.446-5.967 5.914-5.388h-2.231l-5.483 5.058v-5.058h-1.698v11.355h1.698v-5.471l6.015 5.471h2.231zm10.112-11.355v2.333c-.86-1.549-2.394-2.561-4.338-2.561-3.049 0-5.259 2.457-5.259 5.905 0 3.428 2.19 5.905 5.259 5.905 1.944 0 3.458-.991 4.338-2.519v2.292h1.698v-11.355h-1.698zm-4.011 9.951c-2.271 0-3.867-1.776-3.867-4.274 0-2.477 1.576-4.273 3.867-4.273 2.292 0 4.031 1.775 4.031 4.273 0 2.498-1.739 4.274-4.031 4.274zm12.532-9.951c-2.538 0-4.011 1.3-4.011 3.716 0 1.879 1.187 2.932 2.988 3.241l-3.52 4.398h2.108l3.274-4.294h2.946v4.294h1.698v-11.355h-5.483zm.143 5.615c-1.76 0-2.435-.805-2.435-1.94 0-1.198.512-2.127 2.353-2.127h3.724v4.067h-3.642z" fill="#191919"/></svg>