<svg width="248" height="116" fill="none" xmlns="http://www.w3.org/2000/svg"><path d="M129.152 68.13V49h11.808v4.448h-6.889v14.683h-4.919zm26.654 0v-7.48h-7.31v7.48h-4.919V49h4.919v7.141h7.31V49h4.919v19.13h-4.919zM183.544 49v4.448h5.746v14.683h4.934V53.448H200V49h-16.456zm-7.235 19.13V57.235l-7.837 10.897h-4.121V49.015h4.918v10.79l7.702-10.79h4.257v19.116h-4.919zm-75.451 0V56.773l-4.903 6.003-4.92-6.003v11.359h-4.918V49h4.844l4.994 6.587L100.934 49h4.843v19.13h-4.919zm21.405 0l-1.023-2.677h-7.657l-1.022 2.678h-4.964L115.163 49h4.558l7.581 19.13h-5.039zm-7.13-6.725h4.573l-2.287-6.002-2.286 6.002zM48 52.711c0-2.324.888-4.51 2.497-6.156C52.107 44.908 54.242 44 56.514 44h19.675v4.433H56.514a4.119 4.119 0 00-2.964 1.262 4.313 4.313 0 00-1.233 3.032l-.015 7.434c-.196 1.97-1.655 3.57-3.535 3.863L48 64.13V52.71zm0 20.07V68.35h19.675a4.12 4.12 0 002.963-1.262 4.313 4.313 0 001.234-3.032V56.99c0-2.108 1.534-3.925 3.565-4.248l.767-.123v11.42c0 2.324-.888 4.51-2.497 6.157-1.61 1.646-3.746 2.555-6.017 2.555H48v.03z" fill="#191919"/><path d="M64.666 64.147v-5.725l-2.572 3.14-2.557-3.14v5.725h-3.4V52.881h3.22l2.737 3.617 2.738-3.617h3.219v11.266h-3.385z" fill="#191919"/></svg>