<svg width="334" height="157" fill="none" xmlns="http://www.w3.org/2000/svg"><path fill="#fff" d="M0 0h333.587v156.033H0z"/><g clip-path="url(#clip0_2403_3462)" fill="#000"><path d="M121.158 88.518l4.657-13.905v13.905h6.945v-22h-9.377L118.867 77.4l-4.519-10.882h-9.381v22h6.948V74.613l4.694 13.905h4.549zm76.258-9.108c2.183-.171 4.36-1.624 4.36-4.013v-4.896c-.253-2.475-2.147-3.806-4.393-3.983h-18.012v21.994h7v-9.17h2.447l4.902 9.17h8.047l-5.419-9.103h1.068zm-1.938-5.239c0 .472-.121.884-.991.884h-8.107v-4.227h8.128c.988 0 .979.63.979 1.025l-.009 2.319zm-41.688-3.302V66.52h-18.313v21.992h18.313V84.16h-11.35l.003-4.59h11.347v-4.337h-11.347V70.87h11.347zm9.316.003h-6.602V66.52h20.153v4.352h-6.602v17.64h-6.949v-17.64zm60.681-4.354h-14.908c-2.24.177-4.128 1.287-4.387 3.777v14.234c.259 2.49 2.147 3.806 4.387 3.983h14.908c2.237-.177 4.127-1.493 4.38-3.983V70.295c-.253-2.49-2.143-3.6-4.38-3.777zm-2.631 16.686a.995.995 0 01-.297.684 1.033 1.033 0 01-.697.297h-7.598a1.103 1.103 0 01-.718-.294 1.057 1.057 0 01-.336-.687v-11.49c.03-.247.15-.774 1.017-.857h7.638c.864.083.958.61.991.858v11.489z"/></g><defs><clipPath id="clip0_2403_3462"><path fill="#fff" transform="translate(104.965 66.519)" d="M0 0h123.2v22H0z"/></clipPath></defs></svg>