<svg width="248" height="102" fill="none" xmlns="http://www.w3.org/2000/svg"><path fill="#fff" d="M0 0h248v102H0z"/><path fill-rule="evenodd" clip-rule="evenodd" d="M74 32h99.28v37.335H74V32zm43.97 13.676l-1.023-1.699-3.232 1.454 1.024 1.716 3.231-1.471zm-22.888-1.347l3.534 4.948 3.517-4.948h7.327v2.086h-1.468v8.51h1.468v2.084h-9.523v-2.084h1.47V49.41l-5.413 7.6-5.431-7.6v5.516h1.47v2.084h-5.265v-2.084h1.451v-8.51h-1.451V44.33h8.314zm15.797 3.17h8.096v7.43h1.477v2.08h-9.573v-2.08h1.476v-5.35h-1.476v-2.08zm10.282 4.786c0-2.346 1.957-5.138 7.092-5.138 4.436 0 7.091 2.528 7.091 5.14 0 .435-.039.683-.039.683h-8.073v.944c0 .792.73 1.521 1.874 1.521 1.64 0 2.299-1.218 2.433-1.729h3.671c-.546 1.67-2.803 3.655-6.949 3.655-5.406 0-7.1-2.877-7.1-5.076zm6.071-.901h2.057v-1.295c0-.39-.317-1.009-1.035-1.009-.665 0-1.022.593-1.022 1.004v1.3zm17.261-7.055h-8.44v2.085h1.47v8.51h-1.47v2.085h9.928v-2.084h-1.488V44.329zm16.026 7.957c0 .436-.037.684-.037.684h-8.073v.944c0 .792.729 1.521 1.873 1.521 1.641 0 2.299-1.218 2.434-1.729h3.671c-.547 1.67-2.803 3.655-6.95 3.655-5.405 0-7.101-2.877-7.101-5.076 0-2.346 1.958-5.138 7.092-5.138 4.438 0 7.091 2.528 7.091 5.14zm-7.089-3.206c-.665 0-1.021.593-1.021 1.004v1.3h2.056v-1.295c0-.39-.316-1.009-1.035-1.009z" fill="#191919"/></svg>