<svg width="248" height="116" fill="none" xmlns="http://www.w3.org/2000/svg"><path d="M132.284 68.855l1.167-1.691 5.046 5.669h6.847l-8.912-10.02 7.96-11.604h-6.201l-5.907 8.612V43.614h-5.094v29.219h5.094v-3.978zm-19.638 0l1.161-1.691 5.052 5.669h6.853l-8.918-10.02 7.96-11.604h-6.201l-5.907 8.612V43.614h-5.094v29.219h5.094v-3.978zm29.891-7.114c0 6.265 5.028 11.35 11.234 11.35 6.201 0 11.229-5.085 11.229-11.35 0-6.271-5.028-11.35-11.229-11.35-6.206 0-11.234 5.079-11.234 11.35zm-48.302-11.35C88.028 50.39 83 55.47 83 61.74c0 6.265 5.028 11.35 11.235 11.35 6.2 0 11.228-5.085 11.228-11.35 0-6.271-5.028-11.35-11.228-11.35zM94.139 43c-1.407 0-2.544 1.15-2.544 2.576 0 1.42 1.137 2.576 2.544 2.576 1.406 0 2.544-1.156 2.544-2.576 0-1.426-1.138-2.576-2.544-2.576zm6.751 0c-1.406 0-2.543 1.15-2.543 2.576 0 1.42 1.137 2.576 2.543 2.576 1.407 0 2.55-1.156 2.55-2.576 0-1.426-1.143-2.576-2.55-2.576zm-12.886 0c-1.407 0-2.55 1.15-2.55 2.576 0 1.42 1.143 2.576 2.55 2.576 1.406 0 2.544-1.156 2.544-2.576 0-1.426-1.138-2.576-2.544-2.576zm.09 18.741c0-3.418 2.753-6.205 6.14-6.205 3.382 0 6.136 2.787 6.136 6.205 0 3.419-2.754 6.199-6.135 6.199-3.388 0-6.141-2.78-6.141-6.199zm59.536 0c0-3.418 2.754-6.205 6.141-6.205 3.382 0 6.135 2.787 6.135 6.205 0 3.419-2.753 6.199-6.135 6.199-3.387 0-6.141-2.78-6.141-6.199z" fill="#191919"/></svg>