<svg width="248" height="116" fill="none" xmlns="http://www.w3.org/2000/svg"><g clip-path="url(#clip0_3426_3679)" fill="#191919"><path d="M62.148 43.795c-8.299 0-15.007 6.709-15.007 15.008S53.849 73.81 62.148 73.81c8.3 0 15.008-6.709 15.008-15.008 0-8.3-6.708-15.008-15.008-15.008zm-2.074 21.37l-1.107 3.251c-4.15-1.383-6.916-5.325-6.916-9.752 0-4.426 2.766-8.299 6.985-9.751l1.107 3.25c-2.767.9-4.565 3.528-4.565 6.432-.138 3.043 1.73 5.671 4.496 6.57zm5.118 3.32l-1.038-3.32c2.836-.899 4.703-3.527 4.703-6.5 0-2.974-1.867-5.533-4.634-6.432l1.107-3.32a10.258 10.258 0 017.054 9.751c0 4.565-2.905 8.507-7.192 9.821zM199.569 61.5l1.66 2.005c-1.729 1.799-3.873 2.283-5.602 2.283-1.66 0-2.835-.277-3.873-.761-2.213-1.107-3.319-3.32-3.319-6.017 0-4.08 2.766-7.123 6.846-7.123 4.565 0 6.778 3.388 6.432 7.815h-10.374c.069 1.106.692 2.144 1.591 2.697.761.484 1.66.691 2.836.691 1.314 0 2.628-.414 3.803-1.59zm-8.161-4.219h7.331c-.207-1.59-1.521-2.974-3.596-2.974-2.144 0-3.458 1.522-3.735 2.974zm-69.644 8.092h3.735l-5.879-6.847 5.809-6.432h-3.665l-4.426 5.118h-1.314v-5.118h-2.836v13.21h2.836v-5.257h1.314l4.426 5.326zm12.172-10.858c-2.42 0-4.011 1.867-4.011 4.218 0 2.352 1.591 4.22 4.011 4.22 2.421 0 3.942-1.799 3.942-4.22.069-2.282-1.452-4.218-3.942-4.218zm.484-2.698c3.735 0 6.501 2.905 6.501 6.916 0 3.943-2.697 6.986-6.501 6.986-1.798 0-3.25-.623-4.288-1.73v6.917h-2.904V52.163h2.835v1.59c1.107-1.313 2.559-1.936 4.357-1.936zm37.693.346h-11.827v2.628h4.496v10.582h2.904V54.79h4.496v-2.628h-.069zm-60.931 0H99.287v2.628h4.495v10.582h2.905V54.79h4.495v-2.628zm-15.353 6.64c0-2.49-1.73-4.288-4.15-4.288-2.351 0-4.15 1.798-4.15 4.288s1.73 4.288 4.15 4.288c2.352 0 4.15-1.799 4.15-4.288zm-11.273 0c0-3.943 3.043-6.916 7.123-6.916 4.011 0 7.124 2.973 7.124 6.916 0 3.942-3.043 6.985-7.124 6.985-4.011-.07-7.123-3.043-7.123-6.985zm101.596-6.64v13.21h-2.835v-8.507l-6.916 8.507h-2.283v-13.21h2.836v8.507l6.916-8.507h2.282zm-27.871 13.21h-2.836v-13.21h2.836v13.21zm-7.331-4.496c0-1.175-.83-2.005-1.937-2.005h-2.905v4.08h2.905c1.107 0 1.937-.899 1.937-2.075zm2.835 0c0 2.628-1.936 4.496-4.703 4.496h-5.809v-13.21h2.835v4.288h3.251c2.766 0 4.426 1.798 4.426 4.426z"/></g><defs><clipPath id="clip0_3426_3679"><path fill="#fff" transform="translate(47 43)" d="M0 0h155v31H0z"/></clipPath></defs></svg>