<svg width="248" height="102" fill="none" xmlns="http://www.w3.org/2000/svg"><path d="M151.638 32.626c-.973-1.29-2.673-.258-3.422.194-5.33 3.26-6.117 8.998-7.973 12.294-1.462 2.637-3.854 4.576-6.019 4.726-1.601.119-3.338-.202-5.061-.98-4.215-1.892-6.486-4.339-7.039-4.771-1.136-.895-9.869-9.723-16.986-10.083 0 0-.868-1.816-1.085-1.847-.519-.062-1.052 1.092-1.439 1.213-.35.127-.962-1.24-1.318-1.18-.357.05-.703 1.419-1.399 2.124-.512.515-1.135.482-1.487 1.122-.122.232-.08.641-.217 1.017-.296.776-1.286.857-1.295 1.688 0 .922.833 1.098 1.56 1.74.58.515.619.878 1.294 1.12.601.212 1.475-.453 2.25-.215.645.198 1.266.338 1.405 1.025.126.62 0 1.593-.796 1.484-.259-.036-1.393-.421-2.794-.266-1.692.186-3.623.748-3.812 2.688-.097 1.083 1.2 2.35 2.462 2.098.865-.173.457-1.227.93-1.735.624-.655 4.136 2.286 7.401 2.286 1.384 0 2.407-.364 3.424-1.465.091-.07.216-.246.362-.264.132.018.378.155.455.212 2.639 2.17 4.628 6.537 14.303 6.587 1.358.017 2.915.676 4.19 1.88 1.12 1.05 1.783 2.726 2.421 4.42.975 2.55 2.709 5.012 5.348 7.758.139.163 2.31 1.89 2.472 2.017.029.025.196.404.124.618-.046 1.67-.286 6.465 3.186 6.666.853.049.64-.56.64-.993-.011-.826-.15-1.66.264-2.518.592-1.159-1.226-1.717-1.186-4.254.043-1.897-1.507-1.576-2.298-3.024-.444-.832-.858-1.29-.815-2.293.169-5.764-1.206-9.56-1.878-10.479-.531-.71-.989-.976-.483-1.305 2.894-1.976 3.558-3.814 3.558-3.814 1.54-3.73 2.931-7.131 4.842-8.643.387-.291 1.373-1.065 1.986-1.356 1.782-.878 2.738-1.4 3.24-1.908.83-.817 1.482-2.551.686-3.584h-.001z" fill="#000"/></svg>