<svg width="335" height="157" fill="none" xmlns="http://www.w3.org/2000/svg"><path fill="#fff" d="M.587 0h333.587v156.033H.587z"/><path d="M133.103 68.246h7.089l5.716 15.142 5.672-15.142h6.841v20.19h-4.547V73l-5.922 15.433h-4.673l-5.923-15.348v15.35h-4.253v-20.19zm55.017 0h15.643v20.19h-4.844V72.5h-6.377c-.042 2.836-.125 6.633-.208 8.76-.167 5.297-1.719 7.174-6.258 7.174h-2.169v-4.253h1.21c2.043 0 2.711-.919 2.837-3.797.125-3.087.166-9.218.166-12.139zm40.384 0h18.395v4.255H240.1V88.44h-4.797V72.501h-6.799v-4.255zm-107.923-.416h-1.733c-4.161 0-7.313 2.53-8.036 6.296l4.419.71c.605-1.794 1.994-3.018 3.75-3.1a7.101 7.101 0 011 0c2.613.094 3.792 1.348 3.792 4.44-4.95 0-8.334-.234-10.822 1.406-2.031 1.341-2.903 2.827-2.903 5.176 0 3.4 2.645 6.094 6.914 6.094h.588c3.015 0 5.45-1.173 6.441-2.59v2.174h4.455v-12.17c.003-4.693-2.512-8.436-7.865-8.436zm-2.72 17.083c-1.894-.055-2.991-1.152-2.991-2.538 0-1.148.517-1.719 1.202-2.11.717-.418 1.648-.562 3.097-.614 1.392-.05 2.523-.11 4.687-.11 0 3.437-2.167 5.177-4.859 5.36-.379.025-.758.029-1.136.012zm109.523-5.209v-1.89c0-6.514-4.093-9.884-9.376-9.884h-1.033c-5.688 0-9.316 3.877-9.502 9.35-.027.8-.027 1.135 0 2.23.133 5.446 3.95 9.112 9.049 9.245.937.026.816.025 1.695 0 4.441-.124 7.802-2.688 8.793-6.037l-4.294-.751c-1.05 2.1-3.052 2.905-4.655 2.984a8.373 8.373 0 01-1.086 0c-2.509-.103-4.756-2.07-4.756-4.926v-.313l15.165-.008zm-10.493-7.97a8.958 8.958 0 011.195 0c2.108.107 4.328 1.477 4.542 4.2h-10.386c.241-2.43 2.194-4.066 4.649-4.2zm-34.306 4.823c-.108-4.885-4.047-8.627-9.255-8.627h-1.887c-5.208 0-9.148 3.75-9.257 8.653a76.39 76.39 0 000 3.518c.109 4.913 4.049 8.654 9.257 8.654h1.887c5.208 0 9.147-3.741 9.255-8.654a74.776 74.776 0 000-3.544zm-4.756 3.294c-.056 2.853-2.132 4.79-4.924 4.932a6.389 6.389 0 01-1.037 0c-2.821-.142-4.868-2.079-4.924-4.932a55.223 55.223 0 010-3.046c.056-2.823 2.103-4.76 4.924-4.902.345-.03.692-.03 1.037 0 2.792.141 4.868 2.079 4.924 4.93a54.205 54.205 0 010 3.018zm-75.281 1.459c-.562 1.876-2.067 3.157-4.089 3.438a6.03 6.03 0 01-1.631 0c-2.516-.351-4.286-2.239-4.34-4.89a55.023 55.023 0 010-3.046c.054-2.677 1.913-4.633 4.476-4.907a6.321 6.321 0 011.25-.008c2.151.233 3.772 1.527 4.358 3.493l4.687-.907c-1.009-3.828-4.483-6.553-8.925-6.553H96.99c-5.208 0-9.15 3.742-9.262 8.653a94.607 94.607 0 000 3.518c.108 4.913 4.049 8.654 9.257 8.654h1.345c4.532 0 8.035-2.828 8.962-6.794l-4.743-.65z" fill="#191919"/></svg>