<svg width="248" height="102" fill="none" xmlns="http://www.w3.org/2000/svg"><path fill="#fff" d="M0 0h248v102H0z"/><path d="M96.915 54.364v2.754c0 .78-.65 1.469-1.486 1.469-.835 0-1.485-.643-1.485-1.469v-4.36H88v4.36c0 3.993 3.297 7.252 7.43 7.252 4.086 0 7.429-3.259 7.429-7.252v-2.892c0-7.252-8.915-8.721-8.915-13.128v-2.846c0-.78.65-1.468 1.485-1.468.836 0 1.486.642 1.486 1.468v4.361h5.944v-4.36c-.047-3.994-3.343-7.253-7.43-7.253C91.297 31 88 34.259 88 38.252v2.892c0 7.253 8.915 8.721 8.915 13.22zm5.897 12.897H88v2.893h14.812v-2.893zm3.668-29.009c0-3.993 3.344-7.252 7.43-7.252s7.429 3.259 7.429 7.252v4.361h-5.943v-4.36c0-.78-.65-1.47-1.486-1.47s-1.486.643-1.486 1.47v18.865c0 .78.65 1.469 1.486 1.469s1.486-.643 1.486-1.469v-4.36h5.943v4.36c0 3.993-3.343 7.252-7.429 7.252s-7.43-3.259-7.43-7.252V38.252zM154.449 31v17.397L149.991 31h-5.897v33.37h5.897V46.974l4.458 17.396h5.943V31h-5.943zm-19.272 0h-5.944l-5.897 33.37h5.943l.79-5.783h4.272l.836 5.783h5.943L135.177 31zm-4.458 21.757l1.486-11.521 1.486 11.521h-2.972z" fill="#191919"/></svg>