<svg width="334" height="157" fill="none" xmlns="http://www.w3.org/2000/svg"><path fill="#fff" d="M0 0h333.587v156.033H0z"/><path d="M231.363 84.637v-9.265h1.589l2.484 9.265h2.781l-2.781-9.574.198-.103c.398-.206.795-.411 1.093-.823.894-1.03 1.192-2.47 1.192-3.81V68.27c0-1.338-.298-2.882-1.192-3.912-.894-1.03-2.285-1.338-3.576-1.338h-4.669v21.618h2.881zm0-19.044h1.887c.497 0 1.093.102 1.49.617.398.515.497 1.236.497 1.853v2.47c0 .618-.099 1.339-.497 1.854-.397.412-.894.617-1.49.617h-1.887v-7.411zM250 63.019h-2.81v16.88c0 1.45-.602 2.383-2.107 2.383-1.506 0-2.007-.932-2.007-2.382V63.019h-2.81V78.76c0 .725 0 1.761.1 2.486.502 2.693 2.208 3.832 4.717 3.832 2.509 0 4.215-1.243 4.716-3.832.101-.725.101-1.657.101-2.486V63.02h.1zm-79.926 0v30h10.247v-3.367h-7.42V79.448h5.918V76.59h-5.918V66.386h7.42V63.02h-10.247zm-36.377 30h7.601c1.713 0 3.64-.612 4.818-1.837 1.285-1.224 1.927-2.959 1.927-4.591V68.937c0-3.265-2.676-5.918-6.209-5.918h-8.137v30zm3.533-26.837h4.497c.749 0 1.498.306 1.927.817.535.51.856 1.122.856 1.836v17.858c0 .816-.321 1.632-.963 2.142-.643.613-1.392.919-2.249.919h-4.068V66.182zM104.21 93.02V81.316h3.103c1.801 0 3.602-.404 4.803-1.715 1.301-1.413 1.601-3.33 1.601-5.145V70.42c0-1.816-.3-3.833-1.601-5.246-1.201-1.311-3.102-1.715-4.803-1.715h-6.405v29.56h3.302zm0-26.735h3.103c.9 0 1.801.202 2.401.908.601.706.801 1.816.801 2.825v4.54c0 .908-.1 2.017-.801 2.824-.6.706-1.501.908-2.401.908h-3.103V66.285zm-10.09 3.934h3.098v-.2c0-1.8-.31-3.8-1.653-5.2-1.135-1.4-2.89-1.8-4.646-1.8-1.86 0-3.615.5-4.957 1.8-1.446 1.4-1.859 3.3-1.859 5.2 0 1 .104 2.1.517 3.1.31.9.722 1.7 1.342 2.5 1.136 1.5 2.582 2.7 4.027 4 1.343 1.2 2.582 2.4 3.408 4.1.413.9.62 1.6.62 2.6 0 2.1-.827 3.7-3.202 3.7s-3.2-1.7-3.2-3.7v-1.2H84v.9c0 1.9.413 3.8 1.859 5.2 1.342 1.3 3.098 1.8 4.956 1.8 1.86 0 3.511-.4 4.854-1.8 1.342-1.4 1.652-3.4 1.652-5.2 0-1.9-.62-4-1.755-5.5-1.136-1.5-2.479-2.7-3.925-3.9-1.342-1.3-2.684-2.5-3.51-4.2-.413-.8-.62-1.6-.62-2.5 0-1 .207-2.1.826-2.8.62-.7 1.549-1 2.478-1 2.375 0 3.305 1.7 3.305 3.8v.3zm61.761 22.8V79.856h2.835l3.618 13.061h3.129L161.65 79.55l.586-.306c.489-.307.978-.613 1.369-1.02 1.271-1.43 1.565-3.368 1.565-5.205v-2.96c0-1.836-.294-3.877-1.565-5.305-1.173-1.327-3.031-1.735-4.693-1.735h-6.258v29.898h3.227v.102zm0-27.04h3.031c.88 0 1.76.203 2.347.918.586.714.782 1.836.782 2.857v3.47c0 .917-.098 2.04-.782 2.856a3.664 3.664 0 01-2.445.919h-3.031v-11.02h.098zm61.461-2.96l-4.18 14.592-4.281-14.592h-5.504v30h3.262V66.386l4.587 15.205h3.873l4.485-15.205V93.02h3.262v-30h-5.504zm32.659 26.471h-21.519v3.53h21.519v-3.53zm-122.649 3.529h3.272l-5.255-30h-4.959l-5.156 29.898h3.272c.298-1.837.496-3.674.794-5.51V87.1h7.139v.306c.298 1.939.595 3.775.893 5.612zm-1.289-8.571h-6.347l.099-.306c.992-6.531 2.083-11.94 3.075-18.47.991 6.53 2.082 11.939 3.074 18.47l.099.306zm70.836 8.572h3.404l-5.363-29.56h-5.157l-5.363 29.56h3.403c.31-1.817.516-3.632.825-5.448v-.303h7.426v.303c.206 1.816.516 3.631.825 5.447zm-1.341-8.475h-6.6l.103-.303c1.031-6.456 2.166-11.803 3.197-18.26 1.031 6.457 2.166 11.804 3.197 18.26l.103.303z" fill="#191919"/></svg>