<svg width="248" height="102" fill="none" xmlns="http://www.w3.org/2000/svg"><g clip-path="url(#clip0_3702_4030)"><mask id="a" style="mask-type:alpha" maskUnits="userSpaceOnUse" x="69" y="36" width="110" height="30"><path d="M179 36H69v30h110V36z" fill="#C4C4C4"/></mask><g mask="url(#a)"><mask id="b" style="mask-type:alpha" maskUnits="userSpaceOnUse" x="69" y="36" width="31" height="30"><path d="M99.345 36H69v30h30.345V36z" fill="#C4C4C4"/></mask><g mask="url(#b)"><path d="M98.95 49.974l.395-1.241-1.303.04c-.11 0-.91-.022-1.687-.576.058.005.116.013.175.013.799 0 1.572-.473 1.882-1.15l.56-1.223c-.702.009-1.345-.078-1.345-.078-.005-.002-.512-.065-1.097-.654-.42-.422-.94-.645-1.503-.645-.247 0-.467.043-.656.102.03-.1.058-.2.073-.303.18-1.145-.57-2.018-.57-2.018l-.98-1.194-.606 1.403c-.003.005-.156.333-.43.494a2.596 2.596 0 00-.721-1.32c-.82-.835-1.818-.959-2.34-.959a3 3 0 00-.456.033l-1.183.229c.068-.26.213-.713.479-1.12l.653-1.001-1.643.184-.523-1.093-1.013.513-.936-.91-.935.91-1.015-.513-.523 1.093-1.641-.184.654 1c.265.408.41.86.478 1.12l-1.129-.22-.038-.006a3.023 3.023 0 00-.471-.035c-.523 0-1.52.126-2.338.96a2.595 2.595 0 00-.723 1.319c-.272-.159-.424-.483-.424-.483l-.609-1.41-.995 1.202c-.122.155-.722.976-.559 2.008.017.103.044.203.074.302a2.179 2.179 0 00-.655-.102c-.563 0-1.083.223-1.504.645-.584.587-1.088.653-1.083.653 0 0-.532.093-1.356.079l.557 1.223c.31.678 1.084 1.15 1.882 1.15.06 0 .118-.008.177-.013a3.111 3.111 0 01-1.67.577L69 48.733l.402 1.24c.202.639.877 1.697 2.171 1.811-.14.581-.452 1.231-1.138 1.512l-.989.4.54.924c.303.498 1.018 1.081 2.035 1.081.22 0 .432-.022.636-.064.053.228.118.455.196.681.303.887.042 1.506.038 1.512l-.488 1.007 1.09.282c.014.005.343.093.755.093a2.352 2.352 0 00.899-.173c.14.249.312.476.512.679.698.705 1.687 1.062 2.94 1.062h.004l.895-.011-1.848.755 1.403.667c.51.244 1.115.534 1.73.755l-.175.471.484.217c.043.019.972.429 2.519.516 0 0 .373.017.578.017.206 0 .575-.018.575-.018 1.536-.09 2.459-.495 2.502-.515l.484-.218-.177-.472c.634-.228 1.26-.529 1.748-.763l1.377-.658-1.842-.756.898.01c1.254 0 2.244-.357 2.941-1.062.199-.203.37-.43.512-.678a2.339 2.339 0 00.899.173c.405 0 .738-.089.747-.09l1.094-.285-.477-.988c-.01-.026-.272-.643.031-1.531.077-.227.142-.455.194-.682.206.043.42.065.642.065a2.382 2.382 0 002.036-1.091l.534-.914-.99-.4c-.686-.28-.997-.931-1.136-1.51 1.275-.108 1.961-1.167 2.17-1.81zm-17.671-8.62l-.014.003.012-.015.002.011z" fill="#fff"/><path fill-rule="evenodd" clip-rule="evenodd" d="M86.677 53.62h-7.003v-3.979c0-.385-.115-.773-.25-1.13h3.156c.3.292.594.475.873.576-.035.142-.083.433.051.725.11.236.309.416.597.537.032.29.22.728.735.92-.226.225-.447.437-.535.522l-2.096-.032a.367.367 0 01-.164-.15l-.009-.015a.068.068 0 01-.007-.012l.342.055a.141.141 0 00.021.001.135.135 0 00.135-.112.135.135 0 00-.113-.154l-.42-.065.466-1.586-.441-.914-.709.737-.043 1.649-.475-.074a.135.135 0 00-.157.111.136.136 0 00.114.155l.2.03c-.071.04-.119.071-.124.076l-.04.028-.012.049c-.115.462.146.901.43 1.098l-.01.058a.254.254 0 00.047.199.268.268 0 00.176.107.266.266 0 00.303-.201c.106.012.202.014.268.014h.056l2.748.49.046-.032a115.1 115.1 0 001.327-.947c.075.063.16.12.261.169a1.09 1.09 0 00.256 1.098zm-7.003.268h9.005l-.001 3.334c0 1.104-.66 1.876-1.698 2.127l.173-.891.029-.166a.956.956 0 00.337.065c.265 0 .42-.137.523-.254l.134-.153-.109-.168-.006-.01c-.04-.061-.26-.401-.431-.639a3.945 3.945 0 01-.107-.155l-.002-.003c-.21-.31-.474-.697-1.002-.697h-.048a.808.808 0 00-.223.045 1.229 1.229 0 00-.516-.116 1.624 1.624 0 00-.559.11.497.497 0 01-.06.016l-.99-.096c-.012-.002-.053-.025-.102-.082v-.006l.215-.085c-.06-.702-.745-1.135-1.127-1.281a.395.395 0 00-.112-.198l-.212-.199-.187.22-.092.113-1.387-.56.902 1.114-.356.53c-.13.137.013.274.013.274l.368.25.381-.14.023.002.015.002c-.01.032-.023.117-.035.195-.009.062-.017.12-.024.148l-.662-.128-.696.386a.802.802 0 00-.273.979l.077.166.11.235.244-.1a.013.013 0 00.01-.003c-.088.275-.052.537.104.708l.147.182.197.245.215-.228c.063-.063.27-.29.333-.484l.046-.148-.105-.114-.018-.02.118-.192.864.2.194.043.103-.167.057-.092c.01-.019.013-.022.053-.022.03 0 .061.002.094.01.326.06.627.09.894.09.26 0 .414-.01.598-.07l.48.538-.284.864-.012.05c-.538.044-.8.16-1.117.471-.46-.449-.786-.496-2.022-.496-1.479 0-2.481-.853-2.481-2.216v-3.333z" fill="#DEDEDE"/><path fill-rule="evenodd" clip-rule="evenodd" d="M86.543 41.047c-.467-.367-1.312-.711-2.367-.711s-1.897.344-2.365.711c0 0-.138-.82-.612-1.545l.85.094.444-.93.856.433.827-.806.828.806.855-.433.445.93.85-.094c-.473.724-.611 1.545-.611 1.545zm-4.296-1.1l-.236-.025-.226-.026c.103.228.178.445.234.625.597-.326 1.37-.511 2.156-.511.789 0 1.563.185 2.157.511.055-.18.131-.396.234-.625l-.224.026-.236.025-.1-.211-.301-.625-.548.28-.214.107-.17-.165-.596-.58-.595.58-.17.165-.214-.107-.551-.28-.298.625-.102.211zm.312 15.389a.09.09 0 00-.098.083.09.09 0 00.087.097.092.092 0 00.1-.084.094.094 0 00-.09-.096zm6.108 6.043l-.52-.196.144-.527.158-.575s-.92.49-2.215.859c-.368.104-.646.15-.646.15v.391s-.692.119-1.393.119h-.039a9.42 9.42 0 01-1.393-.119v-.39s-.28-.047-.646-.151c-1.295-.369-2.214-.86-2.214-.86l.156.576.146.527-.52.196-.576.212.214.102c.637.304 1.45.693 2.203.895l-.198.532s1.064.477 2.835.481v.001h.027c1.774-.005 2.836-.482 2.836-.482l-.198-.532c.762-.205 1.59-.602 2.23-.908l.185-.09-.575-.212zm-8.943.248l.854-.28-.252-.81c.375.21 1.219.525 1.707.672l-.412 1.113a10.577 10.577 0 01-1.897-.696zm4.453 1.695c-.99 0-2.123-.225-2.455-.34l.506-1.349c.42.12 1.294.25 1.929.245h.04c.635.004 1.507-.124 1.93-.245l.504 1.348c-.332.118-1.463.34-2.453.34zm2.554-1l-.41-1.113c.489-.147 1.33-.462 1.707-.672l-.251.81.852.28c-.516.253-1.14.49-1.898.695zm9.83-11.092c1.366 0 1.822-1.367 1.842-1.425l.152-.482-.512.016h-.003c-.18 0-1.686-.04-2.755-1.375l-.1-.124-.004-.005c-.697-.871-1.358-1.7-2.54-2.077a1.19 1.19 0 01.15-.11c.628-.407.994-.901 1.086-1.474.134-.862-.425-1.55-.45-1.577l-.38-.462-.237.548c-.019.04-.419.912-1.256.912h-.062l-.052-.002-.115-.008c.03-.392-.043-.998-.602-1.567-.67-.684-1.495-.787-1.926-.787-.212 0-.358.023-.393.029l-.007.001-.574.112.354.459c.278.354.53 1.007.232 1.35-.09.102-.272.186-.45.27l-.03.014c-.388.175-.915.419-.915 1.04 0 .402.316.822.89 1.18 1.701 1.051 2.75 2.15 3.203 3.361.7 1.864-.213 2.928-1.101 3.487l-.399.253.349.315c.047.04.474.41 1.103.463.12.008.234.015.34.015.405 0 .749-.063 1.028-.147a2.583 2.583 0 01-.29.405c-.508.578-1.132.842-2.03.855l-.334.006-.026.33c-.003.065-.028.676.56 1.196.09.08.198.146.312.2-.399.354-.804.968-.882 2.021-.066.88-.28 1.204-.282 1.208l-.368.553.666.01c1.1 0 1.944-.3 2.529-.892.345-.35.543-.746.66-1.097a1.8 1.8 0 001.162.42c.295 0 .543-.058.594-.07l.006-.001.426-.112-.188-.39-.001-.002c-.02-.047-.364-.827.014-1.933a6.26 6.26 0 00.29-1.255c.267.138.626.252 1.09.253a1.813 1.813 0 001.537-.802l.003-.005.207-.355-.384-.156c-1.256-.513-1.534-1.89-1.59-2.636.114.021.243.041.39.046h.063zm.996 2.92s-.368.628-1.211.628h-.01c-1.013-.005-1.422-.613-1.422-.613s.06.79-.306 1.857c-.44 1.286.003 2.205.003 2.205s-.236.063-.508.063c-.105 0-.214-.01-.316-.037-.846-.198-1.057-.955-1.057-.955s.078 2.559-2.953 2.559h-.024s.266-.358.346-1.386c.144-1.9 1.45-2.16 1.45-2.16s-.696-.085-.998-.352c-.472-.421-.44-.908-.44-.908 1.067-.015 1.766-.372 2.298-.979.577-.657.672-1.364.672-1.364s-.573.512-1.682.512c-.098 0-.202-.005-.31-.014a1.648 1.648 0 01-.887-.37c1.155-.728 1.965-2 1.247-3.914-.576-1.533-1.959-2.68-3.35-3.543-.463-.285-.721-.6-.721-.873 0-.393.348-.553.704-.717.226-.103.455-.209.603-.376.438-.5.163-1.312-.217-1.8 0 0 .128-.026.33-.026.4 0 1.094.1 1.664.68.757.771.443 1.61.443 1.61l.203.039c.117.025.232.03.352.035h.015a1.85 1.85 0 01.082.002c1.1 0 1.591-1.132 1.591-1.132s1.17 1.416-.552 2.523c-.296.19-.427.366-.392.553l.027.123.122.021c1.193.319 1.823 1.107 2.55 2.017l.1.126c1.17 1.464 2.826 1.511 3.03 1.511h.022s-.378 1.174-1.491 1.174h-.026l-.028-.001c-.512-.018-.774-.211-.774-.211s-.2 2.666 1.82 3.492zm-2.328-7.304c-.26-.317-.556-.675-1.066-.942l-.525-.278.486-.336.008-.005a1.74 1.74 0 01.895-.263c.405 0 .78.164 1.092.476.756.76 1.434.82 1.46.822l.527.031-.218.476c-.216.475-.788.818-1.358.818-.146 0-.289-.022-.424-.068-.374-.122-.616-.415-.868-.72l-.01-.011zm.63-1.095c-.28-.284-.577-.37-.831-.37-.395 0-.693.206-.693.206.575.3.902.7 1.177 1.034.234.286.43.525.709.617.103.035.206.05.31.05.446 0 .877-.285 1.026-.608 0 0-.819-.05-1.698-.929zm-1.458 4.9v.017c-.306-2.432-2.102-4.19-4.1-5.258a15.27 15.27 0 00-.521-.26c.608.093 1.588.105 2.344-.541 0 0-1.157.838-3.527.077.19.121.433.257.709.412.677.38 1.56.875 2.386 1.555 2.909 2.515.827 4.97.827 4.97 1.046-1.074 1.089-2.225.781-3.164.55.901.903 1.996.848 3.345-.08 1.934-1.16 3.606-2.296 4.95-.546.652-.669 1.452-.669 1.452s.22-.707.852-1.434c1.219-1.402 2.26-2.86 2.396-4.96.126.38.645 1.44 1.468 1.84-.021-.013-1.038-.64-1.498-3.002zm-15.506 9l.001.002.37.553-.667.009c-1.101 0-1.944-.3-2.53-.892a2.812 2.812 0 01-.658-1.096 1.785 1.785 0 01-1.162.42c-.3 0-.557-.061-.597-.071h-.004l-.426-.113.188-.39v-.002c.022-.05.365-.828-.013-1.933a6.25 6.25 0 01-.289-1.254 2.39 2.39 0 01-1.089.252c-1.04 0-1.507-.75-1.54-.804l-.001-.002-.208-.355.384-.157c1.256-.514 1.535-1.89 1.591-2.636a2.428 2.428 0 01-.389.046l-.066.002c-1.367 0-1.822-1.367-1.84-1.425l-.157-.481.515.015c.18 0 1.69-.039 2.757-1.375l.1-.124.01-.01c.695-.87 1.355-1.696 2.531-2.073a1.088 1.088 0 00-.15-.11c-.627-.407-.993-.9-1.084-1.474-.132-.84.399-1.516.444-1.574l.003-.003.383-.462.238.548c.018.041.417.913 1.256.913h.061l.05-.003.116-.007c-.028-.391.046-.998.605-1.567.672-.685 1.494-.788 1.925-.788.208 0 .351.023.39.029l.01.001.577.112-.357.46c-.277.353-.53 1.008-.23 1.348.09.103.271.188.45.271l.03.014c.387.174.914.42.914 1.04 0 .402-.315.822-.89 1.18-1.702 1.052-2.75 2.15-3.203 3.362-.699 1.863.212 2.926 1.103 3.487l.398.252-.348.315c-.048.041-.475.41-1.105.464-.119.007-.231.014-.34.014a3.55 3.55 0 01-1.026-.146c.077.133.172.268.29.404.508.577 1.133.841 2.029.856l.336.005.022.33c.004.066.029.677-.558 1.196-.09.082-.197.147-.312.201.4.353.803.967.883 2.02.065.842.261 1.176.279 1.206zm-3.276-2.353s-.077 2.56 2.955 2.56h.021s-.264-.358-.342-1.387c-.144-1.899-1.451-2.159-1.451-2.159s.697-.087 1-.353c.472-.42.438-.908.438-.908-1.067-.014-1.765-.372-2.3-.978a2.878 2.878 0 01-.67-1.364s.574.511 1.682.511c.1 0 .203-.004.31-.014.525-.041.888-.37.888-.37-1.156-.73-1.966-1.999-1.248-3.913.574-1.534 1.957-2.68 3.35-3.543.463-.285.72-.602.72-.874 0-.393-.347-.553-.704-.717-.225-.104-.453-.209-.6-.375-.438-.5-.163-1.311.216-1.8 0 0-.126-.026-.33-.026-.399 0-1.093.098-1.662.68-.759.77-.444 1.61-.444 1.61l-.203.038c-.11.024-.221.03-.333.036l-.034.001h-.041l-.04.002c-1.102 0-1.591-1.13-1.591-1.13s-1.17 1.413.551 2.522c.297.19.426.365.392.553l-.027.123-.125.021c-1.193.32-1.823 1.11-2.552 2.022l-.096.12c-1.17 1.465-2.825 1.512-3.03 1.512h-.023s.377 1.174 1.492 1.174c.018 0 .035 0 .053-.002.513-.018.776-.21.776-.21s.198 2.664-1.822 3.49c0 0 .367.629 1.21.629h.011c1.014-.006 1.421-.614 1.421-.614s-.059.791.304 1.858c.44 1.285 0 2.205 0 2.205s.234.062.507.062a1.457 1.457 0 001.371-.992zm-3.798-9.651c.147 0 .29-.021.425-.067.375-.122.616-.413.867-.718l.011-.014h.001c.261-.318.555-.675 1.064-.941l.525-.277-.487-.337-.005-.003a1.724 1.724 0 00-.895-.265c-.407 0-.784.163-1.094.476-.756.76-1.433.82-1.458.822l-.528.03.217.477c.218.473.788.817 1.357.817zm.672-1.893c.282-.285.578-.37.834-.37.392 0 .69.205.69.205-.573.3-.9.698-1.175 1.033-.236.286-.433.525-.713.618a.94.94 0 01-.308.05c-.446 0-.877-.283-1.025-.608h.003c.056-.006.846-.082 1.694-.928zm2.558 2.706c-.552.901-.904 1.996-.847 3.345.08 1.934 1.159 3.607 2.293 4.948.548.653.672 1.453.672 1.453s-.223-.707-.855-1.434c-1.218-1.403-2.259-2.86-2.396-4.96-.126.382-.644 1.44-1.466 1.84 0 0 1.033-.614 1.498-3.003v.02c.307-2.433 2.102-4.19 4.102-5.26.175-.092.34-.172.498-.248l.022-.01c-.609.093-1.588.105-2.344-.541 0 0 1.157.838 3.526.077-.191.122-.434.258-.711.414-.676.38-1.557.874-2.383 1.553-2.91 2.515-.828 4.97-.828 4.97-1.047-1.074-1.09-2.225-.781-3.164zm8.44-1.576v.482c.17-.202.496-.16.496-.16v.695s-.011.342-.135.49h.707c-.121-.147-.133-.49-.133-.49v-.696s.326-.041.494.161v-.482h-1.429zm.05-2.656a1.164 1.164 0 01-.354-.206c-.373-.286-.381-.548-.381-.55l.83.344v.455l-.088-.04-.007-.003zm1.623-.206c.375-.286.382-.55.382-.55l-.83.344v.455l.087-.04.002-.001.004-.001c.029-.01.153-.05.355-.207zm-.985-3.16c1.302 0 2.482.62 2.482 1.31l-.025.17-.52 2.936.52.298 1.35.776h-.004s.304.153.443.248c.517.352.625.864.327 1.077-.075-.42-.41-.856-1.039-.856-.453 0-.797.23-1.078.575-.07.087-.138.18-.203.28a5.504 5.504 0 01-.233.345h3.48c-.256.506-.5 1.042-.5 1.624v7.577c0 1.834-1.43 2.71-2.983 2.71l-.258-.001c-.969-.004-1.153-.004-1.761.595-.612-.6-.796-.599-1.768-.595h-.254c-1.55 0-2.984-.875-2.984-2.709v-7.577c0-.582-.243-1.118-.498-1.624h3.479a5.355 5.355 0 01-.235-.344 2.804 2.804 0 00-.203-.28c-.28-.346-.625-.576-1.078-.576-.628 0-.964.438-1.038.856-.299-.212-.19-.725.325-1.077.14-.095.445-.248.445-.248h-.005l1.35-.776.523-.298-.52-2.937-.026-.17c0-.689 1.18-1.309 2.481-1.309h.008zm-.15 2.261l-1.827-.61.482 2.737 1.345.698v-2.825zm-.576 5.967c-.28-.1-.573-.283-.873-.577v.003h-3.156c.135.357.25.745.25 1.13v3.977h7.004c-.351-.355-.345-.805-.257-1.098a1.153 1.153 0 01-.26-.17c-.275.198-1.109.797-1.328.948l-.046.03-2.749-.488h-.055c-.066 0-.163-.002-.268-.015a.269.269 0 01-.527-.104l.01-.058c-.282-.196-.544-.635-.429-1.098l.012-.049.04-.028a1.5 1.5 0 01.124-.076l-.2-.03a.136.136 0 01-.113-.154.136.136 0 01.157-.112l.475.074.043-1.648.709-.738.441.915-.466 1.585.42.065c.073.01.125.079.113.154a.135.135 0 01-.135.111h-.021l-.342-.055c.002.006.005.01.008.015l.007.012a.37.37 0 00.164.15l2.095.033.004-.004c.092-.089.309-.297.531-.518a1.116 1.116 0 01-.734-.92c-.287-.12-.487-.302-.597-.536a1.101 1.101 0 01-.051-.726zm1.271 3.956c.259-.179.974-.693 1.252-.894a1.178 1.178 0 01-.176-.876 1.285 1.285 0 01-.313-.278 31.393 31.393 0 01-1.036 1.028l-.04.04-2.099-.033a2.13 2.13 0 01-.068.506l-.017.066 2.497.44zm-2.689-1.07a.635.635 0 01-.24-.25c-.068-.14-.164-.206-.306-.205-.184 0-.38.108-.465.16-.069.39.224.744.42.815.178.064.395.077.505.077l.016-.05a.92.92 0 00.026-.1 2.82 2.82 0 00.044-.447zm-.457-2.322l-.043 1.582.183.027.447-1.519-.227-.467-.36.377zm4 9.794c.113-.005.24-.007.376-.007 0 0 .325-.937.345-.966a7.99 7.99 0 01-.709-.367c.032.046.078.094.124.143.096.1.193.202.161.287l-.297.91zm1.114-.045l.195-.996c.021-.11.042-.255.042-.257l-.04-.038a1.641 1.641 0 01-.32-.388c-.07-.136-.084-.238-.1-.353a1.524 1.524 0 00-.089-.378s.04-.078.13-.078c.013 0 .03 0 .044.005.118.034.199.23.29.453.123.302.266.65.547.701a.716.716 0 00.13.013c.14 0 .225-.059.316-.165 0 0-.245-.38-.43-.635-.038-.053-.075-.108-.112-.163-.198-.291-.392-.578-.775-.578l-.035.001a.46.46 0 00-.242.08.954.954 0 00-.51-.153 1.39 1.39 0 00-.442.086c-.073.023-.132.042-.175.042h-.005l-1.015-.098c-.159-.015-.283-.172-.329-.234l-.017-.027c0-.026 0-.054-.002-.079-.034-.815-.677-1.165-.906-1.17 0 0 .026-.155-.035-.215l-.224.267-.734-.363.524.602-.444.49a.135.135 0 00-.026.163l.192.166.243-.145c.013-.01.035-.012.061-.012.031 0 .07.004.11.008.049.004.1.01.15.01.1 0 .184-.02.194-.112-.009.09-.041.202-.077.325-.082.284-.182.628-.05.917l.139.312-.897-.127-.42.698c-.13.232-.151.483-.026.62l.158.193s.22-.229.269-.38l-.072-.078c-.06-.064-.058-.124-.02-.193l.263-.429 1.06.246.056-.094c.072-.118.175-.153.288-.153a.95.95 0 01.144.013c.197.038.52.09.844.09.354 0 .707-.062.894-.27.197.287.497.45.734.58.227.122.396.214.366.353l-.204.959c.135-.006.267-.015.39-.032zm-5.209-1.824l-.046-.115c-.034-.075-.03-.156.034-.2l.379-.258.633.12s-.114-.14-.103-.33l-.604-.126-.57.342a.538.538 0 00-.181.648l.076.163s.352-.143.382-.244zm5.673.878l-.174.892c1.039-.252 1.698-1.022 1.697-2.128l-.002-3.332h-9.004v3.332c0 1.363 1.002 2.216 2.481 2.216 1.236 0 1.562.047 2.022.496.317-.312.579-.428 1.117-.47l.012-.053.284-.862c-.016-.02-.48-.539-.48-.539-.185.06-.34.07-.598.07-.267 0-.568-.03-.894-.09a.467.467 0 00-.094-.01c-.04 0-.043.004-.053.023l-.057.091-.103.168-.194-.044-.864-.2-.118.192.017.02.105.114-.046.149c-.064.194-.27.421-.333.483l-.215.228-.197-.244-.147-.183c-.157-.172-.192-.434-.105-.709-.002.003-.005.004-.009.005l-.243.1-.11-.235-.077-.167a.802.802 0 01.273-.978l.696-.386.662.128a2.17 2.17 0 00.025-.154c.011-.077.023-.158.033-.189l-.015-.002a.137.137 0 00-.022-.002l-.382.14-.368-.25s-.144-.136-.013-.272l.356-.531-.902-1.115 1.387.561.092-.113.187-.22.213.198c.06.057.095.127.112.198.382.146 1.068.578 1.128 1.28l-.215.086v.004c.05.058.09.082.103.084l.99.096c.018-.003.038-.01.06-.016l.033-.01c.122-.041.307-.1.526-.1.178 0 .35.039.517.116a.786.786 0 01.222-.045h.048c.53 0 .794.388 1.005.699.036.055.071.105.107.156.187.256.427.632.438.648l.108.168-.133.153a.665.665 0 01-.524.255.964.964 0 01-.337-.065 5.054 5.054 0 01-.028.165zm1.52-8.813c0-.386.115-.773.253-1.13v-.002h-3.153c-.483.471-.947.647-1.362.687a2.202 2.202 0 01-.228.012h-.01a2.226 2.226 0 01-.454-.047.821.821 0 00.036.539c.088.19.266.333.526.428l.087.033.001.093c0 .028.02.63.686.796.108-.11.206-.21.28-.292-.136-.316-.064-.637.133-.795-.008.033-.095.822.547 1.115l.106.05-.032.11c-.011.033-.225.797.553 1.081l.137.051-.061.132c-.015.03-.32.722.4 1.115h1.557v-1.218c-.554-.067-.789-.504-.85-.815-.257-.044-.456-.153-.593-.332a.703.703 0 01-.042-.832c-.001.004 0 .417.259.671.128.123.28.22.51.24l.113.01.01.115c.003.024.065.584.593.67l-.001-2.485zm-1.559-3.292L86.502 46l-.634-.356-1.689.905-.004-.004-.004.004-1.689-.905-.632.356-.615.352h-.007l-.157.088c.349.094.613.264.837.488l.012.013.015.014a4.374 4.374 0 01.178.208 4.687 4.687 0 01.146.2l.013.02c.051.076.099.154.147.234.438.743 1.137 1.187 1.758 1.188.622-.001 1.321-.445 1.76-1.188a4.275 4.275 0 01.306-.456l.016-.02a2.754 2.754 0 01.162-.186l.009-.01a1.82 1.82 0 01.85-.505l-.154-.088h-.009zm-2.795-.403l1.347-.698.48-2.738-1.827.61v2.826zm-2.148-3.915l2.002.779 2.002-.779c-.169-.396-.954-.734-2.002-.735-1.047.001-1.832.339-2.002.735z" fill="#000"/></g><path d="M108.292 54.45v-4.996h2.982v-1.818h-8.136v1.818h2.982v4.995h2.172zm5.95-2.849v-3.965h-2.099v6.813h1.853l3.619-3.964v3.964h2.1v-6.813h-1.853l-3.62 3.965zm12.535.315v2.533h2.099v-6.813h-2.099v2.49h-3.373v-2.49h-2.099v6.813h2.099v-2.533h3.373zm7.945 2.533c.478 0 .913-.042 1.318-.157 1.086-.3 1.795-1.174 1.795-2.362 0-1.13-.608-1.918-1.578-2.275-.464-.172-1.013-.187-1.535-.187h-2.157v-1.832h-2.099v6.813h4.256zm-.362-3.377c.29 0 .565 0 .811.085.348.115.55.401.55.745a.856.856 0 01-.535.801c-.232.1-.464.1-.826.1h-1.795v-1.731h1.795zm7.239.801l2.504 2.576h2.795l-3.489-3.55 3.358-3.263h-2.635l-2.533 2.563h-.579v-2.563h-2.099v6.813h2.099v-2.576h.579zm9.618-4.423c-2.823 0-4.517 1.575-4.517 3.607 0 2.033 1.694 3.607 4.517 3.607 2.809 0 4.503-1.574 4.503-3.607 0-2.032-1.694-3.607-4.503-3.607zm0 5.554c-1.404 0-2.301-.83-2.301-1.947 0-1.116.897-1.932 2.301-1.932 1.39 0 2.302.816 2.302 1.932 0 1.117-.912 1.947-2.302 1.947zm11.494-5.754h-2.099v.687c-2.635.057-4.214 1.16-4.214 3.106 0 1.947 1.579 2.963 4.214 3.02v.687h2.099v-.687c2.649-.057 4.227-1.074 4.227-3.02 0-1.947-1.578-3.049-4.227-3.106v-.687zm-2.099 5.353c-1.449-.057-2.085-.644-2.085-1.56s.636-1.575 2.085-1.632v3.192zm2.099-3.192c1.462.057 2.085.716 2.085 1.632 0 .916-.623 1.503-2.085 1.56v-3.192zm11.211-2.161h-2.099v.687c-2.635.057-4.213 1.16-4.213 3.106 0 1.947 1.578 2.963 4.213 3.02v.687h2.099v-.687c2.65-.057 4.228-1.074 4.228-3.02 0-1.947-1.578-3.049-4.228-3.106v-.687zm-2.099 5.353c-1.447-.057-2.085-.644-2.085-1.56s.638-1.575 2.085-1.632v3.192zm2.099-3.192c1.463.057 2.085.716 2.085 1.632 0 .916-.622 1.503-2.085 1.56v-3.192z" fill="#000"/></g></g><defs><clipPath id="clip0_3702_4030"><path fill="#fff" transform="translate(69 36)" d="M0 0h110v30H0z"/></clipPath></defs></svg>