<svg width="334" height="157" fill="none" xmlns="http://www.w3.org/2000/svg"><path fill="#fff" d="M0 0h333.59v156.03H0z"/><path fill="#fff" d="M89 61h156v35H89z"/><path d="M165.454 77.079h10.338l-.236.76-.44 1.06-.598.965-.513.62-.838.775-1.061.727-1.258.586-.575.188-.732.167-.934.123-.846.023-.918-.069-.668-.098-.829-.198-.806-.284-.585-.265-.723-.425-.695-.511-.329-.277-.61-.613-.733-.912-.105-.176-.106-.137-.285-.486-.313-.67-.31-.865-.116-.536-.108-.737-.039-.748.031-.722.166-1.037.133-.51.17-.495.35-.79.445-.771.676-.87.157-.16.138-.161.479-.456.506-.408.921-.58 1.011-.438.643-.197.908-.192.941-.103 1.032-.021.145.01.134-.002.407.039.127.004 1.162.21.623.208.118.031 1.157.544.674.445.612.52.763.883.339.524h1.416l-.556-.907-.087-.092-.186-.272-.391-.445-.764-.707-.619-.455-.935-.523-1.144-.45-1.082-.28-1.144-.162-1.049-.04-.789.02-1.007.1-.729.133-1.134.325-.869.347-.184.11-.218.1-.977.606-.357.274-.532.466-.336.319-.71.824-.49.693-.479.917-.297.779-.125.402-.211 1.052-.069.657-.024.678.006.232.079 1.106.109.632.155.613.345.984.272.564.315.538.477.695.711.822.71.646.368.299.377.262 1.012.585.646.284.444.16.452.13.728.176 1.008.153.786.056.78.013.92-.06.675-.082.849-.187.393-.118.219-.057.777-.3.565-.276.881-.543.668-.514.143-.139.169-.14.435-.44.286-.317.72-.99.304-.543.427-.953.193-.594.262-1.064.073-.513h-11.658v.919zm24.371-6.324l-.294-.98-.308-.628-.402-.565-.385-.398-.437-.358-.593-.372-.532-.257-1.045-.346-.855-.173-.746-.082-5.972-.05v17.122h1.121V67.462h3.647l.193.004h.178l1.069.081.795.132 1.137.375.823.465.32.26.435.46.387.584.233.551.153.61.074.645-.004.498.001.115-.146.877-.281.78-.128.213-.341.479-.412.426-.671.48-.667.314-1.024.3-1.153.16-1.716.033 5.626 7.316.038.048h1.38l-5.141-6.634.854-.019.547-.018.144-.039.126-.003.513-.1.464-.148.451-.193.416-.236.661-.522.512-.547.477-.71.034-.087.067-.117.15-.332.275-1.05.061-.754-.028-.793-.081-.61zm19.346 2.638l-.049-.198-.026-.22-.048-.221-.261-.818-.243-.596-.285-.569-.112-.173-.101-.195-.371-.537-.277-.332-.295-.32-.146-.175-.672-.619-1.085-.794-.375-.21-.8-.396-.602-.237-.654-.199-.667-.153-1.161-.162-.98-.032-1.463.078-1.138.217-.86.256-.62.25-.779.396-.758.47-.363.273-.688.595-.63.658-.54.694-.352.55-.485.958-.225.616-.281 1.06-.119.91-.039.94.039.948.125.891.149.645.358 1.02.182.382.413.752.369.535.418.502.632.654.692.581.547.391.568.343.59.3.401.173 1.054.36.665.153.927.137.714.052.751.012.963-.068.7-.098.683-.143.647-.187 1.039-.407.584-.31.75-.486.524-.408.527-.455.622-.662.287-.352.381-.537.535-.938.259-.596.334-1.04.046-.224.026-.213.093-.449.063-.688.021-.957-.084-1.149-.044-.229zm-.984 1.823l-.039.647-.049.414-.017.183-.213.99-.194.56-.392.885-.518.827-.138.163-.109.162-.526.593-.307.289-.126.134-.467.38-.652.445-.863.459-.566.225-.756.225-.799.167-.608.069-1.069.04-1.065-.081-.814-.137-.954-.267-1.083-.464-.682-.403-.32-.223-.17-.142-.148-.097-.6-.546-.53-.58-.568-.796-.192-.325-.403-.877-.237-.737-.173-.79-.088-.818-.024-.835.077-1.04.205-.98.234-.741.321-.716.285-.503.567-.805.668-.731.929-.782.507-.325.521-.292.533-.244.749-.27.784-.198.81-.122.856-.051h.426l.425.019.632.055.794.135.585.147.911.324.712.36.66.404 1.065.888.133.15.281.287.238.31.12.143.521.802.25.526.339.905.214.95.018.216.032.197.017.207.04 1.036zm12.953 1.819v.355l-.034.518v.149l-.069.628-.114.594-.284.952-.117.249-.042.118-.317.564-.454.591-.368.343-.395.29-.528.286-.722.247-.666.114-.882.04-.719-.067-.668-.135-.458-.157-.161-.082-.125-.048-.149-.091-.14-.071-.392-.272-.11-.097-.548-.579-.192-.26-.247-.424-.071-.156-.156-.326-.116-.385-.035-.079-.301-1.567-.042-11.732h-1.112v10.49l.002.452.125 1.456.146.74.259.85.205.468.469.837.094.101.087.13.485.532.423.352.68.414.371.171.833.267.278.043.159.036.793.089.684.017.354-.017.639-.066.747-.15.821-.28.608-.324.323-.228.611-.54.378-.46.256-.38.304-.57.243-.61.104-.345.296-1.488.044-.61.029-11.377h-1.116v10.49zm13.922-7.205l-.037-.082-.029-.109-.35-.743-.229-.345-.064-.067-.048-.083-.167-.2-.628-.57-.367-.239-.698-.337-.79-.26-.707-.14-.567-.059-6.471-.05v17.122h1.114v-7.146h4.308l1.141-.055 1.012-.17.727-.224.549-.233.373-.203.655-.485.52-.549.037-.068.081-.094.256-.387.031-.079.073-.107.143-.317.213-.65.105-.587.035-.892-.108-1.175-.113-.417zm-.926 2.423l-.167.66-.277.607-.421.61-.147.136-.055.075-.433.367-.692.407-.574.22-.876.196-.431.035-.121.022-4.918.018v-8.143h4.337l.147.003h.149l.825.069.552.113.106.013.694.23.54.273.545.407.482.5.437.742.062.179.04.084.179.653.015.201.018.093.03.622-.048.53.002.078zm-117.722-6.238a9.572 9.572 0 00-3.602.672 9.38 9.38 0 00-3.06 1.97 8.765 8.765 0 00-2.058 2.958 8.568 8.568 0 00-.677 3.511 8.545 8.545 0 00.696 3.495 8.743 8.743 0 002.069 2.934 9.151 9.151 0 003.041 1.982 9.348 9.348 0 003.595.66h.015a9.499 9.499 0 003.62-.661 9.293 9.293 0 003.071-1.981 8.684 8.684 0 002.053-2.937c.47-1.106.7-2.295.677-3.492a8.59 8.59 0 00-.69-3.514 8.77 8.77 0 00-2.073-2.955 9.314 9.314 0 00-3.064-1.978 9.51 9.51 0 00-3.613-.664zm-4.479 4.59a6.37 6.37 0 012.07-1.357 6.513 6.513 0 014.896 0c.776.315 1.48.776 2.071 1.358a6.01 6.01 0 011.435 2.054c.326.775.482 1.607.459 2.444a6.29 6.29 0 01-1.894 4.467 6.13 6.13 0 01-2.067 1.398 6.276 6.276 0 01-2.47.471 6.38 6.38 0 01-2.459-.463 6.233 6.233 0 01-2.073-1.368 6.19 6.19 0 01-1.417-2.063 6.067 6.067 0 01-.475-2.438 6.108 6.108 0 01.491-2.442 6.238 6.238 0 011.433-2.06zm26.367-4.497h-13.378v2.663h5.243v15.35h2.895v-15.35h5.24v-2.663zm-30.357 0h-13.37v2.663h5.242v15.35h2.887v-15.35h5.241v-2.663zm38.819-.093a9.626 9.626 0 00-3.604.675 9.426 9.426 0 00-3.065 1.967 8.767 8.767 0 00-2.057 2.958 8.567 8.567 0 00-.677 3.512 8.498 8.498 0 00.7 3.498 8.702 8.702 0 002.084 2.93 9.09 9.09 0 003.031 1.984 9.29 9.29 0 003.59.659h.017a9.463 9.463 0 003.621-.66 9.264 9.264 0 003.068-1.983 8.698 8.698 0 002.057-2.936 8.493 8.493 0 00.68-3.492 8.549 8.549 0 00-.691-3.517 8.747 8.747 0 00-2.08-2.953 9.29 9.29 0 00-3.062-1.978 9.485 9.485 0 00-3.612-.664zm-4.471 4.59a6.36 6.36 0 012.07-1.357 6.497 6.497 0 014.893.001 6.368 6.368 0 012.069 1.358 5.997 5.997 0 011.432 2.054c.325.775.481 1.606.456 2.443a6.3 6.3 0 01-1.888 4.467 6.166 6.166 0 01-2.069 1.396 6.3 6.3 0 01-2.47.473 6.388 6.388 0 01-2.459-.463 6.253 6.253 0 01-2.074-1.368 6.202 6.202 0 01-1.414-2.063 6.062 6.062 0 01-.471-2.438 6.014 6.014 0 01.486-2.444 6.168 6.168 0 011.439-2.058z" fill="#424142"/><path d="M237.335 65.2c-.486 0-.951.188-1.295.522a1.76 1.76 0 00-.536 1.26c0 .473.193.926.536 1.26.344.335.809.523 1.295.523a1.88 1.88 0 001.287-.528 1.78 1.78 0 00.543-1.254 1.783 1.783 0 00-.543-1.254 1.877 1.877 0 00-1.287-.53zm-.269 1.13h.247c.426 0 .426.183.426.284 0 .096 0 .294-.426.294h-.247v-.579zm0 1.686v-.855l.665.855h.393a1.348 1.348 0 01-1 .246 1.354 1.354 0 01-.88-.525 1.275 1.275 0 01-.23-.978 1.3 1.3 0 01.558-.844v2.101h.494zm1.189-.105l-.492-.636a.74.74 0 00.327-.265.712.712 0 00.125-.396c0-.212-.088-.702-.902-.702h-.738a1.354 1.354 0 011.381-.084c.216.11.396.277.522.48a1.27 1.27 0 01-.223 1.603z" fill="#434143"/><path d="M97.582 87.584h.6l1.43 3.224 1.429-3.225h.6v3.788h-.389v-3.363l-1.478 3.363h-.326l-1.477-3.363v3.363h-.389v-3.787z" fill="#424142"/><path fill-rule="evenodd" clip-rule="evenodd" d="M98.01 87.729l1.537 3.497h.13l1.536-3.497h-.073l-1.528 3.445-1.528-3.445h-.073zm-.187 0v3.497h-.091v-3.497h.09zm0-.29h-.39v4.077h.688v-2.8l1.23 2.8h.522l1.23-2.8v2.8h.687v-4.077h-.389V87.3l-.061.139h-.396l-1.332 3.003-1.332-3.003h-.397l-.06-.139v.139zm3.578.29v3.497h.091v-3.497h-.091z" fill="#414142"/><path d="M104.997 87.584h.431l1.667 3.787h-.421l-.562-1.27h-1.809l-.562 1.27h-.421l1.677-3.787zm.962 2.175l-.746-1.735-.757 1.735h1.503z" fill="#424142"/><path fill-rule="evenodd" clip-rule="evenodd" d="M104.899 87.439h.628l1.794 4.077h-.745l-.562-1.27h-1.613l-.562 1.27h-.745l1.805-4.078zm.196.29l-1.548 3.497h.096l.562-1.27h2.005l.562 1.27h.097l-1.539-3.497h-.083l.936 2.175h-1.952l.949-2.175h-.085zm-.414 1.885h1.054l-.523-1.217-.531 1.217z" fill="#414142"/><path d="M108.781 87.584h1.993v.342h-1.604v3.445h-.389v-3.787z" fill="#424142"/><path fill-rule="evenodd" clip-rule="evenodd" d="M108.631 87.439h2.291v.633h-1.604v3.444h-.687v-4.078zm.298.29v3.496h.091v-3.444h1.603v-.052h-1.694z" fill="#414142"/><path d="M112.943 87.584h.431l1.666 3.787h-.42l-.563-1.27h-1.808l-.563 1.27h-.42l1.677-3.787zm.962 2.175l-.747-1.735-.757 1.735h1.504z" fill="#424142"/><path fill-rule="evenodd" clip-rule="evenodd" d="M112.845 87.439h.627l1.794 4.077h-.744l-.563-1.27h-1.612l-.563 1.27h-.745l1.806-4.078zm.196.29l-1.549 3.497h.096l.563-1.27h2.004l.563 1.27h.096l-1.538-3.497h-.083l.936 2.175h-1.953l.949-2.175h-.084zm-.415 1.885h1.055l-.524-1.217-.531 1.217z" fill="#414142"/><path d="M117.699 87.517a1.035 1.035 0 01.799.26.984.984 0 01.321.759.88.88 0 01-.157.517.918.918 0 01-.432.337.945.945 0 01.521.356.9.9 0 01.173.596c0 .553-.394 1.096-1.256 1.096a1.195 1.195 0 01-.927-.324 1.13 1.13 0 01-.273-.413 1.09 1.09 0 01-.067-.487h.389a.79.79 0 00.228.64.83.83 0 00.65.24.78.78 0 00.608-.177.728.728 0 00.259-.565c0-.404-.258-.767-.904-.767h-.232v-.343h.232a.717.717 0 00.573-.171.683.683 0 00.226-.54.65.65 0 00-.208-.495.665.665 0 00-.518-.176.7.7 0 00-.535.191.644.644 0 00-.201.52h-.389a.97.97 0 01.31-.779 1.05 1.05 0 01.81-.275z" fill="#424142"/><path fill-rule="evenodd" clip-rule="evenodd" d="M118.081 87.7a.89.89 0 00-.366-.038l-.015.001-.015-.001a.891.891 0 00-.692.235.84.84 0 00-.262.53h.093a.812.812 0 01.54-.664.856.856 0 01.34-.048.835.835 0 01.622.216.794.794 0 01.253.598.813.813 0 01-.33.694.762.762 0 00.29-.25.734.734 0 00.131-.435v-.004l.001-.004a.836.836 0 00-.274-.646.878.878 0 00-.316-.183zm-.26 1.69a.863.863 0 01-.2-.003h-.072v.053h.082c.352 0 .62.1.8.274a.87.87 0 01.253.637.86.86 0 01-.309.675.91.91 0 01-.712.214.995.995 0 01-.751-.285.945.945 0 01-.273-.596h-.092a.974.974 0 00.299.652 1.03 1.03 0 00.808.282h.014c.398 0 .671-.125.845-.297a.91.91 0 00.263-.654v-.01a.763.763 0 00-.146-.502.795.795 0 00-.439-.3l-.433-.116.063-.024zm-.122-2.019a1.191 1.191 0 01.901.3 1.122 1.122 0 01.369.866 1.03 1.03 0 01-.41.837c.122.074.23.172.314.288.146.2.216.441.201.685a1.2 1.2 0 01-.348.852c-.237.235-.59.382-1.051.384a1.342 1.342 0 01-1.038-.366 1.262 1.262 0 01-.384-1.015l.011-.133h.691l-.017.16a.644.644 0 00.188.523.693.693 0 00.532.198l.015-.001.016.002a.63.63 0 00.49-.142.58.58 0 00.207-.454v-.003a.585.585 0 00-.166-.433c-.11-.107-.294-.19-.589-.19h-.38v-.632h.391l.011.001a.562.562 0 00.451-.134.54.54 0 00.178-.425l-.001-.007v-.007a.485.485 0 00-.161-.384.513.513 0 00-.402-.136h-.025a.546.546 0 00-.419.15.516.516 0 00-.157.406l.012.156h-.689l-.009-.136a1.136 1.136 0 01.355-.893 1.178 1.178 0 01.913-.316z" fill="#414142"/><path d="M121.098 87.584v3.25l2.313-3.25h.41v3.787h-.389v-3.25l-2.313 3.25h-.41v-3.787h.389z" fill="#424142"/><path fill-rule="evenodd" clip-rule="evenodd" d="M120.561 87.439h.687v2.93l2.086-2.93h.637v4.077h-.687v-2.931l-2.086 2.93h-.637V87.44zm.298.29v3.496h.091V87.73h-.091zm.142 3.496h.041l2.489-3.496h-.041l-2.489 3.496zm2.581-3.496v3.497h.091v-3.497h-.091z" fill="#414142"/><path d="M125.838 87.584h.389v1.668h2.035v-1.668h.389v3.787h-.389v-1.776h-2.035v1.776h-.389v-3.787z" fill="#424142"/><path fill-rule="evenodd" clip-rule="evenodd" d="M125.689 87.439h.688v1.668h1.736v-1.668h.687v4.077h-.687V89.74h-1.736v1.776h-.688v-4.078zm.299.29v3.496h.091V89.45h2.332v1.776h.091v-3.497h-.091v1.668h-2.332V87.73h-.091z" fill="#414142"/><path d="M131.057 87.584v1.566h.894c.788 0 1.235.435 1.235 1.11a1.1 1.1 0 01-.364.823 1.158 1.158 0 01-.871.287h-1.283v-3.787h.389zm0 3.444h.899a.812.812 0 00.591-.207.77.77 0 00.25-.56.75.75 0 00-.25-.562.79.79 0 00-.591-.207h-.899v1.536zm2.545-3.445h.389v3.788h-.389v-3.787z" fill="#424142"/><path fill-rule="evenodd" clip-rule="evenodd" d="M130.52 87.439h.687v1.566h.744c.422 0 .771.116 1.016.341.245.226.368.544.369.913a1.233 1.233 0 01-.412.93 1.291 1.291 0 01-.979.327h-1.425v-4.078zm.298.29v3.497h1.147a1.011 1.011 0 00.757-.25.952.952 0 00.316-.715c0-.307-.101-.543-.276-.704-.175-.162-.444-.262-.811-.262h-1.042v-1.566h-.091zm2.635-.29h.687v4.077h-.687v-4.078zm.298.29v3.497h.091v-3.497h-.091zm-1.799 1.618a.943.943 0 01.917.55.879.879 0 010 .727.91.91 0 01-.219.303.945.945 0 01-.698.246h-1.043v-1.826h1.043zm.272.326a.659.659 0 00-.258-.036h-.759v1.246h.759a.659.659 0 00.48-.167.626.626 0 00.203-.456.608.608 0 00-.203-.455.64.64 0 00-.222-.132z" fill="#414142"/><path d="M142.425 89.457c.014.4-.096.794-.314 1.133a2.047 2.047 0 01-.91.768 2.112 2.112 0 01-2.27-.39 1.992 1.992 0 01-.583-1.027 1.95 1.95 0 01.105-1.169c.154-.37.418-.688.758-.912a2.105 2.105 0 011.153-.343 1.994 1.994 0 011.458.54c.192.181.345.399.449.64.104.24.156.499.154.76zm-.389 0a1.547 1.547 0 00-.479-1.149 1.613 1.613 0 00-.546-.343 1.652 1.652 0 00-.642-.105c-.329.001-.65.097-.923.276-.273.18-.486.434-.61.73a1.583 1.583 0 00.373 1.764 1.703 1.703 0 001.817.335c.303-.126.561-.336.74-.605.18-.268.274-.583.27-.903z" fill="#424142"/><path fill-rule="evenodd" clip-rule="evenodd" d="M141.097 87.777a1.87 1.87 0 00-.726-.115h-.007c-.38 0-.753.111-1.069.319-.315.207-.56.502-.703.846a1.815 1.815 0 00-.098 1.084c.079.362.268.694.542.952.273.258.62.43.995.495a1.96 1.96 0 001.11-.132c.348-.15.642-.399.845-.713.202-.315.303-.68.29-1.051l.149-.005-.149-.001a1.738 1.738 0 00-.142-.703 1.785 1.785 0 00-.415-.592 1.845 1.845 0 00-.622-.384zm1.477 1.678a2.023 2.023 0 00-.165-.814 2.08 2.08 0 00-.483-.688 2.178 2.178 0 00-1.565-.58c-.439 0-.868.128-1.232.367-.365.24-.649.58-.814.978a2.102 2.102 0 00-.113 1.253c.092.42.31.802.626 1.1a2.263 2.263 0 002.434.42c.403-.174.743-.461.976-.824a2.1 2.1 0 00.336-1.212zm-2.207-1.74a1.796 1.796 0 011.295.49 1.677 1.677 0 01.523 1.253c.004.348-.098.69-.293.982a1.8 1.8 0 01-.807.659c-.33.136-.694.175-1.047.11a1.83 1.83 0 01-.933-.476 1.744 1.744 0 01-.503-.9 1.718 1.718 0 01.097-1.021c.135-.323.366-.6.664-.796a1.83 1.83 0 011.004-.3zm1.669 1.742l-.149-.003a1.387 1.387 0 00-.434-1.042 1.47 1.47 0 00-1.077-.407h-.006a1.54 1.54 0 00-.84.252 1.477 1.477 0 00-.555.664c-.113.27-.142.567-.081.853.06.286.207.548.42.753a1.548 1.548 0 001.654.305 1.51 1.51 0 00.674-.55 1.44 1.44 0 00.245-.823l.149-.002z" fill="#414142"/><path d="M147.601 91.028h.352v1.059h-.389v-.717h-3.249v.717h-.389v-1.06h.352l1.451-3.444h.421l1.451 3.445zm-.421 0l-1.241-2.959-1.241 2.959h2.482z" fill="#424142"/><path fill-rule="evenodd" clip-rule="evenodd" d="M145.63 87.439h.62l1.451 3.444h.402v1.35h-.688v-.717h-2.951v.716h-.687v-1.35h.402l1.451-3.444zm.2.29l-1.452 3.444h-.303v.769h.091v-.717h3.548v.717h.09v-.77h-.303l-1.451-3.443h-.092l1.444 3.444h-2.925l1.445-3.444h-.092zm-.909 3.154h2.038l-1.019-2.43-1.019 2.43z" fill="#414142"/><path d="M149.617 87.584h2.135v.342h-1.746v1.367h1.688v.343h-1.688v1.392h1.746v.343h-2.135v-3.787z" fill="#424142"/><path fill-rule="evenodd" clip-rule="evenodd" d="M149.469 87.439h2.432v.633h-1.745v1.076h1.687v.633h-1.687v1.102h1.745v.633h-2.432v-4.078zm.298.29v3.497h1.836v-.053h-1.745v-1.682h1.687v-.053h-1.687v-1.657h1.745v-.052h-1.836z" fill="#414142"/><path d="M153.794 91.37h-.483l1.55-2.01-1.435-1.776h.463l1.445 1.811-1.54 1.976zm2.103-3.787v3.788h-.389v-3.787h.389zm1.619 0h.463l-1.435 1.777 1.551 2.01h-.484l-1.54-1.975 1.445-1.811z" fill="#424142"/><path fill-rule="evenodd" clip-rule="evenodd" d="M156.048 87.439v1.75l1.397-1.75h.842l-1.554 1.923 1.661 2.154h-.856l-1.49-1.912v1.912h-.688v-1.912l-1.49 1.912h-.856l1.661-2.154-1.554-1.923h.842l1.397 1.751v-1.75h.688zm1.543.29l-1.331 1.667 1.426 1.83h.112l-1.441-1.868 1.317-1.63h-.083zm-1.933 0v3.497h.091v-3.497h-.091zm-1.924 0l1.317 1.629-1.441 1.868h.112l1.426-1.83-1.331-1.667h-.083z" fill="#414142"/><path d="M163.071 91.028h.352v1.059h-.389v-.717h-3.248v.717h-.39v-1.06h.353l1.451-3.444h.42l1.451 3.445zm-.421 0l-1.24-2.959-1.241 2.959h2.481z" fill="#424142"/><path fill-rule="evenodd" clip-rule="evenodd" d="M161.1 87.439h.621l1.451 3.444h.401v1.35h-.687v-.717h-2.951v.716h-.687v-1.35h.401l1.451-3.444zm.2.29l-1.451 3.444h-.303v.769h.091v-.717h3.547v.717h.091v-.77h-.303l-1.451-3.443h-.093l1.445 3.444h-2.925l1.444-3.444h-.092zm-.909 3.154h2.038l-1.019-2.43-1.019 2.43z" fill="#414142"/><path d="M165.477 87.584v1.566h.894c.788 0 1.235.435 1.235 1.11a1.1 1.1 0 01-.364.823 1.158 1.158 0 01-.871.287h-1.283v-3.787h.389zm0 3.444h.899a.812.812 0 00.591-.207.77.77 0 00.25-.56.75.75 0 00-.25-.562.79.79 0 00-.591-.207h-.899v1.536zm2.544-3.445h.389v3.788h-.389v-3.787z" fill="#424142"/><path fill-rule="evenodd" clip-rule="evenodd" d="M164.938 87.439h.687v1.566h.744c.422 0 .771.116 1.016.341.245.226.368.544.369.913a1.233 1.233 0 01-.412.93 1.291 1.291 0 01-.979.327h-1.425v-4.078zm.298.29v3.497h1.147a1.011 1.011 0 00.757-.25.952.952 0 00.316-.715c0-.307-.101-.543-.276-.704-.175-.162-.444-.262-.811-.262h-1.042v-1.566h-.091zm2.635-.29h.687v4.077h-.687v-4.078zm.298.29v3.497h.091v-3.497h-.091zm-1.799 1.618a.954.954 0 01.698.246.908.908 0 01.297.667.896.896 0 01-.297.667.954.954 0 01-.698.246h-1.043v-1.826h1.043zm.272.326a.659.659 0 00-.258-.036h-.759v1.246h.759a.659.659 0 00.48-.167.627.627 0 00.203-.456.608.608 0 00-.203-.455.64.64 0 00-.222-.132z" fill="#414142"/><path d="M173.279 87.584v3.25l2.314-3.25h.41v3.787h-.389v-3.25l-2.313 3.25h-.41v-3.787h.388z" fill="#424142"/><path fill-rule="evenodd" clip-rule="evenodd" d="M172.742 87.439h.687v2.93l2.086-2.93h.638v4.077h-.687v-2.931l-2.087 2.93h-.637V87.44zm.298.29v3.496h.091V87.73h-.091zm.142 3.496h.041l2.489-3.496h-.04l-2.49 3.496zm2.582-3.496v3.497h.091v-3.497h-.091z" fill="#414142"/><path d="M181.831 87.584h.431l1.667 3.787h-.421l-.562-1.27h-1.809l-.562 1.27h-.421l1.677-3.787zm.962 2.175l-.746-1.735-.757 1.735h1.503z" fill="#424142"/><path fill-rule="evenodd" clip-rule="evenodd" d="M181.733 87.439h.627l1.795 4.077h-.745l-.562-1.27h-1.613l-.562 1.27h-.745l1.805-4.078zm.196.29l-1.548 3.497h.096l.562-1.27h2.005l.562 1.27h.097l-1.539-3.497h-.083l.936 2.175h-1.953l.949-2.175h-.084zm-.414 1.885h1.054l-.523-1.217-.531 1.217z" fill="#414142"/><path d="M186.002 87.584v3.787h-.389v-3.787h.389zm1.767 0h.462l-1.498 1.806 1.561 1.98h-.483l-1.541-1.939 1.499-1.847z" fill="#424142"/><path fill-rule="evenodd" clip-rule="evenodd" d="M185.465 87.439h.687v1.905l1.545-1.905h.847l-1.621 1.954 1.674 2.123h-.859l-1.586-1.998v1.998h-.687v-4.078zm.298.29v3.497h.091v-3.497h-.091zm2.078 0l-1.381 1.703 1.424 1.794h.109l-1.449-1.838 1.376-1.66h-.079z" fill="#414142"/><path d="M193.187 88.55a1.513 1.513 0 00-.569-.515 1.554 1.554 0 00-.756-.175 1.647 1.647 0 00-1.169.464 1.539 1.539 0 00-.466 1.143 1.56 1.56 0 00.118.625c.082.199.204.38.359.531a1.649 1.649 0 001.185.471 1.572 1.572 0 001.314-.711h.462a1.987 1.987 0 01-.712.764 2.07 2.07 0 01-2.044.079 2.011 2.011 0 01-.772-.707 1.939 1.939 0 01-.299-.99c-.007-.35.081-.695.256-1.001.175-.306.431-.56.741-.738a2.062 2.062 0 011.022-.273c.369-.016.736.074 1.054.257.318.184.575.454.739.777h-.463z" fill="#424142"/><path fill-rule="evenodd" clip-rule="evenodd" d="M192.836 87.9a1.796 1.796 0 00-.972-.238h-.006c-.333 0-.66.088-.947.253-.287.164-.524.4-.686.683a1.79 1.79 0 00.04 1.845c.174.276.421.502.715.655a1.917 1.917 0 001.894-.073c.209-.13.389-.3.53-.497h-.12c-.148.208-.343.38-.571.503a1.835 1.835 0 01-1.522.08 1.79 1.79 0 01-.592-.386 1.701 1.701 0 01-.52-1.258c-.006-.23.036-.458.123-.671.088-.215.219-.41.386-.574a1.768 1.768 0 011.274-.507c.288-.007.573.06.827.192.231.12.428.291.578.499h.124a1.742 1.742 0 00-.555-.507zm-.982-.528a2.1 2.1 0 011.134.278c.343.197.62.488.796.837l.106.209h-.785l-.043-.068a1.364 1.364 0 00-.513-.465 1.408 1.408 0 00-.682-.158h-.006a1.496 1.496 0 00-1.061.421 1.399 1.399 0 00-.423 1.037v.007a1.423 1.423 0 00.433 1.05 1.492 1.492 0 001.077.429h.002c.238 0 .472-.059.679-.171a1.39 1.39 0 00.509-.472l.043-.068h.789l-.11.21c-.176.336-.44.619-.765.822a2.216 2.216 0 01-2.194.084 2.148 2.148 0 01-.829-.76 2.074 2.074 0 01-.046-2.137 2.14 2.14 0 01.795-.792c.331-.19.709-.292 1.094-.293z" fill="#414142"/><path d="M195.52 87.584h2.134v.342h-1.746v1.367h1.688v.343h-1.688v1.392h1.746v.343h-2.134v-3.787z" fill="#424142"/><path fill-rule="evenodd" clip-rule="evenodd" d="M195.369 87.439h2.433v.633h-1.746v1.076h1.688v.633h-1.688v1.102h1.746v.633h-2.433v-4.078zm.298.29v3.497h1.837v-.053h-1.746v-1.682h1.688v-.053h-1.688v-1.657h1.746v-.052h-1.837z" fill="#414142"/><path d="M202.757 88.55a1.513 1.513 0 00-.569-.515 1.556 1.556 0 00-.756-.175 1.647 1.647 0 00-1.169.464 1.54 1.54 0 00-.466 1.143 1.56 1.56 0 00.118.625c.082.199.204.38.359.531a1.65 1.65 0 001.185.471 1.572 1.572 0 001.314-.711h.462a1.985 1.985 0 01-.712.764 2.063 2.063 0 01-2.044.079 2 2 0 01-.771-.707 1.925 1.925 0 01-.044-1.99 2 2 0 01.741-.74c.31-.177.663-.271 1.022-.272.37-.016.736.074 1.054.257.318.184.575.454.739.777h-.463z" fill="#424142"/><path fill-rule="evenodd" clip-rule="evenodd" d="M202.404 87.9a1.796 1.796 0 00-.972-.238h-.006c-.333 0-.66.088-.947.253a1.85 1.85 0 00-.686.683 1.79 1.79 0 00.04 1.845c.174.276.421.502.715.655a1.917 1.917 0 001.894-.073c.209-.13.389-.3.529-.497h-.119a1.68 1.68 0 01-.571.503 1.735 1.735 0 01-.823.208 1.837 1.837 0 01-.699-.129 1.79 1.79 0 01-.592-.385 1.701 1.701 0 01-.52-1.258c-.006-.23.036-.458.123-.671.088-.215.219-.41.386-.574a1.76 1.76 0 01.585-.38c.219-.087.453-.13.689-.127.288-.007.573.06.827.192.231.12.428.291.578.499h.124a1.743 1.743 0 00-.555-.507zm-.982-.528c.398-.016.791.08 1.134.278.343.197.62.488.796.837l.106.209h-.784l-.044-.068a1.36 1.36 0 00-.514-.465 1.403 1.403 0 00-.682-.158h-.005a1.496 1.496 0 00-1.062.421 1.399 1.399 0 00-.422 1.037v.007a1.441 1.441 0 00.433 1.051 1.525 1.525 0 001.077.428h.002c.238 0 .472-.06.679-.172.208-.112.383-.274.509-.47l.044-.07h.788l-.11.212c-.176.335-.44.618-.765.82a2.215 2.215 0 01-2.194.085 2.149 2.149 0 01-.829-.76 2.074 2.074 0 01-.046-2.137 2.14 2.14 0 01.795-.792c.332-.19.709-.292 1.094-.293z" fill="#414142"/><path d="M208.269 88.55a1.513 1.513 0 00-.569-.515 1.558 1.558 0 00-.756-.175 1.647 1.647 0 00-1.169.464 1.54 1.54 0 00-.466 1.143 1.56 1.56 0 00.118.625 1.638 1.638 0 00.902.884 1.68 1.68 0 001.393-.072c.23-.124.424-.304.563-.521h.462a1.985 1.985 0 01-.712.764 2.063 2.063 0 01-2.044.079 2.003 2.003 0 01-.772-.707 1.938 1.938 0 01-.299-.99c-.007-.35.081-.696.256-1.001.175-.306.431-.56.741-.739a2.063 2.063 0 011.022-.272c.369-.016.736.074 1.054.257.318.184.575.454.738.777h-.462z" fill="#424142"/><path fill-rule="evenodd" clip-rule="evenodd" d="M207.918 87.9a1.799 1.799 0 00-.972-.238h-.006c-.333 0-.66.088-.947.253-.287.164-.524.4-.686.683a1.79 1.79 0 00.04 1.845c.174.276.421.502.715.655a1.917 1.917 0 001.893-.073c.21-.13.389-.3.53-.497h-.119a1.68 1.68 0 01-.571.503 1.735 1.735 0 01-.823.208 1.837 1.837 0 01-.699-.129 1.79 1.79 0 01-.592-.385 1.701 1.701 0 01-.52-1.258c-.006-.23.036-.458.123-.671a1.729 1.729 0 01.971-.955c.219-.086.453-.13.689-.126.288-.007.573.06.827.192.23.12.428.291.578.499h.124a1.754 1.754 0 00-.555-.507zm-.982-.528c.397-.016.791.08 1.133.278.344.197.62.488.797.837l.105.209h-.784l-.043-.068a1.36 1.36 0 00-.514-.465 1.403 1.403 0 00-.682-.158h-.006a1.491 1.491 0 00-1.061.421 1.399 1.399 0 00-.422 1.037v.007a1.441 1.441 0 00.433 1.051 1.525 1.525 0 001.077.428h.002c.238 0 .471-.06.679-.172.208-.112.383-.274.509-.47l.044-.07h.788l-.111.212a2.133 2.133 0 01-.764.82 2.224 2.224 0 01-2.195.084 2.153 2.153 0 01-.828-.758 2.074 2.074 0 01-.046-2.138 2.14 2.14 0 01.795-.792c.331-.19.709-.292 1.094-.293z" fill="#414142"/><path d="M211.684 91.37h-.405l.457-.987-1.498-2.8h.442l1.267 2.39 1.093-2.39h.405l-1.761 3.788z" fill="#424142"/><path fill-rule="evenodd" clip-rule="evenodd" d="M209.992 87.439h.778l1.166 2.2 1.007-2.2h.733l-1.897 4.077h-.731l.522-1.128-1.578-2.95zm.492.29l1.418 2.65-.393.846h.078l1.627-3.496h-.077l-1.181 2.58-1.367-2.58h-.105z" fill="#414142"/><path d="M215.86 87.584h.432l1.666 3.787h-.42l-.563-1.27h-1.808l-.563 1.27h-.42l1.676-3.787zm.963 2.175l-.747-1.735-.757 1.735h1.504z" fill="#424142"/><path fill-rule="evenodd" clip-rule="evenodd" d="M215.762 87.439h.628l1.794 4.077h-.745l-.562-1.27h-1.612l-.563 1.27h-.745l1.805-4.078zm.196.29l-1.548 3.497h.096l.563-1.27h2.004l.562 1.27h.097l-1.539-3.497h-.082l.936 2.175h-1.953l.949-2.175h-.085zm-.414 1.885h1.055l-.524-1.217-.531 1.217z" fill="#414142"/><path d="M219.645 87.584h1.23c1.141 0 1.34.706 1.34 1.136 0 .563-.357 1.13-1.34 1.13h-.841v1.52h-.389v-3.787zm.388 1.924h.847c.694 0 .946-.394.946-.788 0-.405-.252-.794-.946-.794h-.847v1.582z" fill="#424142"/><path fill-rule="evenodd" clip-rule="evenodd" d="M219.496 87.439h1.379c.605 0 .987.188 1.214.46.222.266.276.588.276.82 0 .311-.099.633-.344.879-.247.246-.624.398-1.146.398h-.692v1.52h-.687v-4.078zm.298.29v3.497h.091v-1.52h.99c.462 0 .755-.133.933-.31a.938.938 0 00.259-.676.992.992 0 00-.209-.638c-.158-.189-.446-.353-.983-.353h-1.081zm.091.052h.995c.376 0 .655.106.84.288.184.182.256.42.256.65a.89.89 0 01-.256.645c-.184.181-.463.289-.84.289h-.995v-1.872zm.298.29v1.292h.697c.318 0 .513-.09.628-.203a.606.606 0 00.17-.44.611.611 0 00-.17-.447c-.115-.113-.309-.201-.628-.201h-.697z" fill="#414142"/><path d="M227.948 89.457c.014.4-.095.794-.313 1.133a2.047 2.047 0 01-.91.768 2.115 2.115 0 01-1.197.142 2.08 2.08 0 01-1.073-.533 1.966 1.966 0 01-.479-2.195c.154-.37.418-.688.759-.912a2.1 2.1 0 011.152-.343c.268-.01.535.032.786.124.251.093.479.234.672.416a1.91 1.91 0 01.603 1.4zm-.389 0a1.53 1.53 0 00-.479-1.149 1.644 1.644 0 00-1.187-.448 1.695 1.695 0 00-.924.277 1.621 1.621 0 00-.609.73 1.575 1.575 0 00-.089.937 1.6 1.6 0 00.462.826 1.699 1.699 0 001.817.335 1.65 1.65 0 00.74-.605c.18-.268.274-.583.269-.903z" fill="#424142"/><path fill-rule="evenodd" clip-rule="evenodd" d="M226.621 87.777a1.875 1.875 0 00-.727-.115h-.006a1.95 1.95 0 00-1.069.319 1.874 1.874 0 00-.704.846 1.815 1.815 0 00-.098 1.084c.08.362.268.694.542.952s.621.43.996.495c.375.064.761.018 1.11-.132.348-.15.642-.399.844-.713.202-.315.304-.68.291-1.051v-.006a1.77 1.77 0 00-.558-1.295 1.84 1.84 0 00-.621-.384zm-.736-.405a2.176 2.176 0 011.564.581c.207.195.372.429.483.688.111.257.168.534.166.814.014.427-.103.85-.336 1.212-.234.363-.574.65-.976.824-.403.174-.85.227-1.283.152a2.23 2.23 0 01-1.151-.572 2.132 2.132 0 01-.626-1.1 2.094 2.094 0 01.113-1.253c.165-.398.448-.738.813-.978a2.256 2.256 0 011.233-.368zm.005.343a1.79 1.79 0 011.295.49 1.699 1.699 0 01.524 1.253c.004.348-.098.69-.294.982a1.793 1.793 0 01-.806.659c-.33.136-.695.175-1.047.11a1.826 1.826 0 01-.933-.476 1.744 1.744 0 01-.503-.9 1.717 1.717 0 01.096-1.02c.136-.324.367-.601.664-.797a1.83 1.83 0 011.004-.3zm1.67 1.742l-.149-.003a1.387 1.387 0 00-.435-1.042 1.492 1.492 0 00-1.077-.407h-.005c-.3.001-.592.089-.841.252a1.49 1.49 0 00-.555.665 1.43 1.43 0 00-.08.852c.06.286.206.548.42.753.214.204.485.343.779.397.295.054.599.022.875-.092a1.51 1.51 0 00.674-.55 1.45 1.45 0 00.245-.823l.149-.002z" fill="#414142"/><path d="M229.803 87.584h.972c.405 0 1.288.046 1.288.997a.852.852 0 01-.127.442.877.877 0 01-.341.316.975.975 0 01.509.368.93.93 0 01.17.594c0 .297-.132 1.07-1.404 1.07h-1.067v-3.787zm.972 1.622c.326 0 .899-.056.899-.64 0-.624-.615-.64-.899-.64h-.583v1.28h.583zm.095 1.822c.363 0 1.009-.062 1.009-.722 0-.69-.626-.757-1.009-.757h-.678v1.479h.678z" fill="#424142"/><path fill-rule="evenodd" clip-rule="evenodd" d="M229.652 87.439h1.122c.203 0 .557.01.862.157a.987.987 0 01.408.35c.106.166.167.375.167.636a.992.992 0 01-.325.729 1.099 1.099 0 01.535.994c0 .167-.038.47-.258.734-.227.272-.625.477-1.294.477h-1.217v-4.078zm.298.29v3.497h.919c.603 0 .906-.182 1.063-.37a.878.878 0 00.191-.555v-.004l.001-.004a.796.796 0 00-.144-.504.826.826 0 00-.431-.312l-.335-.104.309-.162a.713.713 0 00.39-.63.86.86 0 00-.122-.48.69.69 0 00-.287-.245c-.238-.115-.529-.127-.73-.127h-.824zm.091.052h.733c.14 0 .395.003.616.099a.705.705 0 01.306.241.764.764 0 01.126.445c0 .17-.042.311-.119.426a.712.712 0 01-.292.243c-.216.103-.47.116-.637.116h-.733v-1.57zm.298.29v.99h.435c.159 0 .355-.015.507-.087a.417.417 0 00.173-.141c.04-.06.07-.145.07-.267a.477.477 0 00-.075-.282.406.406 0 00-.18-.14c-.157-.067-.351-.073-.495-.073h-.435zm-.298 1.333h.827c.196 0 .479.015.718.136a.773.773 0 01.315.28.89.89 0 01.126.486.828.828 0 01-.131.47.777.777 0 01-.322.27c-.239.112-.521.127-.706.127h-.827v-1.77zm.298.29v1.189h.529c.178 0 .401-.016.576-.099a.48.48 0 00.202-.166.537.537 0 00.083-.312.617.617 0 00-.082-.334.483.483 0 00-.198-.175c-.171-.086-.392-.103-.581-.103h-.529z" fill="#414142"/></svg>