<svg width="334" height="157" fill="none" xmlns="http://www.w3.org/2000/svg"><path fill="#fff" d="M0 0h333.587v156.033H0z"/><path fill-rule="evenodd" clip-rule="evenodd" d="M192.177 86.235v-11.08h-14.141v11.08h-4.022V61.508h4.022v10.598h14.141V61.508h4.021v24.727h-4.021zm-62.743 7.039l.814-2.04.815 2.04h-1.629zm2.383 1.883h.628l-2.197-5.175-2.199 5.175h.632l.564-1.41h2.007l.565 1.41zm33.149-1.883l.815-2.04.815 2.04h-1.63zm2.384 1.883h.628l-2.197-5.175-2.199 5.175h.633l.563-1.41h2.007l.565 1.41z" fill="#191919"/><path d="M190.51 90.293h-.629v4.864h.629v-4.864zm-47.634-28.785h-4.024v24.727h4.024V61.508zm-13.795-.009l-7.934 16.753c.043-.041-8.016-16.753-8.016-16.753h-4.166l12.153 24.736L133.247 61.5h-4.166zm32.586 21.425c-5.907 0-10.228-3.795-10.228-9.055 0-5.259 4.321-9.053 10.228-9.053 2.601 0 4.985.827 6.839 2.2v-3.912a15.159 15.159 0 00-6.839-1.602c-7.672 0-13.892 5.537-13.892 12.367 0 6.83 6.22 12.367 13.892 12.367 2.487 0 4.82-.584 6.839-1.603v-3.91c-1.854 1.374-4.238 2.2-6.839 2.2zm-23.729 12.232v-4.87h.802c1.085 0 1.628.438 1.628 1.317 0 .422-.159.74-.478.95.284.069.509.22.675.452.166.234.196.498.196.795 0 .46-.17.808-.51 1.04-.306.21-.665.317-1.182.317h-1.131zm.47-4.394v1.57h.279c.372 0 .638-.043.802-.129.224-.121.336-.255.336-.6 0-.336-.105-.591-.316-.712-.156-.086-.427-.129-.815-.129h-.286zm0 2.042v1.887h.616c.832 0 1.195-.336 1.195-.93 0-.577-.387-.957-1.266-.957h-.545zm10.276-2.666c.713 0 1.323.245 1.831.737a2.38 2.38 0 01.762 1.777c0 .695-.254 1.284-.762 1.772a2.556 2.556 0 01-1.831.73 2.56 2.56 0 01-1.832-.73 2.367 2.367 0 01-.762-1.772c0-.695.254-1.287.762-1.777a2.543 2.543 0 011.832-.737zm0 .5c-.568 0-1.049.198-1.445.59a1.922 1.922 0 00-.595 1.418c0 .548.199 1.02.597 1.414.399.394.88.592 1.443.592.563 0 1.044-.198 1.442-.592.398-.395.597-.866.597-1.415 0-.552-.198-1.025-.594-1.417a1.979 1.979 0 00-1.445-.59zm33.201-.5c.712 0 1.323.245 1.83.737.509.49.763 1.082.763 1.777 0 .695-.254 1.284-.763 1.772a2.554 2.554 0 01-1.83.73 2.558 2.558 0 01-1.832-.73 2.367 2.367 0 01-.762-1.772c0-.695.255-1.287.762-1.777a2.541 2.541 0 011.832-.737zm0 .5a1.98 1.98 0 00-1.446.59 1.929 1.929 0 00-.594 1.418c0 .548.2 1.02.598 1.414.398.394.878.592 1.442.592.562 0 1.044-.198 1.442-.592.398-.395.597-.866.597-1.415a1.92 1.92 0 00-.595-1.417 1.976 1.976 0 00-1.444-.59zm33.003.256l-.431.276c-.202-.351-.48-.526-.836-.526a.825.825 0 00-.565.212.69.69 0 00-.239.54c0 .182.086.343.258.48.103.082.269.175.501.277l.321.141c.381.167.654.333.816.495.232.227.348.516.348.867 0 .42-.148.774-.444 1.063-.296.29-.656.434-1.08.434-.385 0-.714-.115-.986-.344a1.555 1.555 0 01-.524-.909l.526-.148c.036.253.142.465.321.639.181.174.397.26.65.26a1 1 0 00.697-.272.873.873 0 00.299-.672.78.78 0 00-.276-.617c-.116-.103-.322-.217-.618-.346l-.295-.129c-.339-.145-.585-.295-.74-.45a1.073 1.073 0 01-.313-.789c0-.364.137-.665.41-.9.257-.222.572-.334.945-.334.568 0 .985.25 1.255.752zm-10.249 4.262v-4.859h2.671v.503h-2.13v1.443h1.969v.503h-1.969v1.907h2.13v.503h-2.671zm-82.949-4.862v4.36h1.342v.503h-1.884v-4.863h.542zm52.144.502v4.36h-.542v-4.36h-1.175v-.503h2.904v.503h-1.187zM156.69 93.02v2.136h-.542v-4.865h.704c1.187 0 1.782.447 1.782 1.342 0 .375-.11.685-.33.93-.219.244-.516.382-.891.412l1.549 2.182h-.664l-1.472-2.136h-.136zm0-2.225v1.748h.168c.375 0 .657-.051.846-.156.258-.137.387-.375.387-.715 0-.362-.125-.608-.374-.742-.177-.09-.465-.136-.866-.136h-.161zm40.332 2.225v2.136h-.542v-4.865h.703c1.188 0 1.782.447 1.782 1.342 0 .375-.11.685-.329.93-.219.244-.517.382-.891.412l1.549 2.182h-.665l-1.472-2.136h-.135zm0-2.225v1.748h.167c.375 0 .657-.051.846-.156.259-.137.387-.375.387-.715 0-.362-.125-.608-.373-.742-.178-.09-.464-.136-.866-.136h-.161zm28.28-29.287l-10.951 14.101v10.626h-3.724V75.609l-10.951-14.101h4.301l8.512 11.018 8.513-11.018h4.3z" fill="#191919"/></svg>