<svg width="334" height="157" fill="none" xmlns="http://www.w3.org/2000/svg"><path fill="#fff" d="M0 0h333.587v156.033H0z"/><g clip-path="url(#clip0_2403_3373)" fill="#191919"><path d="M145.675 64.335h-23.562l1.584-5.365h23.562l-1.584 5.365zm-.792 2.458h-23.76l-1.584 5.364h23.562l1.782-5.364zm-2.574 8.046h-23.562l-1.782 5.141h23.562l1.782-5.14zm59.599 18.328h4.158c1.584 0 2.574-.447 3.168-1.34.396-.448.792-1.342.792-2.906 0-1.565-.396-2.683-1.386-3.577-.594-.447-1.386-.67-2.574-.67h-4.158v8.493zm-5.742 5.364V66.793h18.216l-1.584 5.364H201.71v6.929h4.554c3.564 0 5.544.894 6.93 2.235.99.894 2.772 3.13 2.772 7.6 0 4.246-1.782 6.705-3.366 7.822-1.782 1.341-3.564 1.788-7.326 1.788h-9.108zm-16.038 0V72.157h-8.118v-5.364h22.572l-1.584 5.364h-7.128v26.374h-5.742zm-22.572-18.998h3.168c.99 0 1.386 0 1.98-.223 1.386-.448 2.178-1.788 2.178-3.577 0-2.235-.792-3.129-2.178-3.576-.594-.223-.99-.223-2.178-.223h-2.97v7.6zm.198 5.588v8.27h3.96c1.188 0 2.178 0 2.97-.894.792-.894 1.188-1.788 1.188-3.13 0-1.117-.198-2.011-.792-2.682-.792-1.117-1.782-1.34-3.564-1.34h-3.762v-.224zm8.91-3.353c.99.447 2.178 1.341 2.574 1.788 1.584 1.565 2.376 3.576 2.376 6.259 0 4.246-1.98 7.375-5.346 8.493-.99.223-2.178.447-4.158.447h-10.098V66.793h8.91c1.782 0 3.168 0 4.158.447 3.168.894 5.346 3.576 5.346 7.6 0 2.234-.594 4.022-1.782 5.14-.396.447-.99 1.118-1.98 1.788z"/></g><defs><clipPath id="clip0_2403_3373"><path fill="#fff" transform="translate(116.965 58.499)" d="M0 0h99v40H0z"/></clipPath></defs></svg>