<svg width="334" height="157" fill="none" xmlns="http://www.w3.org/2000/svg"><path fill="#fff" d="M0 0h333.59v156.03H0z"/><path d="M123 101.985c.137-.728.236-1.465.42-2.18.746-2.887 2.245-5.363 4.138-7.61 2.45-2.908 5.407-5.19 8.653-7.095.355-.208.442-.413.361-.797-.32-1.513-.808-2.937-1.959-4.034-.221-.207-.087-.337.09-.478 1.288-1.015 2.513-2.102 3.57-3.369.954-1.143 1.778-2.366 2.071-3.875.055-.284.09-.577.077-.863-.037-.927-.619-1.522-1.545-1.626-.833-.095-1.57.186-2.264.602-1.402.84-2.534 1.985-3.491 3.305-.255.35-.513.463-.946.346.019-.1.032-.204.06-.305.304-1.062.606-2.127.92-3.189.053-.176.137-.356.252-.494 2.189-2.663 4.999-4.122 8.401-4.386.597-.048 1.222.031 1.81.163 1.694.375 2.574 1.529 2.608 3.328.031 1.657-.581 3.097-1.492 4.427-1.306 1.906-3.038 3.349-4.944 4.593-.124.082-.252.161-.376.246-.019.013-.028.038-.062.091.908 1.043 1.529 2.263 1.912 3.652.699-.35 1.343-.74 2.03-1.002.815-.309 1.194-.813 1.409-1.695a14.729 14.729 0 013.594-6.651c1.175-1.25 2.528-2.237 4.241-2.593.678-.142 1.359-.151 2.027.063 1.023.328 1.598 1.188 1.614 2.413.019 1.484-.507 2.78-1.387 3.942-1.044 1.38-2.378 2.43-3.812 3.35-.755.484-1.545.91-2.31 1.38-.121.075-.258.223-.273.355-.131.964-.165 1.932.031 2.896.024.123.056.246.099.362.261.693.753.86 1.343.42.317-.237.61-.524.865-.826a1586.85 1586.85 0 005.876-7.042c.131-.158.233-.356.289-.555a543.17 543.17 0 001.766-6.238c.103-.372.255-.489.638-.476 1.004.031 2.012.01 3.087.01-.597 2.085-1.178 4.13-1.775 6.219.124-.016.218-.019.305-.044.721-.186 1.439-.384 2.164-.56.224-.055.323-.159.385-.382.457-1.62.939-3.236 1.39-4.859.084-.299.202-.394.51-.387.846.022 1.691.006 2.537.01.121 0 .24.009.407.018-.886 3.075-1.759 6.116-2.633 9.153.015.013.031.022.047.035.065-.073.133-.139.192-.218 1.331-1.792 2.662-3.582 3.986-5.378.115-.157.199-.35.255-.536.283-.926.541-1.859.831-2.782.037-.116.195-.274.298-.277.92-.022 1.841-.013 2.761-.01.047 0 .093.02.184.041-.209.725-.411 1.434-.613 2.143-.497 1.752-.998 3.504-1.483 5.262-.072.264-.059.554-.084.832.047.022.093.047.14.069.155-.16.351-.296.463-.482.718-1.22 1.465-2.43 2.114-3.686.66-1.283 1.21-2.619 1.819-3.93.047-.103.174-.239.268-.239 1.007-.016 2.011-.01 3.081-.01l-1.511 5.379c.025.016.05.028.075.044.084-.11.174-.22.255-.33 1.187-1.617 2.369-3.24 3.566-4.85.087-.12.273-.233.413-.233 9.403-.01 18.805-.01 28.208-.006.012 0 .021.006.136.034-23.049 9.976-46.02 19.92-69.05 29.885.115-.419.214-.79.32-1.16.305-1.06.622-2.123.911-3.188.075-.27.208-.412.466-.52 10.678-4.417 21.352-8.844 32.026-13.267 7.111-2.95 14.225-5.895 21.336-8.845a.972.972 0 00.354-.223 10.075 10.075 0 00-.308-.016c-3.221 0-6.442.006-9.663-.01-.324 0-.448.108-.532.41a81.716 81.716 0 01-.833 2.82c-.044.142-.177.315-.305.36-1.023.349-2.052.673-3.156 1.026l1.35-4.606c-.551 0-1.054-.016-1.558.013-.103.006-.215.148-.295.252-1.434 1.871-2.855 3.749-4.294 5.617a1.287 1.287 0 01-.554.397c-.836.312-1.685.593-2.646.924l.647-4.059c-.016-.006-.031-.015-.044-.022-.314.596-.612 1.198-.942 1.784-.491.872-.973 1.758-1.52 2.596-.482.74-1.113 1.32-2.046 1.44-.777.098-1.362-.205-1.704-.923-.389-.82-.351-1.686-.264-2.559.018-.186.056-.372.031-.595-.078.097-.162.195-.236.296-1.285 1.733-2.562 3.469-3.859 5.192a1.232 1.232 0 01-.55.4c-1.079.379-2.168.725-3.324 1.106.609-2.167 1.206-4.285 1.822-6.48-.591.15-1.107.346-1.639.409-.88.1-1.278.535-1.483 1.427-.417 1.8-.973 3.564-1.483 5.338-.04.145-.165.324-.292.371-1.185.416-2.376.81-3.567 1.207-.043.016-.09.013-.186.025l1.701-5.955-.075-.037c-.084.103-.171.207-.252.311-1.225 1.589-2.447 3.18-3.681 4.761-.774.993-1.614 1.932-2.693 2.587-.513.312-1.088.583-1.67.703-1.172.24-2.083-.356-2.639-1.604-.594-1.33-.703-2.741-.656-4.175.003-.138 0-.274 0-.488-.79.39-1.546.76-2.295 1.144-.065.031-.115.163-.112.248.134 4.295-1.244 8.174-3.215 11.873-1.648 3.09-3.697 5.882-6.337 8.195-1.287 1.128-2.674 2.095-4.343 2.564-.261.073-.526.133-.79.199h-1.119c-1.574-.384-2.329-1.506-2.659-3.015-.065-.306-.118-.612-.177-.917v-1.821zm13.783-14.541l-.121-.038c-.084.05-.171.094-.249.151-2.468 1.777-4.573 3.91-6.203 6.507-1.402 2.237-2.419 4.628-2.537 7.319-.025.539.072 1.106.23 1.626.199.649.659.885 1.288.671a5.246 5.246 0 001.439-.753c.865-.656 1.508-1.528 2.08-2.448 1.869-2.997 3.013-6.277 3.644-9.749.196-1.087.289-2.19.429-3.286zm12.046-8.422c.053.038.109.072.161.11.572-.51 1.176-.986 1.704-1.538.995-1.036 1.673-2.252 1.745-3.736.018-.369.034-.81-.386-.983-.414-.174-.709.141-.889.45-.448.766-.911 1.531-1.238 2.354-.429 1.084-.737 2.224-1.097 3.343zm15.065-13.029c.243-.76.49-1.518.734-2.276.449-1.392.895-2.785 1.358-4.173.084-.254.04-.392-.182-.552-1.732-1.248-3.455-2.515-5.179-3.775-.106-.078-.206-.16-.387-.3h.453c2.098 0 4.193-.017 6.29.012.412.006.55-.145.662-.499.643-2.038 1.308-4.072 1.967-6.107l.109-.323.631 1.931c.502 1.558 1.011 3.117 1.501 4.681.078.25.203.313.453.313 2.148-.009 4.292-.006 6.44-.006h.459c-.193.15-.306.239-.421.323-1.717 1.251-3.428 2.508-5.151 3.75-.222.16-.266.291-.178.552.684 2.078 1.352 4.163 2.026 6.245.019.06.031.119.072.282-.16-.1-.263-.154-.356-.223-1.708-1.244-3.419-2.48-5.111-3.74-.287-.213-.458-.194-.733.01-1.655 1.228-3.325 2.436-4.992 3.652-.128.094-.262.185-.393.279-.025-.022-.05-.038-.072-.056zm26.965 31.77c1.181-1.404 2.327-2.762 3.46-4.13.215-.257.412-.539.565-.837.203-.392.203-.809-.109-1.157-.278-.313-.643-.36-1.031-.241-.437.131-.63.46-.702.887-.022.122-.025.245-.041.395h-1.857c-.132-1.126.518-2.254 1.558-2.668.949-.377 1.91-.36 2.838.069 1.364.63 1.842 2.264.999 3.559-.428.655-.996 1.216-1.502 1.819-.159.188-.328.366-.559.623h2.361v1.684c-1.961-.003-3.934-.003-5.98-.003zm-4.958.031l1.793-2.662c-.406 0-.759.053-1.09-.01-1.746-.326-2.557-2.273-1.652-3.925.578-1.054 1.842-1.618 3.182-1.412 2.017.308 3.01 2.073 2.235 4.118-.302.8-.783 1.53-1.214 2.276-.281.486-.609.947-.928 1.408-.062.091-.181.195-.277.198-.659.016-1.315.01-2.049.01zm2.904-5.227c0-.721-.509-1.242-1.218-1.236a1.2 1.2 0 00-1.196 1.233c.007.693.519 1.195 1.221 1.198.731 0 1.193-.461 1.193-1.195zm11.116-1.037c-.047.404-.085.761-.128 1.131h.69c1.483 0 2.563.89 2.732 2.249.171 1.38-.693 2.6-2.108 2.95-1.099.273-2.148.123-3.154-.401-.212-.11-.284-.241-.246-.474.072-.454.125-.909.181-1.31.559.2 1.086.458 1.645.567.353.072.768-.019 1.124-.135.356-.119.578-.43.591-.837.012-.407-.188-.693-.522-.89-.584-.345-1.218-.32-1.855-.242-.271.032-.534.11-.846.176.075-.753.147-1.493.222-2.233.065-.624.125-1.245.212-1.866.016-.106.141-.203.234-.288.035-.032.122-.006.185-.006h3.887v1.608h-2.844zm-16.119 6.242h-1.936v-.46c0-1.732-.006-3.46.006-5.191.003-.31-.087-.42-.4-.401-.409.025-.818.006-1.308.006.315-.612.6-1.16.893-1.71.028-.05.122-.09.184-.09.847-.007 1.693-.003 2.564-.003-.003 2.63-.003 5.23-.003 7.85z" fill="#191919"/></svg>