<svg width="422" height="250" viewBox="0 0 422 250" fill="none" xmlns="http://www.w3.org/2000/svg">
<g clip-path="url(#clip0_3420_10893)">
<path fill-rule="evenodd" clip-rule="evenodd" d="M201.642 192.12C219.311 195.975 239.013 203.368 245.808 207.232C258.18 214.445 262.524 230.331 255.356 242.865C248.085 255.339 232.074 259.542 219.702 252.331C212.886 248.395 196.673 235.007 184.58 221.663L184.569 221.676C162.513 247.014 120.551 257.274 85.754 237.059C67.2013 226.347 54.0698 209.095 48.4863 188.569C37.1018 146.081 62.3741 102.348 104.835 90.9702C147.668 79.4931 191.228 104.876 202.589 147.277C206.614 162.298 206.228 177.667 201.662 192.07C201.656 192.087 201.648 192.103 201.642 192.12ZM139.817 221.059C169.127 213.206 186.52 183.08 178.667 153.771C170.813 124.461 140.687 107.068 111.378 114.921C82.0688 122.775 64.6754 152.901 72.5288 182.21C80.3821 211.519 110.508 228.913 139.817 221.059Z" fill="#DC1327"/>
<path fill-rule="evenodd" clip-rule="evenodd" d="M259.069 196.841L329.325 178.016C342.556 174.47 350.533 160.655 346.987 147.423L342.817 131.858L334.993 143.13C334.158 144.575 333.213 145.603 332.013 146.906C331.574 147.383 331.101 147.896 330.587 148.481L331.421 151.594C332.673 156.264 329.824 161.198 325.154 162.45L237.321 185.985C244.276 188.581 250.138 191.158 253.771 193.225L253.845 193.267L253.92 193.311C255.746 194.375 257.464 195.557 259.069 196.841ZM173.401 84.8672L172.723 82.338C171.889 79.2249 171.624 75.1248 172.347 71.5946C173.069 68.0643 174 65.3123 175.918 63.1301L202.544 19.292C204.253 16.3315 206.171 14.1493 208.297 12.7454C210.215 10.5631 213.898 8.74212 217.011 7.90794L279.275 -8.77557C292.506 -12.3208 306.321 -4.34428 309.867 8.88676L319.46 44.6884L307.439 62.0903L294.301 13.0576C293.049 8.38786 288.115 5.53909 283.445 6.79036L221.182 23.4739C219.625 23.891 218.277 25.0863 218.277 25.0863L217.499 25.2949C217.214 25.7883 216.877 26.0872 216.54 26.386C216.203 26.6848 215.866 26.9837 215.581 27.4771L188.955 71.3152C188.518 71.4323 188.458 71.9745 188.389 72.6022C188.334 73.0923 188.274 73.6345 188.024 74.0671C187.663 75.8323 187.872 76.6106 188.289 78.1672L194.481 101.276C188.235 94.8308 181.129 89.3136 173.401 84.8672ZM203.272 192.485C203.197 192.468 203.122 192.451 203.046 192.434C203.122 192.451 203.197 192.468 203.272 192.485ZM355.846 46.6172C347.59 43.8243 338.459 47.1051 333.484 53.4432L291.668 112.196C289.959 115.156 288.25 118.117 288.306 121.438L286.362 145.316C286.209 147.86 289.379 150.347 291.505 148.943L313.241 139.782C316.146 138.17 319.051 136.557 321.538 133.388L363.145 73.8575C366.202 69.7016 367.286 64.4062 366.243 60.5147C366.34 54.6496 362.337 49.0488 355.846 46.6172ZM283.017 39.4379C284.269 44.1077 281.99 48.055 277.32 49.3063L234.514 60.7762C229.844 62.0275 225.896 59.7485 224.645 55.0787C223.394 50.4089 225.673 46.4615 230.343 45.2103L273.149 33.7404C277.819 32.4891 281.766 34.7681 283.017 39.4379ZM206.164 95.0662C207.415 99.7359 211.362 102.015 216.032 100.764L286.079 81.9947C290.748 80.7435 293.027 76.7961 291.776 72.1263C290.525 67.4566 286.578 65.1776 281.908 66.4288L211.861 85.1978C207.97 86.2405 205.121 91.1747 206.164 95.0662ZM273.771 163.704C279.22 162.244 282.068 157.31 280.609 151.862L270.807 115.282C269.347 109.834 264.413 106.985 258.965 108.445C253.517 109.905 250.668 114.839 252.128 120.287L261.929 156.867C263.389 162.315 268.323 165.164 273.771 163.704ZM227.863 141.804C222.415 143.264 219.566 148.198 221.026 153.646L224.571 166.877C226.031 172.325 230.965 175.174 236.413 173.714C241.861 172.254 244.71 167.32 243.25 161.872L239.705 148.641C238.245 143.193 233.311 140.344 227.863 141.804Z" fill="#DC1327"/>
</g>
<defs>
<clipPath id="clip0_3420_10893">
<rect width="421" height="272" fill="white" transform="translate(0.5 -10.1233)"/>
</clipPath>
</defs>
</svg>
